<svg width="273" height="247" viewBox="0 0 273 247" fill="none" xmlns="http://www.w3.org/2000/svg">
<g clip-path="url(#clip0_162_1618)">
<path d="M154.413 34.1234C157.742 35.6811 160.861 37.4072 163.688 39.2465C173.574 45.6732 181.526 55.0298 191.24 61.4759C200.413 67.5623 211.615 69.042 222.111 70.0593C240.408 71.8329 278.568 88.8413 271.678 120.365C269.171 131.837 260.331 139.629 255.805 150.017C250.991 161.069 251.496 174.852 243.831 184.432C240.458 188.645 235.803 191.427 231.024 193.534C199.219 207.555 163.503 206.903 129.778 205.358C103.16 204.138 60.4069 210.585 37.0264 194.842C25.4185 187.025 31.4547 165.658 23.4225 154.182C16.6731 144.538 7.48716 138.204 2.97468 126.133C-4.70443 105.593 6.2414 78.8621 25.4065 71.5706C37.3827 67.0143 50.0704 64.9269 61.9089 59.9229C74.1397 54.7512 78.8523 47.005 88.1798 37.8366C105.042 21.2648 133.741 24.4453 154.413 34.1234Z" fill="url(#paint0_linear_162_1618)"/>
<path d="M183.87 197.556H91.5469V135.287C91.5469 134.11 92.4151 133.156 93.4857 133.156H181.931C183.002 133.156 183.87 134.11 183.87 135.287V197.556Z" fill="#D3D3D3"/>
<path d="M94.9258 137.668H180.492V192.58H94.9258V137.668Z" fill="#F2F2F2"/>
<path d="M76.8639 216.093C76.0153 217.29 77.637 220.864 80.1802 220.864H197.21C199.752 220.864 201.353 217.29 200.38 216.093H76.8639Z" fill="#D3D3D3"/>
<path d="M200.053 215.439C201.026 216.634 199.751 217.603 197.21 217.603H80.1799C77.6367 217.603 76.2637 216.634 77.1123 215.439L89.0939 198.543C89.9426 197.347 92.1632 196.378 94.0552 196.378H181.123C183.013 196.378 185.337 197.347 186.31 198.543C190.889 204.177 195.472 209.806 200.053 215.439Z" fill="#F2F2F2"/>
<g opacity="0.5">
<path d="M103.104 202.077H99.1512C99.7104 201.184 99.9906 200.736 100.549 199.842H104.345L103.104 202.077ZM108.227 202.077H104.274C104.753 201.184 104.992 200.736 105.47 199.842H109.265L108.227 202.077ZM106.59 199.415H100.82L101.341 198.581H107.023L106.59 199.415ZM113.353 199.415L107.581 199.415L107.998 198.581H113.681C113.55 198.915 113.483 199.082 113.353 199.415ZM120.116 199.415H114.344L114.656 198.581H120.342L120.116 199.415ZM126.879 199.415H121.108L121.315 198.581H126.999C126.952 198.915 126.928 199.082 126.879 199.415ZM133.643 199.415H127.871L127.976 198.581H133.658L133.643 199.415ZM140.406 199.415H134.635V198.581H140.317C140.353 198.915 140.369 199.082 140.406 199.415ZM147.17 199.415H141.398L141.293 198.581H146.977C147.053 198.915 147.092 199.082 147.17 199.415ZM153.934 199.415H148.162L147.953 198.581H153.636C153.756 198.915 153.815 199.082 153.934 199.415ZM160.698 199.415H154.926C154.799 199.082 154.737 198.915 154.61 198.581H160.296L160.698 199.415ZM167.46 199.415H161.689C161.522 199.082 161.438 198.915 161.272 198.581H166.953C167.155 198.915 167.256 199.082 167.46 199.415ZM175.007 199.415H168.452L167.93 198.581H174.384C174.632 198.915 174.758 199.082 175.007 199.415ZM113.347 202.077H109.396C109.793 201.184 109.993 200.737 110.389 199.844L114.184 199.842C113.85 200.737 113.683 201.182 113.347 202.077ZM118.469 202.077H114.517C114.834 201.184 114.992 200.736 115.31 199.842L119.105 199.844L118.469 202.077ZM123.592 202.077H119.64C119.877 201.182 119.995 200.737 120.23 199.842H124.026C123.853 200.736 123.764 201.184 123.592 202.077ZM128.714 202.077H124.762C124.917 201.184 124.993 200.735 125.149 199.842H128.946C128.852 200.736 128.805 201.184 128.714 202.077ZM133.833 202.077H129.884L130.069 199.842H133.864C133.852 200.736 133.846 201.184 133.833 202.077ZM138.957 202.077H135.006L134.99 199.842H138.785C138.855 200.736 138.889 201.184 138.957 202.077ZM144.079 202.077H140.129L139.912 199.842H143.705C143.855 200.736 143.929 201.184 144.079 202.077ZM149.199 202.077H145.249C145.082 201.184 144.997 200.736 144.829 199.842H148.625C148.854 200.736 148.969 201.184 149.199 202.077ZM101.449 205.055H97.2907L98.6856 202.821H102.69L101.449 205.055ZM106.841 205.055H102.682C103.16 204.162 103.4 203.715 103.877 202.821H107.882C107.465 203.714 107.256 204.161 106.841 205.055ZM112.232 205.055H108.072C108.469 204.162 108.667 203.715 109.065 202.821H113.068C112.733 203.715 112.565 204.161 112.232 205.055ZM117.623 205.055H113.462C113.779 204.162 113.938 203.715 114.253 202.821H118.258C118.004 203.715 117.876 204.161 117.623 205.055ZM123.014 205.055H118.855C119.092 204.162 119.208 203.715 119.444 202.823C121.046 202.823 121.845 202.821 123.447 202.821C123.273 203.715 123.187 204.161 123.014 205.055ZM128.403 205.055H124.244L124.632 202.821H128.635C128.543 203.714 128.496 204.161 128.403 205.055ZM133.793 205.055H129.636L129.822 202.821H133.823L133.793 205.055ZM139.185 205.055H135.026L135.011 202.821H139.014C139.082 203.715 139.118 204.161 139.185 205.055ZM144.575 205.055H140.419C140.331 204.162 140.287 203.715 140.201 202.821H144.202L144.575 205.055ZM149.966 205.055H145.808C145.64 204.162 145.555 203.715 145.388 202.821H149.391L149.966 205.055ZM99.7948 208.033H95.4281C95.9857 207.14 96.2664 206.692 96.8251 205.8L101.036 205.799C100.54 206.691 100.29 207.139 99.7948 208.033ZM105.455 208.033H101.089L102.283 205.8H106.495C106.079 206.692 105.87 207.139 105.455 208.033ZM111.115 208.033H106.748L107.74 205.8H111.952L111.115 208.033ZM116.775 208.033H112.406L113.198 205.8H117.41L116.775 208.033ZM122.434 208.033H118.069C118.304 207.14 118.424 206.692 118.657 205.8H122.868C122.696 206.692 122.609 207.139 122.434 208.033ZM128.093 208.033H123.727C123.881 207.14 123.96 206.692 124.115 205.8H128.326L128.093 208.033ZM133.751 208.033H129.388L129.573 205.8H133.782C133.771 206.692 133.764 207.139 133.751 208.033ZM139.415 208.033H135.048C135.043 207.14 135.039 206.692 135.032 205.8H139.243C139.312 206.692 139.345 207.139 139.415 208.033ZM145.074 208.033H140.71C140.622 207.14 140.578 206.692 140.491 205.8H144.7C144.849 206.692 144.925 207.139 145.074 208.033ZM150.732 208.033H146.365C146.199 207.14 146.115 206.692 145.947 205.8H150.157L150.732 208.033ZM98.1399 211.009H93.5654C94.1236 210.116 94.4048 209.67 94.963 208.777H99.3802C98.9675 209.522 98.554 210.266 98.1399 211.009ZM104.07 211.009H99.4961L100.692 208.777H105.11C104.694 209.67 104.485 210.116 104.07 211.009ZM109.997 211.009H105.424C105.821 210.116 106.02 209.67 106.419 208.777H110.835C110.501 209.67 110.334 210.116 109.997 211.009ZM115.907 211.08H111.325C111.654 210.16 111.816 209.698 112.142 208.778H116.562C116.3 209.698 116.17 210.16 115.907 211.08ZM151.5 211.009H117.282C117.516 210.116 117.634 209.67 117.87 208.777H150.925L151.5 211.009ZM126.207 215.916H152.164L149.978 212.111H128.273L126.207 215.916ZM153.834 202.077H149.882C149.64 201.184 149.521 200.736 149.281 199.842H153.076C153.379 200.735 153.529 201.184 153.834 202.077ZM154.844 205.055H150.683C150.443 204.162 150.324 203.715 150.083 202.821H154.088C154.389 203.715 154.541 204.161 154.844 205.055ZM155.853 208.033H151.486C151.245 207.14 151.127 206.692 150.886 205.8H155.097C155.399 206.692 155.549 207.139 155.853 208.033ZM156.863 211.009H152.289L151.687 208.777H156.105L156.863 211.009ZM158.466 202.077H154.515C154.201 201.184 154.043 200.736 153.731 199.842H157.527C157.902 200.736 158.09 201.184 158.466 202.077ZM159.72 205.055H155.561C155.247 204.162 155.089 203.715 154.777 202.821H158.78C159.155 203.714 159.344 204.161 159.72 205.055ZM160.972 208.033H156.606L155.821 205.8H160.032C160.409 206.692 160.596 207.139 160.972 208.033ZM162.225 211.009H157.65C157.338 210.116 157.18 209.67 156.868 208.777H161.285C161.662 209.67 161.848 210.116 162.225 211.009ZM163.099 202.077H159.148L158.181 199.842H161.977C162.426 200.736 162.651 201.184 163.099 202.077ZM164.595 205.055H160.436L159.469 202.821H163.473C163.921 203.715 164.147 204.161 164.595 205.055ZM166.093 208.033H161.725C161.339 207.14 161.146 206.692 160.758 205.8H164.97L166.093 208.033ZM167.588 211.009H163.014C162.627 210.116 162.435 209.67 162.047 208.777H166.466L167.588 211.009ZM167.731 202.077H163.78L162.632 199.842H166.426C166.95 200.736 167.209 201.184 167.731 202.077ZM169.471 205.055H165.312L164.164 202.821H168.167C168.689 203.715 168.951 204.161 169.471 205.055ZM171.211 208.033H166.845C166.386 207.14 166.157 206.692 165.696 205.8H169.907C170.429 206.692 170.69 207.139 171.211 208.033ZM172.951 211.009H168.377C167.994 210.265 167.611 209.521 167.227 208.777H171.647C172.168 209.67 172.429 210.116 172.951 211.009ZM172.366 202.077H168.413C167.88 201.184 167.613 200.736 167.08 199.842H170.877C171.472 200.736 171.769 201.184 172.366 202.077ZM174.347 205.055H170.188C169.655 204.162 169.389 203.715 168.857 202.821H172.86C173.456 203.715 173.753 204.161 174.347 205.055ZM176.331 208.033H171.963C171.431 207.14 171.165 206.692 170.632 205.8H174.844C175.44 206.692 175.737 207.139 176.331 208.033ZM178.314 211.009H173.738L172.407 208.777H176.827L178.314 211.009ZM176.997 202.077H173.046C172.44 201.184 172.138 200.736 171.53 199.842H175.328C175.995 200.736 176.328 201.184 176.997 202.077ZM179.223 205.055H175.064C174.46 204.162 174.156 203.715 173.551 202.821H177.554L179.223 205.055ZM181.45 208.033H177.083C176.477 207.14 176.175 206.692 175.569 205.8H179.78C180.448 206.692 180.782 207.139 181.45 208.033ZM183.676 211.009H179.101L177.588 208.777H182.006C182.674 209.67 183.007 210.116 183.676 211.009Z" fill="#D3D3D3"/>
</g>
<path d="M159.618 192.566H118.879C119.17 191.29 119.437 190.272 119.67 189.563C119.792 189.199 119.959 188.855 120.167 188.54C120.888 187.437 122.124 186.499 123.717 185.705C125.617 184.757 128.023 184.012 130.66 183.421C133.462 182.802 136.519 182.355 139.495 182.032C139.697 182.013 139.896 181.99 140.097 181.971C143.407 181.638 146.588 181.455 149.154 181.366C152.696 181.234 155.084 181.262 155.084 181.262C155.084 181.262 155.276 181.591 155.611 182.248C156.397 183.806 157.969 187.221 159.618 192.566Z" fill="#0B4870"/>
<path d="M128.411 120.874C128.333 121.437 128.197 121.958 128.005 122.461L128.12 121.041C128.218 120.977 128.315 120.936 128.411 120.874Z" fill="#FFE3CA"/>
<path d="M149.99 118.765V118.784C149.951 118.765 149.912 118.744 149.894 118.744C149.933 118.744 149.951 118.765 149.99 118.765Z" fill="#EEBEA7"/>
<path d="M191.801 148.726C191.801 148.726 194.317 146.21 193.818 144.323C193.396 142.721 194.034 140.927 194.193 140.183C194.408 139.196 194.495 135.995 195.177 136.169C196.332 136.472 196.065 141.582 196.207 142.672C196.35 143.76 199.41 140.115 200.453 139.924C201.498 139.73 206.81 145.536 204.443 147.778C202.077 150.016 198.813 150.924 198.469 151.407C198.124 151.891 196.503 153.219 196.503 153.219L191.801 148.726Z" fill="#F1B99E"/>
<path d="M199.784 140.304C199.784 140.304 207.455 133.967 208.293 134.006C209.135 134.042 209.425 134.514 208.73 135.137C208.038 135.762 201.487 141.495 201.487 141.495C201.487 141.495 211.732 135.637 212.427 135.506C212.831 135.429 213.141 136.267 212.796 136.639C212.453 137.008 202.92 143.477 202.92 143.477C202.92 143.477 212.494 138.025 213.104 138.102C213.639 138.172 214.021 139.124 213.336 139.58C212.651 140.036 204.03 145.639 204.03 145.639C204.03 145.639 211.232 142.147 211.711 142.537C212.002 142.779 212.418 143.309 210.536 144.147C208.651 144.986 204.551 147.664 204.551 147.664L199.784 140.304Z" fill="#F1B99E"/>
<path d="M145.016 113.295V113.859C144.976 113.756 144.938 113.671 144.92 113.567C144.88 113.547 144.88 113.505 144.88 113.483C144.92 113.422 144.958 113.36 145.016 113.295Z" fill="#FFBE55"/>
<path d="M139.249 116.72C139.172 116.739 139.073 116.739 138.997 116.739V116.698C139.073 116.72 139.172 116.72 139.249 116.72ZM145.016 113.295V113.463C144.983 113.497 144.951 113.532 144.92 113.567C144.707 113.818 144.474 114.046 144.242 114.277C144.144 114.361 144.068 114.443 143.972 114.527C144.087 114.403 144.222 114.256 144.34 114.131C144.514 113.943 144.687 113.714 144.88 113.483C144.92 113.422 144.958 113.36 145.016 113.295Z" fill="#EEBEA7"/>
<path d="M149.449 106.096C148.385 108.642 147.087 110.939 145.616 112.755C145.424 113.005 145.209 113.255 145.017 113.464V113.296C144.958 113.36 144.92 113.422 144.88 113.483C144.688 113.714 144.515 113.944 144.34 114.132C144.222 114.257 144.087 114.404 143.972 114.528C143.931 114.549 143.894 114.592 143.856 114.633C143.797 114.695 143.739 114.758 143.68 114.779C143.528 114.923 143.366 115.055 143.196 115.175C142.984 115.342 142.791 115.487 142.579 115.613C142.528 115.65 142.477 115.685 142.424 115.718C142.229 115.842 142.037 115.947 141.864 116.03C141.69 116.13 141.508 116.214 141.32 116.281L141.302 116.302C141.147 116.344 141.03 116.406 140.894 116.448C140.855 116.469 140.818 116.49 140.778 116.49C140.644 116.531 140.508 116.572 140.371 116.595C140.334 116.595 140.314 116.615 140.276 116.615H140.216C140.121 116.637 140.005 116.657 139.908 116.678C139.811 116.698 139.695 116.698 139.599 116.698C139.503 116.72 139.404 116.72 139.326 116.72H139.308C139.289 116.739 139.27 116.739 139.25 116.72C139.173 116.72 139.075 116.72 138.998 116.698V116.74C138.883 116.74 138.766 116.72 138.632 116.698C138.495 116.678 138.341 116.657 138.204 116.637C138.127 116.615 138.051 116.615 137.952 116.595C137.876 116.572 137.798 116.572 137.721 116.531C137.315 116.427 136.929 116.26 136.522 116.03C136.394 115.962 136.271 115.886 136.153 115.802C135.515 115.405 134.895 114.842 134.256 114.131C134.026 113.882 133.812 113.589 133.58 113.296C132.593 111.96 131.607 110.187 130.696 107.933C130.325 107.032 129.976 106.12 129.651 105.198C130.134 106.221 129.291 96.6809 129.485 97.0159C126.854 91.5889 129.477 96.0554 130.408 93.3643C136.232 96.0144 147.552 100.586 147.552 95.9516C147.552 95.9516 147.803 98.7695 148.095 101.691C148.326 104.091 148.578 106.577 148.695 107.515C148.695 107.515 149.003 106.993 149.449 106.096Z" fill="#F4C7B1"/>
<path d="M139.249 116.72C139.172 116.739 139.073 116.739 138.997 116.739V116.698C139.073 116.72 139.172 116.72 139.249 116.72ZM145.016 113.295V113.463C144.983 113.497 144.951 113.532 144.92 113.567C144.707 113.818 144.474 114.046 144.242 114.277C144.144 114.361 144.068 114.443 143.972 114.527C144.087 114.403 144.222 114.256 144.34 114.131C144.514 113.943 144.687 113.714 144.88 113.483C144.92 113.422 144.958 113.36 145.016 113.295Z" fill="#EEBEA7"/>
<path d="M129.649 105.198C128.1 101.9 125.604 95.5976 126.049 89.6273V89.6056C125.354 84.6598 131.062 75.7472 139.772 76.206C148.48 75.7472 154.19 84.6598 153.493 89.6056V89.6273C153.762 93.2379 152.95 96.9528 151.944 100.064C152.583 100.041 153.2 100.125 153.82 100.355C157.285 101.587 158.91 106.45 157.44 111.188C155.989 115.947 151.982 118.784 148.518 117.554C146.911 116.99 145.692 115.634 145.015 113.859V113.463C145.208 113.254 145.423 113.004 145.614 112.754C147.086 110.938 148.383 108.642 149.447 106.095C149.001 106.992 148.73 108.095 148.73 108.095C148.613 107.158 148.324 104.091 148.092 101.69C147.8 98.7687 147.549 95.9508 147.549 95.9508C147.549 100.586 136.229 96.0135 130.406 93.3634L129.649 105.198Z" fill="#FFBE55"/>
<path d="M145.016 113.295V113.859C145.016 114.256 144.998 114.736 145.016 115.278C144.454 116.029 143.894 116.657 143.313 117.136C143.118 117.303 142.925 117.45 142.733 117.595C142.586 117.714 142.431 117.819 142.268 117.908H142.249C141.359 118.45 140.468 118.722 139.598 118.743H139.152C139.094 118.743 139.037 118.743 138.997 118.722V116.697C139.073 116.719 139.172 116.719 139.249 116.719C139.269 116.738 139.288 116.738 139.307 116.719H139.325C139.424 116.738 139.501 116.738 139.598 116.738C139.714 116.738 139.849 116.719 139.965 116.697C140.1 116.677 140.256 116.656 140.392 116.635C140.468 116.613 140.545 116.613 140.643 116.593C140.721 116.571 140.798 116.571 140.876 116.53C141.282 116.425 141.668 116.258 142.073 116.028C142.191 115.967 142.327 115.884 142.442 115.801C142.867 115.55 143.273 115.215 143.68 114.777C143.739 114.756 143.797 114.693 143.856 114.631C143.894 114.59 143.931 114.547 143.972 114.526C144.087 114.402 144.222 114.255 144.34 114.13C144.514 113.942 144.687 113.713 144.88 113.481C144.92 113.422 144.958 113.36 145.016 113.295Z" fill="#A5735B"/>
<path d="M138.999 131.183V187.684L148.038 187.268L155.47 186.913L154.714 177.041L153.882 165.998C152.591 166.588 151.307 167.194 150.029 167.815C150.378 163.453 150.532 159.445 150.301 156.168C149.391 143.978 147.979 134.043 146.875 127.552V127.531C146.99 126.279 146.835 124.88 146.566 123.586C146.526 123.32 146.474 123.055 146.411 122.793C146.333 122.5 146.277 122.23 146.199 121.958L146.023 121.333C145.985 121.187 145.926 121.041 145.889 120.915C145.747 120.404 145.579 119.902 145.384 119.412H145.347C145.502 120.164 146.044 122.669 146.72 126.613V126.634C146.277 128.721 144.863 129.89 143.12 130.538C143.102 130.538 143.064 130.558 143.043 130.558C141.845 130.997 140.49 131.163 139.194 131.184C139.136 131.183 139.058 131.205 138.999 131.183Z" fill="#0E538C"/>
<path d="M159.647 148.76C160.112 149.53 160.769 150.95 161.427 152.557C161.332 154.331 161.215 155.395 161.215 155.395C161.215 155.395 160.499 157.419 159.551 160.593C159.298 161.385 156.862 175.412 156.591 176.331C156.532 176.498 156.492 176.685 156.436 176.852C155.546 177.331 155.744 176.496 154.195 177.166C153.733 177.373 153.228 177.582 152.705 177.832C152.628 177.876 152.532 177.916 152.394 177.978C152.24 178.041 152.085 178.104 151.93 178.187C150.901 178.665 149.876 179.152 148.855 179.649C149.202 175.286 150.532 159.445 150.299 156.168C149.39 143.978 147.979 134.043 146.875 127.552V127.531C146.816 127.218 146.779 126.927 146.72 126.634V126.612C146.043 122.669 145.501 120.164 145.346 119.412H150.359V119.455C151.751 119.35 158.326 118.352 162.816 122.964C160.338 121.816 157.055 122.855 155.953 123.587C155.507 123.862 155.097 124.199 154.731 124.588C154.17 125.153 153.711 125.826 153.378 126.571C150.166 133.731 158.292 146.545 159.647 148.76Z" fill="#2A94F4"/>
<path d="M160.013 192.566H147.558C147.688 190.854 147.853 189.079 148.036 187.269C148.223 185.326 148.445 183.352 148.658 181.366C148.728 180.681 148.802 180 148.871 179.316C148.871 179.316 148.876 179.316 148.881 179.312C150.393 178.715 152.382 175.942 154.563 175.013C154.614 174.994 154.662 174.971 154.714 174.952C155.336 174.722 155.954 176.58 156.59 176.331C156.998 180.995 158.456 187.081 160.013 192.566Z" fill="#2A94F4"/>
<path d="M138.999 118.723V131.183C139.058 131.205 139.136 131.183 139.194 131.183C140.49 131.163 141.845 130.997 143.043 130.557C143.065 130.557 143.102 130.538 143.121 130.538C144.863 129.89 146.277 128.721 146.721 126.634V126.612C146.044 122.669 145.503 120.165 145.348 119.412H145.076V119.016C145.076 118.766 145.056 118.536 145.056 118.306C145.037 117.554 145.037 116.845 145.018 116.156V115.28C144.458 116.031 143.896 116.658 143.316 117.137C143.136 117.31 142.942 117.464 142.736 117.597C142.59 117.715 142.434 117.819 142.271 117.909H142.253C141.303 118.494 140.374 118.744 139.446 118.744C139.29 118.744 139.136 118.744 138.999 118.723Z" fill="#F4C7B1"/>
<path d="M194.521 146.095L194.969 146.954L194.983 146.971L198.48 153.638L199.02 154.664C199.02 154.664 197.96 155.124 196.293 155.885C194.775 156.577 192.76 157.486 190.576 158.505C189.971 158.797 189.362 159.083 188.752 159.362C184.505 161.394 180.034 163.563 177.796 164.951C172.912 167.959 168.848 169.01 166.373 168.954C163.91 168.884 158.509 153.162 157.665 149.39C156.81 145.634 153.65 138.714 151.386 132.125C150.428 129.325 150.704 126.855 151.525 124.893C152.616 122.234 154.673 120.516 155.944 120.241C156.444 120.118 156.958 120.063 157.471 120.08C158.263 120.084 159.01 120.247 159.711 120.54C166.584 123.428 168.712 138.785 169.115 141.4C169.263 142.308 169.676 143.83 170.208 145.491C171.387 149.378 173.103 154.069 173.103 154.069C176.554 152.465 177.979 152.006 179.294 151.6C180.249 151.299 181.149 151.054 182.706 150.408C183.175 150.221 183.677 150.002 184.217 149.803C185.535 149.288 186.858 148.79 188.187 148.309C191.472 147.125 194.521 146.095 194.521 146.095Z" fill="#2A94F4"/>
<path d="M139.598 116.699V118.723C139.54 118.744 139.502 118.744 139.444 118.744H138.997C138.125 118.723 137.234 118.452 136.344 117.909H136.326C136.163 117.819 136.008 117.715 135.861 117.597C135.663 117.45 135.47 117.297 135.281 117.137C134.701 116.658 134.139 116.03 133.578 115.28C133.597 114.466 133.578 113.777 133.578 113.297C133.81 113.59 134.024 113.883 134.254 114.132C134.894 114.843 135.514 115.407 136.152 115.803C136.268 115.887 136.404 115.97 136.52 116.031C136.928 116.261 137.314 116.428 137.719 116.533C137.796 116.574 137.874 116.574 137.951 116.596C138.05 116.616 138.125 116.616 138.203 116.638C138.339 116.659 138.494 116.68 138.63 116.7C138.764 116.721 138.882 116.741 138.997 116.741C139.073 116.741 139.172 116.741 139.249 116.721C139.268 116.741 139.288 116.741 139.306 116.721H139.325C139.403 116.72 139.502 116.72 139.598 116.699Z" fill="#A5735B"/>
<path d="M139.598 131.183V187.684L130.56 187.268L123.128 186.913L123.883 177.041L124.715 165.998C125.915 166.542 127.27 167.188 128.567 167.815C128.218 163.453 128.065 159.445 128.296 156.168C129.205 143.978 130.617 134.043 131.72 127.552V127.531C131.606 126.279 131.761 124.88 132.031 123.586C132.069 123.313 132.128 123.044 132.187 122.793C132.264 122.5 132.32 122.23 132.398 121.958L132.573 121.333C132.611 121.187 132.67 121.041 132.708 120.915C132.851 120.404 133.019 119.903 133.212 119.412H133.25C133.095 120.164 132.552 122.669 131.876 126.613V126.634C132.32 128.721 133.734 129.89 135.477 130.538C135.496 130.538 135.534 130.558 135.555 130.558C136.752 130.997 138.109 131.163 139.403 131.184C139.461 131.183 139.54 131.205 139.598 131.183Z" fill="#0E538C"/>
<path d="M133.249 119.411C133.095 120.163 132.552 122.668 131.876 126.612V126.633C131.818 126.926 131.779 127.218 131.721 127.53V127.552C130.617 134.043 129.206 143.977 128.297 156.167C128.065 159.444 128.218 163.452 128.568 167.815C127.29 167.194 126.005 166.588 124.715 165.997C124.193 165.747 123.689 165.539 123.226 165.331C121.676 164.663 120.863 164.182 119.974 163.702C119.917 163.535 119.877 163.348 119.819 163.181C119.548 162.262 119.297 161.385 119.045 160.594C118.096 157.42 117.381 155.395 117.381 155.395C117.381 155.395 117.266 154.332 117.169 152.558C117.826 150.95 118.485 149.53 118.95 148.76C120.303 146.546 128.431 133.731 125.218 126.572C124.884 125.826 124.426 125.154 123.864 124.589C123.499 124.2 123.089 123.863 122.644 123.587C121.543 122.856 117.202 123.683 114.726 124.832C119.216 120.217 126.845 119.35 128.239 119.455V119.412H133.249V119.411ZM131.038 192.565H118.582C118.956 191.248 119.326 189.896 119.67 188.539C120.779 184.241 121.697 179.877 122.006 176.331C122.641 176.58 123.264 176.81 123.885 177.039C126.13 177.893 128.18 178.71 129.724 179.316C129.863 180.685 130.015 182.059 130.164 183.421C130.299 184.715 130.437 186.001 130.559 187.268C130.743 189.079 130.907 190.853 131.038 192.565Z" fill="#2A94F4"/>
<path d="M139.598 118.723V131.183C139.54 131.205 139.461 131.183 139.402 131.183C138.108 131.163 136.751 130.997 135.554 130.557C135.533 130.557 135.495 130.538 135.476 130.538C133.733 129.89 132.319 128.721 131.875 126.634V126.612C132.551 122.669 133.095 120.165 133.249 119.412H133.52V119.016C133.52 118.766 133.54 118.536 133.54 118.306C133.559 117.554 133.559 116.845 133.578 116.156V115.28C134.139 116.031 134.701 116.658 135.281 117.137C135.476 117.326 135.669 117.471 135.86 117.597C136.016 117.722 136.171 117.824 136.325 117.909H136.344C137.293 118.494 138.225 118.744 139.151 118.744C139.307 118.744 139.461 118.744 139.598 118.723Z" fill="#F4C7B1"/>
<path d="M144.938 173.972C144.803 174.89 144.242 175.579 144.242 175.579C144.242 175.579 144.57 176.788 143.816 177.582C143.816 177.582 144.068 178.729 143.081 179.481C143.081 179.481 143.313 180.608 142.538 181.089C142.538 181.089 140.854 181.319 140.237 181.194C137.735 180.58 135.238 179.94 132.747 179.273L134.392 171.821V171.801C135.108 171.279 135.784 170.798 135.998 170.652C136.521 170.317 138.302 170.423 140.138 171.048C141.921 171.654 143.914 172.51 144.474 172.844C144.765 173.011 145.053 173.075 144.938 173.972Z" fill="#EEA886"/>
<path d="M134.605 170.84L134.391 171.801V171.821L132.746 179.273L132.495 180.422C132.495 180.422 131.429 179.984 129.725 179.315C128.177 178.709 126.128 177.896 123.883 177.041C123.263 176.81 122.642 176.58 122.006 176.331C117.612 174.702 112.967 173.011 110.451 172.385C104.974 171.007 101.334 168.795 99.5538 166.938C97.794 165.081 103.754 149.594 105.517 146.212C107.258 142.83 109.308 135.442 111.806 128.951C112.87 126.195 114.63 124.589 116.469 123.754C118.948 122.606 121.541 122.856 122.642 123.587C123.087 123.862 123.497 124.199 123.862 124.588C124.424 125.153 124.883 125.825 125.216 126.571C128.429 133.731 120.301 146.545 118.948 148.76C118.483 149.53 117.825 150.95 117.167 152.557C115.58 156.271 113.877 160.968 113.877 160.968C117.418 162.326 118.753 163.034 119.972 163.701C120.861 164.182 121.674 164.662 123.224 165.331C123.687 165.539 124.192 165.746 124.713 165.997C125.913 166.541 127.268 167.187 128.566 167.814C130.586 168.806 132.599 169.814 134.605 170.84Z" fill="#2A94F4"/>
<path d="M152.84 100.175L152.674 91.9964C152.649 90.6318 152.674 89.28 152.493 88.0145C152.315 86.7308 151.991 85.4741 151.491 84.3107C150.507 81.9786 148.857 80.0102 146.784 78.7617C144.714 77.4938 142.306 76.9177 139.904 76.9283C137.503 76.9177 135.089 77.4938 133.027 78.7617C130.95 80.0102 129.3 81.9786 128.313 84.3107C127.816 85.4735 127.493 86.7308 127.315 88.0145C127.134 89.2935 127.152 90.6142 127.136 91.9964L126.966 100.175H126.015L125.853 91.9964C125.838 90.6552 125.78 89.2431 125.948 87.8168C126.113 86.404 126.435 84.9948 126.966 83.6694C127.996 80.9958 129.919 78.7294 132.245 77.2961C134.575 75.8405 137.265 75.1846 139.904 75.1699C142.545 75.1846 145.232 75.8405 147.562 77.2961C149.89 78.7294 151.81 80.9958 152.838 83.6694C153.369 84.9948 153.694 86.404 153.863 87.8168C154.028 89.2542 153.973 90.6417 153.959 91.9964L153.794 100.175H152.84Z" fill="#0E538C"/>
<path d="M126.775 104.616C125.068 104.616 124.638 103.296 124.638 101.667V96.3787C124.638 94.7506 125.068 93.4282 126.775 93.4282H127.183V104.616H126.775Z" fill="#0B4870"/>
<path d="M127.183 93.4287H128.064V104.616H127.183V93.4287Z" fill="#2A94F4"/>
<path d="M153.292 104.616C155 104.616 155.434 103.296 155.434 101.667V96.3787C155.434 94.7506 155 93.4282 153.292 93.4282H152.884V104.616H153.292Z" fill="#0B4870"/>
<path d="M152.002 93.4287H152.884V104.616H152.002V93.4287Z" fill="#2A94F4"/>
<path d="M140.536 114.811V113.785C144.473 113.785 151.969 107.752 151.969 104.616H152.919C152.919 108.585 144.626 114.811 140.536 114.811Z" fill="#CCE9FF"/>
<path d="M141.169 115.731H139.901C138.85 115.731 137.999 115.091 137.999 114.297C137.999 113.507 138.85 112.868 139.901 112.868H141.169C142.219 112.868 143.071 113.507 143.071 114.297C143.07 115.091 142.219 115.731 141.169 115.731Z" fill="#0B4870"/>
<path d="M106.593 59.5184V67.6224L106.548 78.6236L106.487 91.9112L106.449 101.714L97.3944 91.8736L94.6314 91.8631L57.9914 91.6782C51.8012 90.3758 47.1299 84.5006 47.1299 77.4561V59.5184C47.1299 52.0773 52.3468 45.9316 59.0478 45.1226L95.7744 45.305C101.94 46.6175 106.593 52.4815 106.593 59.5184Z" fill="url(#paint1_linear_162_1618)"/>
<path opacity="0.8" d="M95.1705 59.9073C95.1707 60.1867 95.1199 60.4635 95.0209 60.7217C94.922 60.98 94.7768 61.2147 94.5938 61.4125C94.4107 61.6102 94.1933 61.7672 93.954 61.8743C93.7147 61.9815 93.4581 62.0367 93.199 62.037H59.4248C59.1655 62.037 58.9088 61.9819 58.6693 61.8748C58.4298 61.7678 58.2121 61.6109 58.0288 61.4131C57.8456 61.2153 57.7002 60.9806 57.6011 60.7222C57.502 60.4638 57.451 60.1869 57.4512 59.9073C57.4512 59.6278 57.5022 59.351 57.6014 59.0928C57.7006 58.8346 57.846 58.6 58.0293 58.4024C58.2125 58.2047 58.4301 58.048 58.6696 57.9411C58.909 57.8342 59.1656 57.7792 59.4248 57.7793H93.199C94.287 57.7793 95.1705 58.7315 95.1705 59.9073ZM95.1705 67.8324C95.1702 68.3966 94.9625 68.9376 94.593 69.3369C94.2234 69.7363 93.7222 69.9613 93.199 69.9627H59.4248C58.9014 69.9616 58.3997 69.7367 58.0298 69.3374C57.6598 68.9381 57.4517 68.3969 57.4512 67.8324C57.4511 67.5528 57.5021 67.2759 57.6012 67.0175C57.7004 66.7592 57.8457 66.5244 58.029 66.3267C58.2123 66.1289 58.4299 65.972 58.6694 65.865C58.9088 65.7579 59.1656 65.7027 59.4248 65.7027H93.199C93.4581 65.7029 93.7147 65.7582 93.954 65.8653C94.1933 65.9725 94.4107 66.1294 94.5938 66.3272C94.7768 66.5249 94.922 66.7596 95.0209 67.0179C95.1199 67.2762 95.1707 67.5529 95.1705 67.8324ZM84.8525 75.7569C84.8525 76.9244 83.9657 77.8808 82.8756 77.8808H59.4226C58.9007 77.8801 58.4004 77.6561 58.0315 77.2579C57.6627 76.8596 57.4555 76.3198 57.4555 75.7569C57.4555 75.1684 57.6704 74.6392 58.0294 74.2526C58.2116 74.0537 58.4285 73.8957 58.6676 73.7877C58.9068 73.6797 59.1634 73.624 59.4226 73.6237H82.8756C83.3999 73.6243 83.9025 73.8493 84.2732 74.2492C84.6438 74.6492 84.8522 75.1914 84.8525 75.7569Z" fill="#CCE9FF"/>
</g>
<defs>
<linearGradient id="paint0_linear_162_1618" x1="151.021" y1="10.0293" x2="115.698" y2="343.088" gradientUnits="userSpaceOnUse">
<stop stop-color="#34555A"/>
<stop offset="0.0001" stop-color="#F5DD9D"/>
<stop offset="0.0002" stop-color="#AEAB7C"/>
<stop offset="0.59" stop-color="#04A3A5"/>
<stop offset="0.79408" stop-color="#F9C621"/>
<stop offset="0.9999" stop-color="#CCD59E"/>
</linearGradient>
<linearGradient id="paint1_linear_162_1618" x1="47.1299" y1="45.1226" x2="91.2913" y2="105.907" gradientUnits="userSpaceOnUse">
<stop stop-color="#F9DBCE"/>
<stop stop-color="#BF8931"/>
<stop offset="1" stop-color="#F5D789"/>
</linearGradient>
<clipPath id="clip0_162_1618">
<rect width="272" height="247" fill="white" transform="translate(0.5)"/>
</clipPath>
</defs>
</svg>
