<svg width="32" height="32" viewBox="0 0 32 32" fill="none" xmlns="http://www.w3.org/2000/svg">
<circle cx="16" cy="16" r="16" fill="#83B6B2"/>
<path d="M17.0909 13.0189C17.0909 11.4088 15.7653 10.0986 14.1363 10.0986C12.5072 10.0986 11.1816 11.4088 11.1816 13.0189C11.1816 14.629 12.5072 15.9391 14.1363 15.9391C15.7653 15.9391 17.0909 14.629 17.0909 13.0189Z" fill="white"/>
<path d="M10 20.0273V21.8184H18.2729V20.0273C18.2729 17.7733 16.417 15.939 14.1365 15.939C11.8559 15.939 10 17.7733 10 20.0273Z" fill="white"/>
<path d="M22.9995 21.1956C22.9995 19.5856 21.674 18.2754 20.0449 18.2754C19.7393 18.2754 19.4503 18.3347 19.1729 18.4202C19.3401 18.93 19.454 19.4634 19.454 20.0275V21.8186H22.9995V21.1956Z" fill="white"/>
<path d="M22.41 15.9392C22.41 14.6508 21.3499 13.603 20.0463 13.603C18.7427 13.603 17.6826 14.6508 17.6826 15.9392C17.6826 16.0136 17.6979 16.0839 17.7048 16.1564C18.2875 16.6815 18.7575 17.3222 19.0594 18.0552C19.3607 18.1932 19.693 18.2754 20.0463 18.2754C21.3499 18.2754 22.41 17.2276 22.41 15.9392Z" fill="white"/>
</svg>
