<svg width="88" height="86" viewBox="0 0 88 86" fill="none" xmlns="http://www.w3.org/2000/svg">
<g filter="url(#filter0_d_334_3818)">
<ellipse cx="44" cy="35" rx="34" ry="33" fill="#83B6B2"/>
</g>
<path d="M52.6289 21.3325C52.6289 21.1307 52.7069 20.9372 52.8458 20.7945C52.9848 20.6518 53.1732 20.5716 53.3697 20.5716H57.0736V16.7675C57.0736 16.5657 57.1517 16.3722 57.2906 16.2295C57.4295 16.0868 57.618 16.0066 57.8144 16.0066C58.0109 16.0066 58.1993 16.0868 58.3383 16.2295C58.4772 16.3722 58.5552 16.5657 58.5552 16.7675V20.5716H62.2592C62.4557 20.5716 62.6441 20.6518 62.783 20.7945C62.922 20.9372 63 21.1307 63 21.3325C63 21.5343 62.922 21.7278 62.783 21.8705C62.6441 22.0132 62.4557 22.0933 62.2592 22.0933H58.5552V25.8975C58.5552 26.0993 58.4772 26.2928 58.3383 26.4355C58.1993 26.5782 58.0109 26.6583 57.8144 26.6583C57.618 26.6583 57.4295 26.5782 57.2906 26.4355C57.1517 26.2928 57.0736 26.0993 57.0736 25.8975V22.0933H53.3697C53.1732 22.0933 52.9848 22.0132 52.8458 21.8705C52.7069 21.7278 52.6289 21.5343 52.6289 21.3325ZM62.7444 31.8586C63.3927 35.8303 62.7955 39.9107 61.0391 43.5111C59.2827 47.1115 56.4579 50.0456 52.9724 51.89C49.4868 53.7344 45.5208 54.3937 41.6468 53.7727C37.7727 53.1517 34.1909 51.2826 31.4184 48.435C28.6459 45.5875 26.8259 41.9088 26.2213 37.9299C25.6167 33.9511 26.2586 29.8778 28.0544 26.2979C29.8502 22.7181 32.707 19.8169 36.2126 18.0129C39.7182 16.209 43.6911 15.5957 47.5581 16.2615C47.7504 16.2964 47.9215 16.4079 48.0342 16.5717C48.1469 16.7356 48.192 16.9384 48.1598 17.1363C48.1275 17.3341 48.0206 17.5108 47.8621 17.6281C47.7037 17.7453 47.5066 17.7935 47.3137 17.7623C46.377 17.6046 45.4293 17.5263 44.4801 17.5283C41.1154 17.5308 37.8268 18.5565 35.0288 20.4759C32.2309 22.3954 30.0489 25.1227 28.7581 28.314C27.4672 31.5052 27.1252 35.0176 27.7753 38.4083C28.4253 41.7989 30.0382 44.9159 32.4107 47.3664C34.2511 44.2064 37.2014 41.8917 40.6539 40.8993C39.0487 40.0225 37.7751 38.6195 37.0357 36.9136C36.2963 35.2077 36.1336 33.2968 36.5735 31.485C37.0134 29.6732 38.0307 28.0645 39.4634 26.9149C40.8961 25.7653 42.662 25.1409 44.4801 25.1409C46.2982 25.1409 48.0641 25.7653 49.4969 26.9149C50.9296 28.0645 51.9468 29.6732 52.3867 31.485C52.8267 33.2968 52.664 35.2077 51.9246 36.9136C51.1852 38.6195 49.9116 40.0225 48.3063 40.8993C51.7588 41.8917 54.7092 44.2064 56.5495 47.3664C58.1263 45.7457 59.3767 43.8218 60.2292 41.7047C61.0818 39.5875 61.5199 37.3186 61.5184 35.0275C61.5182 34.0499 61.4395 33.074 61.2832 32.1097C61.2528 31.9116 61.2997 31.7092 61.4139 31.5464C61.528 31.3837 61.7001 31.2738 61.8927 31.2407C62.0853 31.2076 62.2829 31.254 62.4424 31.3697C62.6019 31.4854 62.7104 31.6611 62.7444 31.8586ZM44.4801 40.3534C45.7988 40.3534 47.0878 39.9518 48.1842 39.1994C49.2806 38.447 50.1352 37.3775 50.6398 36.1263C51.1444 34.8751 51.2764 33.4983 51.0192 32.17C50.7619 30.8417 50.1269 29.6216 49.1945 28.6639C48.2621 27.7063 47.0741 27.0541 45.7808 26.7899C44.4875 26.5257 43.147 26.6613 41.9287 27.1796C40.7105 27.6978 39.6692 28.5755 38.9366 29.7016C38.204 30.8276 37.813 32.1515 37.813 33.5059C37.813 35.3219 38.5154 37.0636 39.7657 38.3478C41.0161 39.6319 42.7119 40.3534 44.4801 40.3534ZM44.4801 52.5268C48.4885 52.5303 52.3686 51.0762 55.4328 48.4221C54.3337 46.4338 52.7412 44.7802 50.8174 43.6299C48.8935 42.4795 46.7072 41.8735 44.4811 41.8735C42.2549 41.8735 40.0686 42.4795 38.1447 43.6299C36.2209 44.7802 34.6284 46.4338 33.5293 48.4221C36.5926 51.0765 40.4723 52.5307 44.4801 52.5268Z" fill="white"/>
<defs>
<filter id="filter0_d_334_3818" x="0" y="0" width="88" height="86" filterUnits="userSpaceOnUse" color-interpolation-filters="sRGB">
<feFlood flood-opacity="0" result="BackgroundImageFix"/>
<feColorMatrix in="SourceAlpha" type="matrix" values="0 0 0 0 0 0 0 0 0 0 0 0 0 0 0 0 0 0 127 0" result="hardAlpha"/>
<feOffset dy="8"/>
<feGaussianBlur stdDeviation="5"/>
<feColorMatrix type="matrix" values="0 0 0 0 0 0 0 0 0 0 0 0 0 0 0 0 0 0 0.1 0"/>
<feBlend mode="normal" in2="BackgroundImageFix" result="effect1_dropShadow_334_3818"/>
<feBlend mode="normal" in="SourceGraphic" in2="effect1_dropShadow_334_3818" result="shape"/>
</filter>
</defs>
</svg>
