<svg width="37" height="38" viewBox="0 0 37 38" fill="none" xmlns="http://www.w3.org/2000/svg">
<path d="M18.5 0C14.8411 0 11.2643 1.11433 8.22196 3.20208C5.17965 5.28982 2.80846 8.25722 1.40824 11.729C0.00801575 15.2008 -0.358346 19.0211 0.355481 22.7067C1.06931 26.3924 2.83126 29.7778 5.41853 32.435C8.0058 35.0922 11.3022 36.9018 14.8908 37.6349C18.4795 38.368 22.1992 37.9918 25.5796 36.5537C28.9601 35.1156 31.8494 32.6804 33.8822 29.5558C35.915 26.4313 37 22.7578 37 19C36.9948 13.9625 35.0441 9.13288 31.5758 5.57085C28.1075 2.00881 23.4049 0.00531967 18.5 0ZM18.5 35.0769C15.404 35.0769 12.3775 34.134 9.80319 32.3675C7.22893 30.6009 5.22254 28.09 4.03774 25.1524C2.85294 22.2147 2.54294 18.9822 3.14695 15.8635C3.75095 12.7449 5.24184 9.8803 7.43107 7.6319C9.6203 5.3835 12.4095 3.85232 15.4461 3.23199C18.4826 2.61166 21.6301 2.93004 24.4905 4.14686C27.3508 5.36368 29.7956 7.4243 31.5157 10.0681C33.2358 12.712 34.1538 15.8203 34.1538 19C34.1491 23.2624 32.4984 27.3488 29.5637 30.3628C26.6291 33.3767 22.6502 35.0721 18.5 35.0769ZM27.0385 19C27.0385 19.3876 26.8885 19.7594 26.6217 20.0335C26.3548 20.3076 25.9928 20.4615 25.6154 20.4615H19.9231V26.3077C19.9231 26.6953 19.7732 27.0671 19.5063 27.3412C19.2394 27.6152 18.8774 27.7692 18.5 27.7692C18.1226 27.7692 17.7606 27.6152 17.4937 27.3412C17.2269 27.0671 17.0769 26.6953 17.0769 26.3077V20.4615H11.3846C11.0072 20.4615 10.6452 20.3076 10.3784 20.0335C10.1115 19.7594 9.96154 19.3876 9.96154 19C9.96154 18.6124 10.1115 18.2406 10.3784 17.9665C10.6452 17.6924 11.0072 17.5385 11.3846 17.5385H17.0769V11.6923C17.0769 11.3047 17.2269 10.9329 17.4937 10.6588C17.7606 10.3848 18.1226 10.2308 18.5 10.2308C18.8774 10.2308 19.2394 10.3848 19.5063 10.6588C19.7732 10.9329 19.9231 11.3047 19.9231 11.6923V17.5385H25.6154C25.9928 17.5385 26.3548 17.6924 26.6217 17.9665C26.8885 18.2406 27.0385 18.6124 27.0385 19Z" fill="white"/>
</svg>
