<svg width="40" height="40" viewBox="0 0 40 40" fill="none" xmlns="http://www.w3.org/2000/svg">
<g filter="url(#filter0_d_317_1808)">
<rect x="4" y="2" width="32" height="32" rx="16" fill="white"/>
<path d="M28.8598 10.0589C28.7991 10.0061 28.7252 9.97105 28.6462 9.95748C28.5671 9.9439 28.4859 9.95235 28.4112 9.9819L10.5854 17.0031C10.4037 17.0741 10.2498 17.2027 10.147 17.3693C10.0441 17.536 9.99793 17.7318 10.0153 17.9272C10.0327 18.1226 10.1127 18.3071 10.2433 18.4527C10.3739 18.5984 10.5479 18.6974 10.7393 18.7348L15.6422 19.7033V25.1779C15.6421 25.3897 15.705 25.5967 15.8227 25.7723C15.9404 25.9479 16.1076 26.084 16.3027 26.1633C16.4283 26.214 16.5624 26.2401 16.6977 26.2403C16.8393 26.24 16.9794 26.2109 17.1097 26.155C17.2399 26.099 17.3577 26.0172 17.4559 25.9145L19.9187 23.3471L23.701 26.6856C23.8927 26.8558 24.1393 26.9502 24.395 26.9512C24.5066 26.9507 24.6176 26.9331 24.724 26.8989C24.8981 26.8435 25.0547 26.743 25.1782 26.6075C25.3017 26.472 25.3877 26.3063 25.4276 26.127L29.0005 10.4927C29.0184 10.4144 29.0148 10.3326 28.99 10.2562C28.9652 10.1797 28.9202 10.1115 28.8598 10.0589ZM10.7164 17.8637C10.7113 17.8208 10.7209 17.7775 10.7436 17.741C10.7663 17.7044 10.8008 17.6768 10.8413 17.6627L26.2034 11.6117L15.9122 19.0349L10.8756 18.0398C10.8329 18.0335 10.7937 18.0125 10.7647 17.9804C10.7357 17.9483 10.7186 17.907 10.7164 17.8637ZM16.9501 25.4223C16.9015 25.4727 16.839 25.5074 16.7707 25.522C16.7024 25.5366 16.6313 25.5304 16.5665 25.5042C16.5017 25.478 16.4461 25.433 16.4068 25.3749C16.3675 25.3168 16.3463 25.2482 16.3458 25.1779V20.1937L19.3875 22.8762L16.9501 25.4223ZM24.7416 25.9658C24.7279 26.026 24.699 26.0815 24.6575 26.1268C24.6161 26.1722 24.5635 26.2059 24.5052 26.2246C24.4468 26.2433 24.3846 26.2464 24.3247 26.2334C24.2648 26.2205 24.2093 26.192 24.1637 26.1509L16.5596 19.4395L28.1438 11.0841L24.7416 25.9658Z" fill="url(#paint0_linear_317_1808)"/>
</g>
<defs>
<filter id="filter0_d_317_1808" x="0" y="0" width="40" height="40" filterUnits="userSpaceOnUse" color-interpolation-filters="sRGB">
<feFlood flood-opacity="0" result="BackgroundImageFix"/>
<feColorMatrix in="SourceAlpha" type="matrix" values="0 0 0 0 0 0 0 0 0 0 0 0 0 0 0 0 0 0 127 0" result="hardAlpha"/>
<feOffset dy="2"/>
<feGaussianBlur stdDeviation="2"/>
<feColorMatrix type="matrix" values="0 0 0 0 0.0562384 0 0 0 0 0.121895 0 0 0 0 0.209437 0 0 0 0.12 0"/>
<feBlend mode="normal" in2="BackgroundImageFix" result="effect1_dropShadow_317_1808"/>
<feBlend mode="normal" in="SourceGraphic" in2="effect1_dropShadow_317_1808" result="shape"/>
</filter>
<linearGradient id="paint0_linear_317_1808" x1="10.0117" y1="9.95117" x2="23.0051" y2="28.974" gradientUnits="userSpaceOnUse">
<stop stop-color="#F9DBCE"/>
<stop stop-color="#BF8931"/>
<stop offset="1" stop-color="#F5D789"/>
</linearGradient>
</defs>
</svg>
