<svg width="66" height="65" viewBox="0 0 66 65" fill="none" xmlns="http://www.w3.org/2000/svg">
<g filter="url(#filter0_d_257_10384)">
<rect x="20" y="20" width="26" height="25" rx="8" fill="#ABCCC5" fill-opacity="0.09"/>
<path d="M29.75 25.2083V25.2083C28.3555 25.2083 27.6582 25.2083 27.0828 25.3465C25.2545 25.7854 23.8271 27.2129 23.3882 29.0411C23.25 29.6165 23.25 30.3138 23.25 31.7083V33.5417C23.25 36.6571 23.25 38.2147 23.9199 39.375C24.3587 40.1351 24.9899 40.7663 25.75 41.2051C26.9103 41.875 28.4679 41.875 31.5833 41.875H36.5C37.6616 41.875 38.2425 41.875 38.7255 41.7789C40.7089 41.3844 42.2594 39.8339 42.6539 37.8505C42.75 37.3675 42.75 36.7866 42.75 35.625V35.625M29.75 25.2083V26.7708M29.75 25.2083V23.125M29.75 25.2083H36.25M36.25 25.2083H36.6042C37.6688 25.2083 38.2012 25.2083 38.6451 25.2891C40.6935 25.6618 42.2965 27.2649 42.6692 29.3133C42.75 29.7571 42.75 30.2895 42.75 31.3542V31.3542V31.4583M36.25 25.2083V23.125M36.25 25.2083V26.7708" stroke="#83B6B2" stroke-width="1.5" stroke-linecap="round" stroke-linejoin="round"/>
<path d="M37.733 34.8683V33.0417C37.733 32.9634 37.7964 32.9 37.8747 32.9C37.9529 32.9 38.0163 32.9634 38.0163 33.0417V34.8683C38.0163 34.9465 37.9529 35.0099 37.8747 35.0099C37.7964 35.0099 37.733 34.9465 37.733 34.8683Z" stroke="#063239" stroke-width="0.8"/>
<path d="M33.4 35.0833V33.0417C33.4 32.9634 33.4634 32.9 33.5417 32.9C33.6199 32.9 33.6833 32.9634 33.6833 33.0417V35.0833C33.6833 35.1616 33.6199 35.225 33.5417 35.225C33.4634 35.225 33.4 35.1616 33.4 35.0833Z" stroke="#063239" stroke-width="0.8"/>
<path d="M29.067 35.0833V33.0417C29.067 32.9634 29.1304 32.9 29.2087 32.9C29.2869 32.9 29.3503 32.9634 29.3503 33.0417V35.0833C29.3503 35.1616 29.2869 35.225 29.2087 35.225C29.1304 35.225 29.067 35.1616 29.067 35.0833Z" stroke="#063239" stroke-width="0.8"/>
</g>
<defs>
<filter id="filter0_d_257_10384" x="0" y="0" width="66" height="65" filterUnits="userSpaceOnUse" color-interpolation-filters="sRGB">
<feFlood flood-opacity="0" result="BackgroundImageFix"/>
<feColorMatrix in="SourceAlpha" type="matrix" values="0 0 0 0 0 0 0 0 0 0 0 0 0 0 0 0 0 0 127 0" result="hardAlpha"/>
<feOffset/>
<feGaussianBlur stdDeviation="10"/>
<feColorMatrix type="matrix" values="0 0 0 0 0 0 0 0 0 0 0 0 0 0 0 0 0 0 0.08 0"/>
<feBlend mode="normal" in2="BackgroundImageFix" result="effect1_dropShadow_257_10384"/>
<feBlend mode="normal" in="SourceGraphic" in2="effect1_dropShadow_257_10384" result="shape"/>
</filter>
</defs>
</svg>
