<svg width="32" height="32" viewBox="0 0 32 32" fill="none" xmlns="http://www.w3.org/2000/svg">
<circle cx="16" cy="16" r="16" fill="#83B6B2"/>
<path d="M20.625 13.625H20.1667V11.75C20.1667 9.68187 18.5222 8 16.5 8C14.4778 8 12.8333 9.68187 12.8333 11.75V13.625H12.375C11.6172 13.625 11 14.2556 11 15.0312V21.5938C11 22.3694 11.6172 23 12.375 23H20.625C21.3828 23 22 22.3694 22 21.5938V15.0312C22 14.2556 21.3828 13.625 20.625 13.625ZM14.0556 11.75C14.0556 10.3712 15.1519 9.25 16.5 9.25C17.8481 9.25 18.9444 10.3712 18.9444 11.75V13.625H14.0556V11.75ZM17.1111 18.4513V19.875C17.1111 20.22 16.8379 20.5 16.5 20.5C16.1621 20.5 15.8889 20.22 15.8889 19.875V18.4513C15.5253 18.2344 15.2778 17.8356 15.2778 17.375C15.2778 16.6856 15.8259 16.125 16.5 16.125C17.1741 16.125 17.7222 16.6856 17.7222 17.375C17.7222 17.8356 17.4747 18.2344 17.1111 18.4513Z" fill="white"/>
</svg>
