<svg width="40" height="40" viewBox="0 0 40 40" fill="none" xmlns="http://www.w3.org/2000/svg">
<g filter="url(#filter0_d_317_1794)">
<rect x="4" y="2" width="32" height="32" rx="16" fill="white"/>
<path d="M20.3168 20.0551C20.3168 20.1158 20.2982 20.1751 20.2634 20.2255C20.2286 20.276 20.1791 20.3153 20.1213 20.3385C20.0634 20.3617 19.9997 20.3678 19.9382 20.356C19.8768 20.3441 19.8203 20.3149 19.776 20.272C19.7317 20.2291 19.7015 20.1745 19.6893 20.115C19.6771 20.0555 19.6834 19.9938 19.7073 19.9378C19.7313 19.8817 19.7719 19.8338 19.824 19.8001C19.8761 19.7664 19.9374 19.7484 20 19.7484C20.084 19.7484 20.1646 19.7808 20.224 19.8383C20.2834 19.8958 20.3168 19.9738 20.3168 20.0551ZM18.2576 19.7484C18.195 19.7484 18.1337 19.7664 18.0816 19.8001C18.0295 19.8338 17.9889 19.8817 17.9649 19.9378C17.941 19.9938 17.9347 20.0555 17.9469 20.115C17.9591 20.1745 17.9893 20.2291 18.0336 20.272C18.0779 20.3149 18.1344 20.3441 18.1958 20.356C18.2573 20.3678 18.321 20.3617 18.3789 20.3385C18.4368 20.3153 18.4862 20.276 18.521 20.2255C18.5558 20.1751 18.5744 20.1158 18.5744 20.0551C18.5744 19.9738 18.5411 19.8958 18.4816 19.8383C18.4222 19.7808 18.3417 19.7484 18.2576 19.7484ZM21.7424 19.7484C21.6798 19.7484 21.6185 19.7664 21.5664 19.8001C21.5143 19.8338 21.4737 19.8817 21.4497 19.9378C21.4258 19.9938 21.4195 20.0555 21.4317 20.115C21.4439 20.1745 21.4741 20.2291 21.5184 20.272C21.5627 20.3149 21.6192 20.3441 21.6806 20.356C21.7421 20.3678 21.8058 20.3617 21.8637 20.3385C21.9215 20.3153 21.971 20.276 22.0058 20.2255C22.0406 20.1751 22.0592 20.1158 22.0592 20.0551C22.0592 19.9738 22.0258 19.8958 21.9664 19.8383C21.907 19.7808 21.8264 19.7484 21.7424 19.7484ZM23.96 20.0551C23.9601 20.7226 23.7803 21.3785 23.4382 21.958C23.0962 22.5374 22.6038 23.0204 22.0098 23.3592C21.4158 23.6979 20.7407 23.8807 20.0514 23.8893C19.3621 23.898 18.6823 23.7323 18.0794 23.4085L16.6661 23.8648C16.5824 23.8918 16.4925 23.8957 16.4066 23.8761C16.3207 23.8565 16.2422 23.8141 16.1798 23.7537C16.1174 23.6932 16.0736 23.6172 16.0533 23.534C16.033 23.4508 16.0371 23.3639 16.065 23.2828L16.5362 21.9145C16.2433 21.4027 16.0753 20.8327 16.045 20.2483C16.0147 19.6639 16.1231 19.0805 16.3617 18.5429C16.6003 18.0053 16.9629 17.5277 17.4216 17.1467C17.8803 16.7657 18.4231 16.4914 19.0082 16.3449C19.5933 16.1983 20.2054 16.1834 20.7974 16.3012C21.3894 16.419 21.9458 16.6665 22.4237 17.0246C22.9017 17.3828 23.2887 17.8421 23.555 18.3674C23.8213 18.8927 23.9598 19.47 23.96 20.0551ZM23.6432 20.0551C23.643 19.5141 23.5143 18.9803 23.267 18.4952C23.0196 18.01 22.6603 17.5864 22.2168 17.2572C21.7733 16.928 21.2575 16.702 20.7094 16.5966C20.1612 16.4913 19.5954 16.5095 19.0556 16.6497C18.5159 16.79 18.0167 17.0485 17.5967 17.4055C17.1767 17.7624 16.8471 18.208 16.6335 18.708C16.4199 19.208 16.3279 19.7488 16.3648 20.2887C16.4016 20.8285 16.5662 21.353 16.8459 21.8214C16.8571 21.8402 16.8641 21.8611 16.8663 21.8827C16.8686 21.9043 16.8661 21.9261 16.859 21.9467L16.3656 23.3798C16.3562 23.4068 16.3549 23.4358 16.3616 23.4635C16.3684 23.4913 16.383 23.5166 16.4038 23.5367C16.4246 23.5569 16.4508 23.571 16.4794 23.5776C16.5081 23.5841 16.538 23.5828 16.5659 23.5738L18.0462 23.0961C18.0624 23.0908 18.0794 23.088 18.0965 23.088C18.1243 23.0882 18.1516 23.0953 18.1757 23.1087C18.7295 23.4189 19.3579 23.5825 19.9978 23.5828C20.6376 23.5832 21.2663 23.4205 21.8205 23.1109C22.3747 22.8014 22.835 22.356 23.155 21.8196C23.4749 21.2831 23.6433 20.6746 23.6432 20.0551Z" fill="url(#paint0_linear_317_1794)"/>
<path d="M27.8154 9.14457C26.2789 7.64779 24.3178 6.62635 22.1809 6.20974C20.0439 5.79313 17.8273 6.0001 15.812 6.80442C13.7967 7.60873 12.0735 8.97418 10.8608 10.7277C9.64806 12.4812 9.00043 14.5437 9 16.6539V22.6171C9 23.182 9.23178 23.7237 9.64436 24.1231C10.0569 24.5225 10.6165 24.7469 11.2 24.7469H12.96C13.5435 24.7469 14.103 24.5225 14.5156 24.1231C14.9282 23.7237 15.16 23.182 15.16 22.6171V18.3577C15.16 17.7929 14.9282 17.2512 14.5156 16.8518C14.103 16.4524 13.5435 16.228 12.96 16.228H9.8888C10.0022 13.7058 11.117 11.3233 13.0009 9.57739C14.8847 7.83151 17.392 6.85706 20 6.85725H20.077C22.6736 6.86967 25.1654 7.85048 27.0342 9.59573C28.903 11.341 30.005 13.7164 30.1111 16.228H27.0399C26.4565 16.228 25.8969 16.4524 25.4843 16.8518C25.0717 17.2512 24.8399 17.7929 24.8399 18.3577V22.6171C24.8399 23.182 25.0717 23.7237 25.4843 24.1231C25.8969 24.5225 26.4565 24.7469 27.0399 24.7469H30.1199V25.1728C30.1199 25.5644 30.0403 25.9521 29.8855 26.3138C29.7307 26.6756 29.5038 27.0043 29.2178 27.2811C28.9318 27.558 28.5923 27.7776 28.2186 27.9275C27.8449 28.0773 27.4444 28.1544 27.0399 28.1544H20.88C20.7633 28.1544 20.6513 28.1993 20.5688 28.2792C20.4863 28.359 20.44 28.4674 20.44 28.5804C20.44 28.6933 20.4863 28.8017 20.5688 28.8815C20.6513 28.9614 20.7633 29.0063 20.88 29.0063H27.0399C28.0902 29.0063 29.0974 28.6024 29.8401 27.8835C30.5827 27.1646 30.9999 26.1895 30.9999 25.1728V16.6539C31.0054 15.261 30.727 13.8807 30.1805 12.5921C29.6341 11.3035 28.8304 10.132 27.8154 9.14457ZM12.96 17.0799C13.3101 17.0799 13.6458 17.2145 13.8934 17.4542C14.1409 17.6938 14.28 18.0188 14.28 18.3577V22.6171C14.28 22.9561 14.1409 23.2811 13.8934 23.5207C13.6458 23.7604 13.3101 23.895 12.96 23.895H11.2C10.8499 23.895 10.5142 23.7604 10.2666 23.5207C10.0191 23.2811 9.88 22.9561 9.88 22.6171V17.0799H12.96ZM25.7199 22.6171V18.3577C25.7199 18.0188 25.859 17.6938 26.1066 17.4542C26.3541 17.2145 26.6898 17.0799 27.0399 17.0799H30.1199V23.895H27.0399C26.6898 23.895 26.3541 23.7604 26.1066 23.5207C25.859 23.2811 25.7199 22.9561 25.7199 22.6171Z" fill="#249689"/>
</g>
<defs>
<filter id="filter0_d_317_1794" x="0" y="0" width="40" height="40" filterUnits="userSpaceOnUse" color-interpolation-filters="sRGB">
<feFlood flood-opacity="0" result="BackgroundImageFix"/>
<feColorMatrix in="SourceAlpha" type="matrix" values="0 0 0 0 0 0 0 0 0 0 0 0 0 0 0 0 0 0 127 0" result="hardAlpha"/>
<feOffset dy="2"/>
<feGaussianBlur stdDeviation="2"/>
<feColorMatrix type="matrix" values="0 0 0 0 0.0562384 0 0 0 0 0.121895 0 0 0 0 0.209437 0 0 0 0.12 0"/>
<feBlend mode="normal" in2="BackgroundImageFix" result="effect1_dropShadow_317_1794"/>
<feBlend mode="normal" in="SourceGraphic" in2="effect1_dropShadow_317_1794" result="shape"/>
</filter>
<linearGradient id="paint0_linear_317_1794" x1="16.04" y1="16.2227" x2="22.0538" y2="24.3603" gradientUnits="userSpaceOnUse">
<stop stop-color="#F9DBCE"/>
<stop stop-color="#BF8931"/>
<stop offset="1" stop-color="#F5D789"/>
</linearGradient>
</defs>
</svg>
