<svg width="320" height="304" viewBox="0 0 320 304" fill="none" xmlns="http://www.w3.org/2000/svg">
<g clip-path="url(#clip0_207_2365)">
<path d="M210.026 112.019C173.329 76.2094 180.544 46.4737 139.638 46.3133C75.7265 46.0599 34.8791 108.805 36.9502 180.673C38.6391 239.266 95.5102 255.249 147.593 255.249C165.961 255.249 183.329 251.336 198.758 244.372C208.844 239.821 219.904 237.358 231.149 237.31C231.368 237.31 231.587 237.307 231.807 237.304C269.884 236.817 300.227 208.649 300.227 173.805C300.227 154.672 292.707 135.397 276.349 125.874C251.804 111.589 220.992 122.721 210.026 112.019Z" fill="#ABCCC5" fill-opacity="0.25"/>
<path d="M234.525 183.16L232.877 183.013C233.144 180.317 233.298 177.587 233.334 174.896L234.987 174.915C234.951 177.648 234.794 180.421 234.525 183.16ZM234.741 166.662L233.091 166.769C233.076 166.561 233.061 166.353 233.043 166.144C232.845 163.662 232.545 161.154 232.148 158.691L233.784 158.454C234.184 160.954 234.492 163.501 234.691 166.026C234.711 166.237 234.726 166.451 234.741 166.662ZM230.513 150.716C229.855 148.09 229.073 145.461 228.19 142.897L229.763 142.407C230.661 145.011 231.452 147.685 232.122 150.35L230.513 150.716ZM225.203 135.285C224.104 132.8 222.88 130.326 221.568 127.93L223.034 127.204C224.368 129.636 225.609 132.153 226.729 134.678L225.203 135.285ZM217.31 120.879C215.796 118.594 214.166 116.339 212.465 114.18L213.79 113.237C215.517 115.43 217.174 117.718 218.711 120.04L217.31 120.879ZM207.064 107.878C205.179 105.854 203.188 103.881 201.141 102.012L202.288 100.877C204.368 102.774 206.391 104.779 208.302 106.836L207.064 107.878ZM194.735 96.6212C192.531 94.9154 190.228 93.2744 187.888 91.7459L188.824 90.4511C191.2 92.0021 193.541 93.6685 195.778 95.4024L194.735 96.6212ZM180.643 87.4224C178.178 86.0825 175.624 84.8215 173.049 83.6787L173.751 82.2544C176.365 83.4169 178.96 84.6976 181.467 86.06L180.643 87.4224ZM165.159 80.5402C162.498 79.6028 159.76 78.7584 157.025 78.0294L157.473 76.515C160.252 77.2553 163.034 78.1138 165.736 79.0652L165.159 80.5402ZM148.699 76.1603C145.917 75.648 143.073 75.2371 140.243 74.9387L140.427 73.3765C143.301 73.6805 146.19 74.0971 149.016 74.6178L148.699 76.1603Z" fill="#E8E8E8"/>
<path d="M261.769 270.931H272.625C288.572 270.931 301.499 258.65 301.499 243.501C301.499 228.352 288.572 216.071 272.625 216.071C268.773 216.071 265.096 216.788 261.739 218.089C261.393 203.227 248.605 191.278 232.874 191.278C217.147 191.278 204.356 203.227 204.009 218.089C200.649 216.788 196.975 216.071 193.123 216.071C177.176 216.071 164.249 228.352 164.249 243.501C164.249 258.65 177.176 270.931 193.123 270.931H203.976" fill="#83B6B2" fill-opacity="0.86"/>
<path d="M225.955 258.955V239.873H217.973L230.652 227.831L243.324 239.873H235.345V258.941" fill="white"/>
<path d="M103.209 90.1445H110.767C121.869 90.1445 130.871 81.5931 130.871 71.046C130.871 60.4989 121.869 51.9475 110.767 51.9475C108.086 51.9475 105.526 52.4485 103.188 53.352C102.948 43.0048 94.0443 34.687 83.0932 34.687C72.1421 34.687 63.2384 43.0076 62.9984 53.352C60.6606 52.4485 58.1006 51.9475 55.4191 51.9475C44.3169 51.9475 35.3154 60.4989 35.3154 71.046C35.3154 81.5931 44.3169 90.1445 55.4191 90.1445H62.9777" fill="#83B6B2"/>
<path d="M105.259 152.318H36.8919C36.1541 152.318 35.5586 151.752 35.5586 151.051C35.5586 150.35 36.1541 149.785 36.8919 149.785H105.262C106 149.785 106.596 150.35 106.596 151.051C106.596 151.752 105.997 152.318 105.259 152.318Z" fill="#83DFFF"/>
<path d="M124.619 152.318H116.797C116.059 152.318 115.464 151.752 115.464 151.051C115.464 150.35 116.059 149.785 116.797 149.785H124.619C125.357 149.785 125.953 150.35 125.953 151.051C125.953 151.752 125.354 152.318 124.619 152.318Z" fill="#83DFFF"/>
<path d="M105.259 167.127H97.4368C96.6991 167.127 96.1035 166.561 96.1035 165.86C96.1035 165.159 96.6991 164.593 97.4368 164.593H105.259C105.997 164.593 106.592 165.159 106.592 165.86C106.592 166.561 105.997 167.127 105.259 167.127Z" fill="#83DFFF"/>
<path d="M90.2101 167.127H20.5716C19.8338 167.127 19.2383 166.561 19.2383 165.86C19.2383 165.159 19.8338 164.593 20.5716 164.593H90.2072C90.945 164.593 91.5405 165.159 91.5405 165.86C91.5405 166.561 90.9449 167.127 90.2101 167.127Z" fill="#83DFFF"/>
<g clip-path="url(#clip1_207_2365)">
<path d="M223.067 168.928C223.386 170.266 224.521 171.151 225.593 170.895C225.827 170.834 226.045 170.725 226.235 170.577C226.426 170.428 226.584 170.243 226.7 170.031C226.836 169.806 227.055 169.643 227.309 169.578C227.564 169.513 227.834 169.551 228.061 169.683C228.289 169.816 228.454 170.033 228.523 170.287C228.591 170.541 228.557 170.811 228.427 171.04C228.176 171.486 227.836 171.875 227.428 172.185C227.021 172.494 226.555 172.717 226.058 172.84C223.912 173.353 221.698 171.807 221.122 169.393C220.545 166.98 221.82 164.6 223.966 164.087C224.464 163.972 224.981 163.96 225.484 164.052C225.988 164.144 226.467 164.337 226.893 164.621C227.112 164.766 227.265 164.992 227.319 165.25C227.372 165.507 227.323 165.775 227.18 165.996C227.038 166.217 226.814 166.373 226.557 166.43C226.3 166.487 226.031 166.441 225.809 166.301C225.609 166.165 225.384 166.071 225.147 166.025C224.91 165.979 224.667 165.981 224.431 166.032C223.358 166.288 222.747 167.591 223.067 168.928ZM232.492 165.559C231.972 165.534 231.434 165.509 231.109 165.395C230.934 165.333 230.931 165.31 230.918 165.197C230.899 165.108 230.902 165.016 230.925 164.928C230.949 164.841 230.993 164.76 231.055 164.693C231.523 164.18 232.869 164.037 233.448 164.049C233.713 164.056 233.971 163.957 234.164 163.775C234.357 163.592 234.469 163.34 234.477 163.075C234.484 162.809 234.385 162.552 234.203 162.359C234.02 162.166 233.768 162.053 233.503 162.046C233.229 162.041 230.798 162.022 229.59 163.336C229.335 163.613 229.143 163.943 229.029 164.302C228.915 164.661 228.882 165.041 228.931 165.415C229.149 167.404 231.183 167.5 232.398 167.556C233.966 167.63 234.136 167.773 234.173 168.108C234.205 168.41 234.117 168.55 234.027 168.648C233.556 169.153 232.228 169.278 231.66 169.259C231.395 169.249 231.136 169.345 230.941 169.526C230.747 169.707 230.632 169.957 230.622 170.223C230.612 170.489 230.708 170.747 230.888 170.942C231.069 171.137 231.32 171.252 231.585 171.262C232.226 171.276 232.866 171.209 233.49 171.064C234.198 170.894 234.956 170.585 235.487 170.013C235.749 169.732 235.945 169.396 236.062 169.029C236.178 168.663 236.212 168.275 236.161 167.894C235.925 165.726 233.777 165.619 232.492 165.559ZM241.813 159.881C241.683 159.866 241.55 159.878 241.424 159.915C241.298 159.952 241.181 160.013 241.078 160.095C240.976 160.177 240.89 160.279 240.827 160.394C240.764 160.509 240.724 160.636 240.71 160.767L240.21 165.372L237.679 161.491C237.534 161.269 237.307 161.113 237.048 161.058C236.788 161.004 236.518 161.054 236.295 161.199C236.073 161.344 235.918 161.571 235.863 161.831C235.808 162.09 235.859 162.361 236.003 162.583L240.062 168.81C240.175 168.983 240.338 169.117 240.53 169.193C240.722 169.27 240.932 169.285 241.133 169.237C241.334 169.189 241.514 169.08 241.651 168.925C241.787 168.77 241.872 168.577 241.895 168.372L242.699 160.983C242.727 160.719 242.65 160.455 242.484 160.248C242.318 160.042 242.077 159.91 241.813 159.881ZM240.818 152.861L241.515 155.779C241.577 156.037 241.533 156.309 241.395 156.535C241.256 156.761 241.033 156.922 240.775 156.984C240.517 157.046 240.245 157.002 240.019 156.864C239.793 156.725 239.632 156.502 239.57 156.244L239.105 154.299L233.269 155.694C233.011 155.755 232.739 155.712 232.513 155.573C232.287 155.434 232.126 155.212 232.064 154.954L230.669 149.118L219.971 151.675L222.063 160.429C222.125 160.687 222.081 160.959 221.943 161.185C221.804 161.411 221.581 161.572 221.323 161.634C221.065 161.696 220.793 161.652 220.567 161.513C220.341 161.375 220.18 161.152 220.118 160.894L218.025 152.14C217.902 151.625 217.989 151.081 218.266 150.629C218.544 150.177 218.99 149.854 219.506 149.73L231.177 146.94C231.305 146.91 231.437 146.904 231.567 146.925C231.697 146.946 231.821 146.992 231.933 147.06L240.369 152.241C240.481 152.31 240.578 152.4 240.655 152.506C240.732 152.613 240.787 152.733 240.818 152.861ZM237.265 152.682L232.943 150.028L233.777 153.516L237.265 152.682Z" fill="#249689"/>
</g>
<g clip-path="url(#clip2_207_2365)">
<path d="M202.904 118.72C203.797 119.765 205.21 120.037 206.048 119.321C206.228 119.16 206.374 118.964 206.475 118.745C206.577 118.527 206.634 118.289 206.641 118.048C206.659 117.786 206.78 117.541 206.977 117.367C207.174 117.193 207.432 117.104 207.695 117.119C207.957 117.133 208.203 117.251 208.38 117.446C208.556 117.641 208.649 117.897 208.638 118.16C208.616 118.671 208.491 119.173 208.269 119.634C208.048 120.095 207.734 120.506 207.348 120.841C205.671 122.275 202.995 121.905 201.383 120.019C199.771 118.133 199.823 115.433 201.5 114C201.892 113.67 202.347 113.425 202.837 113.277C203.326 113.13 203.841 113.084 204.35 113.143C204.611 113.173 204.85 113.304 205.015 113.509C205.18 113.714 205.258 113.975 205.232 114.237C205.205 114.498 205.077 114.739 204.874 114.907C204.672 115.075 204.411 115.156 204.149 115.133C203.91 115.102 203.667 115.121 203.435 115.188C203.203 115.254 202.987 115.367 202.8 115.52C201.962 116.236 202.01 117.675 202.904 118.72ZM209.762 111.429C209.287 111.644 208.797 111.867 208.457 111.913C208.272 111.938 208.259 111.918 208.196 111.824C208.139 111.753 208.099 111.67 208.08 111.581C208.061 111.492 208.064 111.4 208.088 111.313C208.272 110.642 209.405 109.902 209.926 109.65C210.166 109.535 210.35 109.33 210.439 109.08C210.527 108.829 210.513 108.554 210.399 108.314C210.284 108.074 210.079 107.89 209.829 107.801C209.578 107.713 209.303 107.727 209.063 107.842C208.817 107.962 206.644 109.051 206.167 110.771C206.065 111.134 206.045 111.515 206.107 111.887C206.169 112.258 206.312 112.612 206.526 112.923C207.625 114.594 209.48 113.753 210.588 113.251C212.017 112.603 212.234 112.653 212.419 112.934C212.585 113.188 212.57 113.354 212.535 113.481C212.346 114.145 211.22 114.861 210.706 115.103C210.465 115.215 210.279 115.418 210.187 115.668C210.096 115.917 210.108 116.193 210.22 116.434C210.332 116.675 210.535 116.861 210.784 116.953C211.034 117.044 211.31 117.032 211.551 116.92C212.127 116.641 212.667 116.29 213.156 115.877C213.709 115.404 214.244 114.783 214.456 114.032C214.561 113.663 214.583 113.274 214.52 112.895C214.458 112.516 214.311 112.155 214.093 111.839C212.895 110.016 210.934 110.898 209.762 111.429ZM215.477 102.131C215.354 102.178 215.242 102.248 215.147 102.338C215.051 102.428 214.974 102.537 214.92 102.656C214.867 102.776 214.837 102.906 214.833 103.037C214.829 103.168 214.852 103.299 214.898 103.422L216.549 107.75L212.529 105.446C212.299 105.314 212.026 105.279 211.77 105.349C211.514 105.418 211.296 105.586 211.164 105.816C211.032 106.047 210.997 106.32 211.067 106.576C211.136 106.832 211.304 107.05 211.534 107.182L217.983 110.878C218.162 110.981 218.368 111.026 218.573 111.007C218.779 110.988 218.973 110.905 219.13 110.771C219.287 110.637 219.399 110.458 219.45 110.258C219.5 110.058 219.488 109.847 219.415 109.655L216.767 102.709C216.673 102.461 216.484 102.261 216.242 102.153C216 102.045 215.725 102.037 215.477 102.131ZM211.396 96.3338L213.345 98.6144C213.517 98.816 213.602 99.0778 213.582 99.3422C213.561 99.6066 213.436 99.8519 213.234 100.024C213.033 100.197 212.771 100.282 212.507 100.261C212.242 100.24 211.997 100.115 211.824 99.9138L210.525 98.3934L205.964 102.292C205.762 102.464 205.501 102.549 205.236 102.528C204.972 102.508 204.726 102.383 204.554 102.181L200.656 97.6202L192.294 104.767L198.141 111.609C198.314 111.81 198.399 112.072 198.378 112.336C198.357 112.601 198.232 112.846 198.031 113.019C197.829 113.191 197.567 113.276 197.303 113.255C197.039 113.235 196.793 113.11 196.621 112.908L190.773 106.066C190.429 105.663 190.259 105.14 190.3 104.611C190.341 104.082 190.591 103.591 190.994 103.247L200.117 95.4501C200.216 95.3647 200.332 95.2997 200.457 95.259C200.582 95.2183 200.713 95.2026 200.844 95.2128L210.714 95.986C210.845 95.9964 210.972 96.0324 211.089 96.0921C211.206 96.1518 211.31 96.2339 211.396 96.3338ZM208.151 97.7916L203.095 97.3954L205.425 100.122L208.151 97.7916Z" fill="#249689"/>
</g>
<g clip-path="url(#clip3_207_2365)">
<path d="M150.734 90.1075C151.78 91.0001 153.218 91.0478 153.934 90.2092C154.087 90.0222 154.2 89.806 154.266 89.574C154.332 89.3419 154.351 89.0988 154.32 88.8594C154.297 88.5974 154.378 88.3369 154.546 88.1342C154.713 87.9315 154.954 87.803 155.216 87.7765C155.477 87.75 155.739 87.8276 155.944 87.9925C156.149 88.1575 156.28 88.3965 156.31 88.6577C156.369 89.1659 156.324 89.6808 156.177 90.1709C156.03 90.6609 155.784 91.1158 155.455 91.5076C154.023 93.1857 151.323 93.2396 149.436 91.6288C147.549 90.018 147.177 87.3431 148.61 85.6649C148.945 85.2785 149.356 84.9646 149.817 84.7425C150.277 84.5203 150.779 84.3947 151.29 84.3731C151.553 84.3616 151.809 84.454 152.004 84.6304C152.199 84.8068 152.317 85.0529 152.332 85.3154C152.347 85.578 152.258 85.8358 152.084 86.0332C151.91 86.2305 151.666 86.3514 151.403 86.3697C151.162 86.3772 150.925 86.4337 150.706 86.5358C150.487 86.6378 150.292 86.7833 150.131 86.9633C149.415 87.8019 149.688 89.2149 150.734 90.1075ZM156.367 81.8341C155.932 82.1202 155.483 82.4173 155.154 82.516C154.976 82.5691 154.959 82.5518 154.883 82.4683C154.815 82.4077 154.763 82.3318 154.73 82.2469C154.698 82.1621 154.686 82.0707 154.696 81.9804C154.773 81.2898 155.776 80.3815 156.251 80.0504C156.47 79.8999 156.62 79.6686 156.669 79.4074C156.717 79.1462 156.66 78.8764 156.509 78.6575C156.358 78.4386 156.127 78.2885 155.866 78.2401C155.605 78.1918 155.335 78.2492 155.116 78.3997C154.892 78.5566 152.916 79.9728 152.714 81.7461C152.67 82.1205 152.71 82.4999 152.829 82.8574C152.948 83.2149 153.145 83.5418 153.405 83.8149C154.752 85.2937 156.453 84.1733 157.468 83.5034C158.779 82.64 159.001 82.6553 159.227 82.9042C159.431 83.1293 159.442 83.2951 159.427 83.4266C159.345 84.1123 158.344 84.9956 157.875 85.3146C157.654 85.4629 157.502 85.6927 157.451 85.9535C157.4 86.2143 157.454 86.4846 157.603 86.7051C157.751 86.9256 157.981 87.0782 158.242 87.1292C158.502 87.1803 158.773 87.1256 158.993 86.9774C159.519 86.6112 159.997 86.1805 160.416 85.6954C160.888 85.142 161.319 84.4448 161.411 83.6705C161.457 83.2889 161.418 82.9017 161.297 82.5369C161.175 82.1722 160.975 81.8388 160.709 81.5609C159.241 79.948 157.442 81.1258 156.367 81.8341ZM160.558 71.7559C160.444 71.8213 160.344 71.9084 160.264 72.0124C160.183 72.1164 160.124 72.2352 160.09 72.362C160.056 72.4888 160.047 72.6211 160.064 72.7514C160.08 72.8817 160.123 73.0074 160.188 73.1213L162.495 77.1381L158.165 75.4917C157.917 75.3973 157.642 75.4053 157.4 75.5139C157.158 75.6225 156.969 75.8228 156.875 76.0707C156.78 76.3186 156.788 76.5938 156.897 76.8358C157.005 77.0778 157.206 77.2667 157.454 77.3611L164.401 80.0038C164.594 80.0772 164.805 80.0892 165.005 80.0381C165.204 79.987 165.384 79.8754 165.518 79.7184C165.652 79.5615 165.734 79.367 165.753 79.1615C165.772 78.9561 165.727 78.7498 165.624 78.5709L161.922 72.1251C161.79 71.8953 161.572 71.7273 161.317 71.6581C161.061 71.5889 160.788 71.6241 160.558 71.7559ZM155.62 66.6686L157.902 68.6162C158.103 68.7884 158.228 69.0336 158.249 69.298C158.27 69.5624 158.185 69.8243 158.013 70.026C157.841 70.2277 157.596 70.3528 157.331 70.3737C157.067 70.3946 156.805 70.3096 156.603 70.1375L155.082 68.8391L151.187 73.4029C151.015 73.6046 150.77 73.7297 150.505 73.7506C150.241 73.7715 149.979 73.6865 149.777 73.5143L145.213 69.6192L138.072 77.9862L144.918 83.8288C145.12 84.001 145.245 84.2463 145.266 84.5107C145.287 84.7751 145.202 85.0369 145.029 85.2387C144.857 85.4404 144.612 85.5655 144.348 85.5864C144.083 85.6073 143.821 85.5223 143.62 85.3501L136.774 79.5075C136.37 79.1631 136.12 78.6726 136.079 78.1438C136.037 77.615 136.207 77.0913 136.551 76.6878L144.341 67.5602C144.426 67.4603 144.531 67.378 144.647 67.3183C144.764 67.2585 144.892 67.2224 145.023 67.212L154.892 66.4318C155.023 66.4215 155.154 66.4372 155.279 66.4778C155.404 66.5184 155.52 66.5833 155.62 66.6686ZM152.643 68.6161L147.587 69.0158L150.315 71.3439L152.643 68.6161Z" fill="#249689"/>
</g>
</g>
<defs>
<clipPath id="clip0_207_2365">
<rect width="320" height="304" fill="white"/>
</clipPath>
<clipPath id="clip1_207_2365">
<rect width="32" height="32" fill="white" transform="translate(212 148.44) rotate(-13.444)"/>
</clipPath>
<clipPath id="clip2_207_2365">
<rect width="32" height="32" fill="white" transform="translate(183.724 105.514) rotate(-40.52)"/>
</clipPath>
<clipPath id="clip3_207_2365">
<rect width="32" height="32" fill="white" transform="translate(129.725 80.0649) rotate(-49.52)"/>
</clipPath>
</defs>
</svg>
