<svg width="38" height="36" viewBox="0 0 38 36" fill="none" xmlns="http://www.w3.org/2000/svg">
<g clip-path="url(#clip0_172_2218)">
<path d="M17.6429 33.4251H20.3571V34.7109H17.6429V33.4251ZM2.71067 17.7557V24.6729L1.35714 24.0369V18.3986L2.71067 17.7557ZM35.2857 17.7523L36.6429 18.3986V24.03L35.2857 24.6763V17.7523ZM31.2143 16.0714H33.9286V26.3571H31.2143C30.4226 26.3571 30.2145 26.076 30.0408 25.7477C29.8671 25.4194 29.8535 25.068 29.8535 25.068V17.3571C29.8535 16.6071 30.1539 16.4066 30.5004 16.242C30.847 16.0783 31.2143 16.0714 31.2143 16.0714ZM4.06781 16.0714H6.78571C6.78571 16.0714 7.14943 16.0783 7.49595 16.242C7.84248 16.4066 8.14286 16.6071 8.14286 17.3571V25.068C8.14286 25.068 8.12838 25.4194 7.95557 25.7477C7.78276 26.076 7.57738 26.3571 6.78571 26.3571H4.06781V16.0714ZM19 0C10.0121 0 2.71429 6.91371 2.71429 15.4286L2.71067 16.3157L0.374571 17.424C0.144762 17.5346 0 17.7557 0 18V24.4286C0 24.6729 0.148381 24.894 0.374571 25.0046L2.71067 26.1094V27C2.71429 27.3549 3.01467 27.6394 3.38562 27.6429H6.78571C8.02976 27.6429 8.83229 26.9563 9.16795 26.3203C9.50362 25.6877 9.5 25.068 9.5 25.068V17.3571C9.5 16.1786 8.77167 15.4114 8.10033 15.0934C7.43262 14.7754 6.78571 14.7857 6.78571 14.7857H4.08952C4.44238 7.266 10.9739 1.28571 19 1.28571C27.0261 1.28571 33.5612 7.266 33.9141 14.7857H31.2143C31.2143 14.7857 31.2034 14.7857 31.1826 14.7857C31.0514 14.7891 30.4832 14.8157 29.896 15.0934C29.2247 15.4114 28.4964 16.1786 28.4964 17.3571V25.068C28.4964 25.068 28.4928 25.6877 28.8284 26.3203C29.1605 26.9529 29.9558 27.6291 31.179 27.6394C30.8433 30.8974 27.959 33.4251 24.4286 33.4251H21.7143V32.7857C21.7143 32.4309 21.4103 32.1429 21.0357 32.1463H16.9679C16.5933 32.1429 16.2857 32.4309 16.2857 32.7857V35.3571C16.2857 35.712 16.5933 36 16.9679 36H21.0357C21.4103 36 21.7143 35.712 21.7143 35.3571V34.7109H24.4286C28.6909 34.7109 32.1969 31.5969 32.5434 27.6429H34.6071C34.9817 27.6394 35.2857 27.3549 35.2857 27V26.1129L37.6254 25.0046C37.8552 24.894 38 24.6729 38 24.4286V18C38 17.7557 37.8552 17.5346 37.6254 17.424L35.2857 16.3157V15.4251C35.2857 6.91371 27.9879 0 19 0Z" fill="#249689"/>
<path d="M19.0004 20.5714C19.3822 20.5714 19.6754 20.8525 19.6754 21.2176C19.6754 21.5794 19.3822 21.8571 19.0004 21.8571C18.6186 21.8571 18.3182 21.5794 18.3182 21.2176C18.3182 20.8525 18.6186 20.5714 19.0004 20.5714ZM19.0004 19.2856C17.8839 19.2856 16.9683 20.1599 16.9683 21.2176C16.9683 22.2719 17.8839 23.1428 19.0004 23.1428C20.1169 23.1428 21.0361 22.2719 21.0361 21.2176C21.0361 20.1599 20.1169 19.2856 19.0004 19.2856ZM24.429 20.5714C24.8144 20.5714 25.1076 20.8525 25.1076 21.2176C25.1076 21.5794 24.8144 21.8571 24.429 21.8571C24.0472 21.8571 23.7504 21.5794 23.7504 21.2176C23.7504 20.8525 24.0472 20.5714 24.429 20.5714ZM24.429 19.2856C23.3161 19.2856 22.3933 20.1599 22.3933 21.2176C22.3933 22.2719 23.3161 23.1428 24.429 23.1428C25.5455 23.1428 26.4647 22.2719 26.4647 21.2176C26.4647 20.1599 25.5455 19.2856 24.429 19.2856ZM13.5718 20.5714C13.9537 20.5714 14.2504 20.8525 14.2504 21.2176C14.2504 21.5794 13.9537 21.8571 13.5718 21.8571C13.1864 21.8571 12.8933 21.5794 12.8933 21.2176C12.8933 20.8525 13.1864 20.5714 13.5718 20.5714ZM13.5718 19.2856C12.4554 19.2856 11.5361 20.1599 11.5361 21.2176C11.5361 22.2719 12.4554 23.1428 13.5718 23.1428C14.6883 23.1428 15.6112 22.2719 15.6112 21.2176C15.6112 20.1599 14.6883 19.2856 13.5718 19.2856Z" fill="white"/>
</g>
<defs>
<clipPath id="clip0_172_2218">
<rect width="38" height="36" fill="white"/>
</clipPath>
</defs>
</svg>
