<svg width="18" height="16" viewBox="0 0 18 16" fill="none" xmlns="http://www.w3.org/2000/svg">
<path d="M2.875 3L2.875 9.375C2.875 10.4203 2.875 10.9429 2.95287 11.379C3.32098 13.4404 4.93463 15.054 6.99602 15.4221C7.43206 15.5 7.95471 15.5 9 15.5L9.29167 15.5C10.0657 15.5 10.4527 15.5 10.7776 15.4572C13.0213 15.1618 14.7868 13.3963 15.0822 11.1526C15.125 10.8277 15.125 10.4407 15.125 9.66667V9.66667M2.875 3H1.125M2.875 3L6.375 3M15.125 3L16.875 3M15.125 3H11.625M15.125 3V6.33333M6.375 3V3C6.375 2.53534 6.375 2.30302 6.41343 2.10982C6.57124 1.31644 7.19144 0.696243 7.98482 0.538429C8.17802 0.5 8.41035 0.5 8.875 0.5H9.125C9.58966 0.5 9.82198 0.5 10.0152 0.538429C10.8086 0.696243 11.4288 1.31644 11.5866 2.10982C11.625 2.30302 11.625 2.53534 11.625 3V3M6.375 3L11.625 3M6.8125 5.91667L6.8125 11.75M11.1875 5.91667L11.1875 11.75" stroke="#FF5963" stroke-width="0.5" stroke-linecap="round" stroke-linejoin="round"/>
</svg>
