<svg width="33" height="32" viewBox="0 0 33 32" fill="none" xmlns="http://www.w3.org/2000/svg">
<g clip-path="url(#clip0_138_4114)">
<mask id="mask0_138_4114" style="mask-type:luminance" maskUnits="userSpaceOnUse" x="0" y="0" width="33" height="32">
<path d="M32.5 0H0.5V32H32.5V0Z" fill="white"/>
</mask>
<g mask="url(#mask0_138_4114)">
<path d="M18.0934 1.45593C17.1963 0.616253 15.8017 0.616253 14.9045 1.45593L11.8037 4.3581C11.7447 4.4133 11.6677 4.44521 11.587 4.44789L7.34225 4.58833C6.11413 4.62896 5.12798 5.6151 5.08735 6.84322L4.94691 11.088C4.94423 11.1687 4.91233 11.2457 4.85713 11.3047L1.95495 14.4055C1.11527 15.3026 1.11528 16.6973 1.95495 17.5945L4.85713 20.6951C4.91233 20.7542 4.94423 20.8311 4.94691 20.9119L5.08735 25.1567C5.12798 26.3847 6.11413 27.371 7.34225 27.4115L11.587 27.5521C11.6677 27.5547 11.7447 27.5866 11.8037 27.6418L14.9045 30.5439C15.8017 31.3837 17.1963 31.3837 18.0934 30.5439L21.1942 27.6418C21.2531 27.5866 21.3302 27.5547 21.411 27.5521L25.6557 27.4115C26.8838 27.371 27.8699 26.3847 27.9106 25.1566L28.051 20.9119C28.0537 20.8311 28.0855 20.7542 28.1409 20.6951L31.043 17.5945C31.8826 16.6973 31.8826 15.3026 31.043 14.4055L28.1409 11.3047C28.0855 11.2457 28.0537 11.1687 28.051 11.088L27.9106 6.84322C27.8699 5.6151 26.8838 4.62896 25.6557 4.58833L21.411 4.44789C21.3302 4.44521 21.2531 4.4133 21.1942 4.3581L18.0934 1.45593Z" fill="#249689"/>
<path d="M15.8333 7C14.4968 7 13.2258 7.29197 12.0829 7.81655C11.7277 7.97957 11.5 8.33457 11.5 8.7254C11.5 9.11621 11.7277 9.47123 12.0829 9.63424C14.4949 10.7413 16.1667 13.1765 16.1667 16C16.1667 18.8235 14.4949 21.2587 12.0829 22.3658C11.7277 22.5288 11.5 22.8838 11.5 23.2746C11.5 23.6655 11.7277 24.0204 12.0829 24.1835C13.2258 24.708 14.4968 25 15.8333 25C20.8039 25 24.8333 20.9706 24.8333 16C24.8333 11.0294 20.8039 7 15.8333 7Z" fill="#ECEFF1"/>
</g>
</g>
<defs>
<clipPath id="clip0_138_4114">
<rect width="32" height="32" fill="white" transform="translate(0.5)"/>
</clipPath>
</defs>
</svg>
