<svg width="14" height="15" viewBox="0 0 14 15" fill="none" xmlns="http://www.w3.org/2000/svg">
<path d="M9.9981 5.6219C10.0241 5.6479 10.0448 5.67878 10.0589 5.71278C10.073 5.74677 10.0802 5.7832 10.0802 5.82C10.0802 5.8568 10.073 5.89323 10.0589 5.92722C10.0448 5.96121 10.0241 5.99209 9.9981 6.0181L6.0781 9.9381C6.0521 9.96413 6.02122 9.98478 5.98723 9.99887C5.95323 10.013 5.9168 10.0202 5.88 10.0202C5.84321 10.0202 5.80677 10.013 5.77278 9.99887C5.73879 9.98478 5.70791 9.96413 5.6819 9.9381L4.0019 8.2581C3.94936 8.20556 3.91985 8.1343 3.91985 8.06C3.91985 7.9857 3.94936 7.91444 4.0019 7.8619C4.05444 7.80936 4.1257 7.77984 4.2 7.77984C4.2743 7.77984 4.34556 7.80936 4.3981 7.8619L5.88 9.3438L9.6019 5.6219C9.62791 5.59587 9.65879 5.57521 9.69278 5.56112C9.72677 5.54703 9.7632 5.53978 9.8 5.53978C9.8368 5.53978 9.87323 5.54703 9.90722 5.56112C9.94122 5.57521 9.9721 5.59587 9.9981 5.6219ZM14 7.5C14 8.88447 13.5895 10.2378 12.8203 11.389C12.0511 12.5401 10.9579 13.4373 9.67879 13.9672C8.3997 14.497 6.99224 14.6356 5.63437 14.3655C4.2765 14.0954 3.02922 13.4287 2.05026 12.4497C1.07129 11.4708 0.404603 10.2235 0.134506 8.86563C-0.13559 7.50776 0.00303288 6.1003 0.532846 4.82122C1.06266 3.54213 1.95987 2.44888 3.11101 1.67971C4.26216 0.910543 5.61553 0.5 7 0.5C8.85589 0.502038 10.6352 1.24019 11.9475 2.5525C13.2598 3.86482 13.998 5.64411 14 7.5ZM13.44 7.5C13.44 6.22629 13.0623 4.98118 12.3547 3.92213C11.647 2.86307 10.6412 2.03764 9.46448 1.55022C8.28773 1.06279 6.99286 0.935254 5.74362 1.18374C4.49438 1.43223 3.34688 2.04558 2.44623 2.94623C1.54558 3.84688 0.932235 4.99438 0.683746 6.24362C0.435257 7.49285 0.56279 8.78772 1.05022 9.96448C1.53765 11.1412 2.36308 12.147 3.42213 12.8547C4.48118 13.5623 5.72629 13.94 7 13.94C8.70743 13.9381 10.3444 13.2591 11.5517 12.0517C12.7591 10.8444 13.4381 9.20742 13.44 7.5Z" fill="#249689"/>
</svg>
