<svg width="224" height="184" viewBox="0 0 224 184" fill="none" xmlns="http://www.w3.org/2000/svg">
<path d="M113.996 38.7716L113.189 39.8752L113.996 38.7716ZM113.996 38.7716L113.996 38.7713L113.998 38.7689L114.005 38.7581L114.039 38.7125C114.07 38.6715 114.116 38.6097 114.177 38.5281C114.3 38.3649 114.484 38.1224 114.728 37.8092C115.215 37.1827 115.938 36.2731 116.876 35.1477L116.108 34.5071C117.666 32.6405 119.809 30.1885 122.45 27.4506L123.17 28.1449C125.157 26.0847 127.427 23.8624 129.942 21.6073L129.274 20.8628C131.523 18.8466 133.966 16.8038 136.576 14.8254L137.18 15.6224C139.621 13.7721 142.208 11.9809 144.917 10.3239L144.395 9.47085C147.067 7.83605 149.86 6.32868 152.752 5.01972L153.165 5.93078C155.996 4.64948 158.918 3.56379 161.911 2.74012L161.645 1.77596C164.68 0.940679 167.792 0.368398 170.96 0.127782L171.036 1.12491C174.067 0.894749 177.146 0.975178 180.258 1.42778L180.402 0.43819C183.421 0.877292 186.472 1.65859 189.537 2.83666L189.178 3.77011C191.916 4.82228 194.672 6.20024 197.433 7.94736L197.968 7.10231C200.489 8.69745 203.01 10.5918 205.523 12.8154L204.86 13.5642C205.999 14.5722 207.137 15.6497 208.274 16.7999C209.464 18.0039 210.573 19.2207 211.606 20.4491L212.371 19.8058C214.581 22.4352 216.446 25.1226 217.992 27.8587L217.121 28.3506C218.761 31.2523 220.031 34.2071 220.965 37.2044L221.92 36.907C222.91 40.0859 223.53 43.3139 223.816 46.5783L222.819 46.6653C223.098 49.8526 223.05 53.0802 222.707 56.3367L223.702 56.4413C223.364 59.6522 222.746 62.8851 221.877 66.1284L220.911 65.8698C220.088 68.9431 219.037 72.0306 217.782 75.1224L218.709 75.4984C217.496 78.4883 216.097 81.4775 214.536 84.4572L213.65 83.9932C212.164 86.8309 210.528 89.6623 208.764 92.4795L209.611 93.0102C207.887 95.7628 206.043 98.4996 204.098 101.213L203.285 100.631C201.396 103.267 199.409 105.883 197.344 108.472L198.126 109.095C196.083 111.656 193.964 114.188 191.788 116.686L191.034 116.029C188.882 118.498 186.674 120.934 184.424 123.33L185.153 124.015C182.893 126.422 180.592 128.789 178.268 131.109L177.562 130.401C175.22 132.739 172.854 135.03 170.481 137.267L171.167 137.995C168.738 140.284 166.303 142.518 163.88 144.687L163.213 143.943C160.718 146.177 158.235 148.344 155.786 150.436L156.436 151.196C153.868 153.389 151.336 155.5 148.865 157.52L148.233 156.746C145.58 158.915 142.996 160.978 140.511 162.925L141.128 163.712C138.38 165.866 135.752 167.878 133.284 169.733L132.683 168.934C129.784 171.114 127.106 173.078 124.714 174.801L125.298 175.612C122.035 177.962 119.303 179.866 117.264 181.262M113.996 38.7716L117.264 181.262M117.264 181.262L116.699 180.437C115.401 181.326 114.386 182.008 113.696 182.467C113.487 182.606 113.308 182.725 113.16 182.823C113.003 182.729 112.812 182.616 112.588 182.482C111.864 182.049 110.8 181.405 109.439 180.563L108.913 181.414C106.771 180.09 103.9 178.28 100.475 176.037L101.023 175.201C98.5117 173.557 95.7017 171.679 92.6618 169.589L92.0953 170.413C89.5002 168.629 86.7382 166.691 83.8518 164.611L84.4365 163.8C81.8312 161.922 79.1247 159.93 76.3484 157.831L75.7455 158.629C73.1494 156.667 70.4924 154.612 67.8001 152.473L68.4222 151.69C65.8518 149.648 63.2495 147.528 60.6377 145.338L59.9953 146.105C57.4547 143.975 54.9051 141.778 52.3668 139.521L53.0312 138.774C50.5487 136.567 48.0777 134.302 45.6374 131.986L44.949 132.711C42.522 130.408 40.1248 128.053 37.7764 125.653L38.4912 124.954C36.1487 122.559 33.8557 120.121 31.631 117.643L30.8869 118.311C28.6308 115.798 26.4439 113.245 24.3457 110.657L25.1225 110.027C22.9999 107.409 20.9699 104.757 19.0527 102.076L18.2393 102.658C16.2626 99.8946 14.4038 97.1001 12.685 94.2811L13.5388 93.7605C11.7756 90.8687 10.1628 87.9539 8.72382 85.0236L7.82619 85.4643C6.31751 82.392 4.99647 79.2995 3.89037 76.1951L4.83236 75.8595C3.70182 72.6865 2.80053 69.506 2.15677 66.3268L1.17667 66.5252C0.503316 63.1998 0.106251 59.8706 0.0185589 56.5476L1.01821 56.5212C0.931538 53.237 1.1529 49.9621 1.71442 46.7057L0.728961 46.5357C1.28939 43.2857 2.18215 40.0515 3.43883 36.8426L4.36997 37.2073C5.52205 34.2656 6.98755 31.3419 8.79367 28.4438L7.94499 27.9149C9.63492 25.2033 11.6159 22.517 13.908 19.8623L14.6649 20.5158C15.7397 19.2709 16.8848 18.032 18.1024 16.7999C19.2387 15.65 20.3768 14.5728 21.5156 13.5653L20.853 12.8163C23.3654 10.5936 25.8866 8.70026 28.4076 7.10628L28.942 7.95151C31.7029 6.20595 34.4585 4.82964 37.1967 3.77916L36.8386 2.84551C39.9037 1.66962 42.954 0.890382 45.973 0.453217L46.1163 1.4429C49.2273 0.992417 52.3066 0.913757 55.3369 1.14537L55.4131 0.148285C58.5803 0.39038 61.6913 0.963653 64.7256 1.79951L64.4601 2.76359C67.452 3.58777 70.3734 4.67351 73.2042 5.9545L73.6165 5.04344C76.5083 6.35203 79.3008 7.85869 81.9731 9.49247L81.4514 10.3457C84.1602 12.0017 86.7466 13.7917 89.1882 15.6406L89.7919 14.8434C92.4026 16.8204 94.8458 18.8616 97.0946 20.8762L96.4274 21.621C98.9428 23.8745 101.214 26.0951 103.202 28.1536L103.921 27.4589C106.563 30.1947 108.708 32.6447 110.266 34.5099L117.264 181.262Z" stroke="#245960" stroke-width="2" stroke-dasharray="10 10"/>
</svg>
