<svg width="31" height="44" viewBox="0 0 31 44" fill="none" xmlns="http://www.w3.org/2000/svg">
<path d="M19.0598 7.59238L19.0393 7.53366V7.53366C18.0776 4.78458 17.5967 3.41004 16.9471 2.94892C16.0805 2.33368 14.9195 2.33368 14.0529 2.94892C13.4033 3.41004 12.9224 4.78458 11.9607 7.53366L11.7879 8.02769C11.5234 8.78377 11.3911 9.16181 11.1764 9.4581C10.8542 9.90258 10.3947 10.2287 9.86872 10.386C9.51813 10.4909 9.11763 10.4909 8.31661 10.4909H8.08289C5.37067 10.4909 4.01456 10.4909 3.41141 10.8626C2.37262 11.5028 1.94775 12.7994 2.40621 13.9302C2.6724 14.5868 3.76552 15.3893 5.95177 16.9945V16.9945C6.5792 17.4551 6.89292 17.6855 7.10848 17.965C7.47521 18.4405 7.65853 19.0321 7.62492 19.6317C7.60517 19.9841 7.47526 20.3554 7.21544 21.0981V21.0981C6.24571 23.8702 5.76084 25.2562 5.95677 25.9972C6.24646 27.0929 7.23694 27.8566 8.37024 27.8582C9.13675 27.8592 10.3393 27.0477 12.7444 25.4248L13.3097 25.0433C14.072 24.5289 14.4532 24.2716 14.8635 24.1636C15.2807 24.0538 15.7193 24.0538 16.1365 24.1636C16.5468 24.2716 16.928 24.5289 17.6904 25.0433L18.2818 25.4424C20.6655 27.051 21.8573 27.8552 22.6167 27.8581C23.7597 27.8625 24.7602 27.0911 25.0465 25.9845C25.2368 25.2494 24.7562 23.8755 23.7949 21.1278V21.1278C23.5339 20.3817 23.4034 20.0086 23.3838 19.6555C23.3499 19.0451 23.5409 18.4434 23.9207 17.9642C24.1403 17.687 24.4586 17.46 25.0951 17.006L25.2908 16.8664C27.3657 15.3865 28.4031 14.6465 28.6814 14.0547C29.2392 12.8685 28.786 11.4529 27.6431 10.8111C27.0729 10.4909 25.7986 10.4909 23.25 10.4909V10.4909" stroke="url(#paint0_linear_354_5076)" stroke-width="1.5" stroke-linecap="round" stroke-linejoin="round"/>
<path d="M3.48453 40C3.44186 40 3.40186 39.984 3.36453 39.952C3.33253 39.9147 3.31653 39.8747 3.31653 39.832C3.31653 39.8053 3.3192 39.7813 3.32453 39.76L5.20453 34.624C5.22053 34.5653 5.25253 34.5147 5.30053 34.472C5.35387 34.424 5.42587 34.4 5.51653 34.4H6.70053C6.7912 34.4 6.86053 34.424 6.90853 34.472C6.96187 34.5147 6.99653 34.5653 7.01253 34.624L8.88453 39.76C8.8952 39.7813 8.90053 39.8053 8.90053 39.832C8.90053 39.8747 8.88187 39.9147 8.84453 39.952C8.81253 39.984 8.77253 40 8.72453 40H7.74053C7.66053 40 7.5992 39.9813 7.55653 39.944C7.5192 39.9013 7.4952 39.864 7.48453 39.832L7.17253 39.016H5.03653L4.73253 39.832C4.72187 39.864 4.69787 39.9013 4.66053 39.944C4.6232 39.9813 4.5592 40 4.46853 40H3.48453ZM5.36453 37.864H6.85253L6.10053 35.752L5.36453 37.864ZM10.6482 40.08C10.3922 40.08 10.1602 40.04 9.95222 39.96C9.74955 39.8747 9.57355 39.752 9.42422 39.592C9.28022 39.4267 9.16822 39.2293 9.08822 39C9.00822 38.7653 8.96289 38.4987 8.95222 38.2C8.94689 38.0933 8.94422 38 8.94422 37.92C8.94422 37.8347 8.94689 37.7413 8.95222 37.64C8.96289 37.352 9.00822 37.0933 9.08822 36.864C9.16822 36.6347 9.28022 36.4373 9.42422 36.272C9.56822 36.1067 9.74422 35.9813 9.95222 35.896C10.1602 35.8053 10.3922 35.76 10.6482 35.76C10.9149 35.76 11.1442 35.8053 11.3362 35.896C11.5282 35.9813 11.6909 36.0933 11.8242 36.232V34.52C11.8242 34.4613 11.8429 34.4133 11.8802 34.376C11.9176 34.3387 11.9656 34.32 12.0242 34.32H13.0002C13.0536 34.32 13.0989 34.3387 13.1362 34.376C13.1789 34.4133 13.2002 34.4613 13.2002 34.52V39.8C13.2002 39.8587 13.1789 39.9067 13.1362 39.944C13.0989 39.9813 13.0536 40 13.0002 40H12.0962C12.0376 40 11.9896 39.9813 11.9522 39.944C11.9149 39.9067 11.8962 39.8587 11.8962 39.8V39.544C11.7682 39.6987 11.6029 39.8267 11.4002 39.928C11.1976 40.0293 10.9469 40.08 10.6482 40.08ZM11.0802 39.008C11.2616 39.008 11.4029 38.9707 11.5042 38.896C11.6109 38.816 11.6882 38.7147 11.7362 38.592C11.7896 38.4693 11.8189 38.336 11.8242 38.192C11.8296 38.0853 11.8322 37.984 11.8322 37.888C11.8322 37.792 11.8296 37.6933 11.8242 37.592C11.8189 37.4587 11.7896 37.336 11.7362 37.224C11.6829 37.1067 11.6029 37.0133 11.4962 36.944C11.3896 36.8693 11.2509 36.832 11.0802 36.832C10.9042 36.832 10.7629 36.8693 10.6562 36.944C10.5549 37.0187 10.4829 37.12 10.4402 37.248C10.3976 37.376 10.3709 37.5173 10.3602 37.672C10.3442 37.8373 10.3442 38.0027 10.3602 38.168C10.3709 38.3227 10.3976 38.464 10.4402 38.592C10.4829 38.72 10.5549 38.8213 10.6562 38.896C10.7629 38.9707 10.9042 39.008 11.0802 39.008ZM14.0431 40C13.9844 40 13.9364 39.9813 13.8991 39.944C13.8618 39.9067 13.8431 39.8587 13.8431 39.8V36.04C13.8431 35.9813 13.8618 35.9333 13.8991 35.896C13.9364 35.8587 13.9844 35.84 14.0431 35.84H14.9151C14.9738 35.84 15.0218 35.8587 15.0591 35.896C15.0964 35.9333 15.1151 35.9813 15.1151 36.04V36.312C15.2218 36.168 15.3711 36.0427 15.5631 35.936C15.7551 35.824 15.9818 35.7653 16.2431 35.76C16.8564 35.7493 17.2778 35.9813 17.5071 36.456C17.6298 36.2533 17.8058 36.088 18.0351 35.96C18.2644 35.8267 18.5151 35.76 18.7871 35.76C19.0644 35.76 19.3124 35.824 19.5311 35.952C19.7551 36.0747 19.9338 36.2667 20.0671 36.528C20.2004 36.784 20.2671 37.1173 20.2671 37.528V39.8C20.2671 39.8587 20.2458 39.9067 20.2031 39.944C20.1658 39.9813 20.1204 40 20.0671 40H19.1391C19.0804 40 19.0298 39.9813 18.9871 39.944C18.9498 39.9067 18.9311 39.8587 18.9311 39.8V37.584C18.9311 37.3973 18.9044 37.2507 18.8511 37.144C18.7978 37.032 18.7258 36.952 18.6351 36.904C18.5444 36.856 18.4404 36.832 18.3231 36.832C18.2271 36.832 18.1311 36.856 18.0351 36.904C17.9444 36.952 17.8698 37.032 17.8111 37.144C17.7578 37.2507 17.7311 37.3973 17.7311 37.584V39.8C17.7311 39.8587 17.7124 39.9067 17.6751 39.944C17.6378 39.9813 17.5898 40 17.5311 40H16.6031C16.5444 40 16.4964 39.9813 16.4591 39.944C16.4218 39.9067 16.4031 39.8587 16.4031 39.8V37.584C16.4031 37.3973 16.3738 37.2507 16.3151 37.144C16.2564 37.032 16.1818 36.952 16.0911 36.904C16.0004 36.856 15.8991 36.832 15.7871 36.832C15.6911 36.832 15.5951 36.856 15.4991 36.904C15.4084 36.952 15.3338 37.032 15.2751 37.144C15.2218 37.2507 15.1951 37.3947 15.1951 37.576V39.8C15.1951 39.8587 15.1738 39.9067 15.1311 39.944C15.0938 39.9813 15.0458 40 14.9871 40H14.0431ZM21.0634 40C21.0047 40 20.9567 39.9813 20.9194 39.944C20.8821 39.9067 20.8634 39.8587 20.8634 39.8V36.04C20.8634 35.9813 20.8821 35.9333 20.9194 35.896C20.9567 35.8587 21.0047 35.84 21.0634 35.84H22.0074C22.0607 35.84 22.1061 35.8587 22.1434 35.896C22.1861 35.9333 22.2074 35.9813 22.2074 36.04V39.8C22.2074 39.8587 22.1861 39.9067 22.1434 39.944C22.1061 39.9813 22.0607 40 22.0074 40H21.0634ZM21.0554 35.24C20.9967 35.24 20.9487 35.2213 20.9114 35.184C20.8741 35.1467 20.8554 35.0987 20.8554 35.04V34.328C20.8554 34.2693 20.8741 34.2213 20.9114 34.184C20.9487 34.1413 20.9967 34.12 21.0554 34.12H22.0074C22.0661 34.12 22.1141 34.1413 22.1514 34.184C22.1941 34.2213 22.2154 34.2693 22.2154 34.328V35.04C22.2154 35.0987 22.1941 35.1467 22.1514 35.184C22.1141 35.2213 22.0661 35.24 22.0074 35.24H21.0554ZM23.2947 40C23.236 40 23.188 39.9813 23.1507 39.944C23.1133 39.9067 23.0947 39.8587 23.0947 39.8V36.04C23.0947 35.9813 23.1133 35.9333 23.1507 35.896C23.188 35.8587 23.236 35.84 23.2947 35.84H24.2147C24.2733 35.84 24.3213 35.8587 24.3587 35.896C24.396 35.9333 24.4147 35.9813 24.4147 36.04V36.344C24.5533 36.1787 24.7347 36.04 24.9587 35.928C25.1827 35.816 25.4467 35.76 25.7507 35.76C26.06 35.76 26.332 35.8293 26.5667 35.968C26.8067 36.1067 26.9933 36.312 27.1267 36.584C27.2653 36.8507 27.3347 37.1787 27.3347 37.568V39.8C27.3347 39.8587 27.3133 39.9067 27.2707 39.944C27.2333 39.9813 27.188 40 27.1347 40H26.1267C26.0733 40 26.0253 39.9813 25.9827 39.944C25.9453 39.9067 25.9267 39.8587 25.9267 39.8V37.616C25.9267 37.3653 25.8653 37.1733 25.7427 37.04C25.6253 36.9013 25.4493 36.832 25.2147 36.832C24.996 36.832 24.82 36.9013 24.6867 37.04C24.5587 37.1733 24.4947 37.3653 24.4947 37.616V39.8C24.4947 39.8587 24.4733 39.9067 24.4307 39.944C24.3933 39.9813 24.348 40 24.2947 40H23.2947Z" fill="url(#paint1_linear_354_5076)"/>
<defs>
<linearGradient id="paint0_linear_354_5076" x1="-2.90625" y1="-2.5835" x2="23.5299" y2="34.9862" gradientUnits="userSpaceOnUse">
<stop stop-color="#F9DBCE"/>
<stop stop-color="#BF8931"/>
<stop offset="1" stop-color="#F5D789"/>
</linearGradient>
<linearGradient id="paint1_linear_354_5076" x1="3" y1="31" x2="10.3159" y2="49.4294" gradientUnits="userSpaceOnUse">
<stop stop-color="#F9DBCE"/>
<stop stop-color="#BF8931"/>
<stop offset="1" stop-color="#F5D789"/>
</linearGradient>
</defs>
</svg>
