<svg width="14" height="15" viewBox="0 0 14 15" fill="none" xmlns="http://www.w3.org/2000/svg">
<path d="M9.4381 5.4581L7.3962 7.5L9.4381 9.5419C9.49064 9.59444 9.52016 9.6657 9.52016 9.74C9.52016 9.8143 9.49064 9.88556 9.4381 9.9381C9.38556 9.99064 9.3143 10.0202 9.24 10.0202C9.1657 10.0202 9.09444 9.99064 9.0419 9.9381L7 7.8962L4.9581 9.9381C4.90556 9.99064 4.8343 10.0202 4.76 10.0202C4.6857 10.0202 4.61444 9.99064 4.5619 9.9381C4.50936 9.88556 4.47985 9.8143 4.47985 9.74C4.47985 9.6657 4.50936 9.59444 4.5619 9.5419L6.6038 7.5L4.5619 5.4581C4.50936 5.40556 4.47985 5.3343 4.47985 5.26C4.47985 5.1857 4.50936 5.11444 4.5619 5.0619C4.61444 5.00936 4.6857 4.97984 4.76 4.97984C4.8343 4.97984 4.90556 5.00936 4.9581 5.0619L7 7.1038L9.0419 5.0619C9.06792 5.03588 9.0988 5.01525 9.13279 5.00117C9.16678 4.98709 9.20321 4.97984 9.24 4.97984C9.27679 4.97984 9.31322 4.98709 9.34721 5.00117C9.3812 5.01525 9.41209 5.03588 9.4381 5.0619C9.46412 5.08791 9.48475 5.1188 9.49883 5.15279C9.51291 5.18678 9.52016 5.22321 9.52016 5.26C9.52016 5.29679 9.51291 5.33322 9.49883 5.36721C9.48475 5.4012 9.46412 5.43208 9.4381 5.4581ZM14 7.5C14 8.88447 13.5895 10.2378 12.8203 11.389C12.0511 12.5401 10.9579 13.4373 9.67879 13.9672C8.3997 14.497 6.99224 14.6356 5.63437 14.3655C4.2765 14.0954 3.02922 13.4287 2.05026 12.4497C1.07129 11.4708 0.404603 10.2235 0.134506 8.86563C-0.13559 7.50776 0.00303288 6.1003 0.532846 4.82122C1.06266 3.54213 1.95987 2.44888 3.11101 1.67971C4.26216 0.910543 5.61553 0.5 7 0.5C8.85589 0.502038 10.6352 1.24019 11.9475 2.5525C13.2598 3.86482 13.998 5.64411 14 7.5ZM13.44 7.5C13.44 6.22629 13.0623 4.98118 12.3547 3.92213C11.647 2.86307 10.6412 2.03764 9.46448 1.55022C8.28773 1.06279 6.99286 0.935254 5.74362 1.18374C4.49438 1.43223 3.34688 2.04558 2.44623 2.94623C1.54558 3.84688 0.932235 4.99438 0.683746 6.24362C0.435257 7.49285 0.56279 8.78772 1.05022 9.96448C1.53765 11.1412 2.36308 12.147 3.42213 12.8547C4.48118 13.5623 5.72629 13.94 7 13.94C8.70743 13.9381 10.3444 13.2591 11.5517 12.0517C12.7591 10.8444 13.4381 9.20742 13.44 7.5Z" fill="#FF5963"/>
</svg>
