<svg width="22" height="18" viewBox="0 0 22 18" fill="none" xmlns="http://www.w3.org/2000/svg">
<path d="M13.3196 7.10244L8.68125 10.8974C8.08542 10.4099 7.71875 9.74244 7.71875 8.99994C7.71875 7.51494 9.18542 6.31494 11.0004 6.31494C11.9079 6.31494 12.7237 6.61494 13.3196 7.10244Z" stroke="#A1A8B0" stroke-width="0.5" stroke-linecap="round" stroke-linejoin="round"/>
<path d="M16.3349 4.32749C14.7307 3.33749 12.8974 2.79749 10.9999 2.79749C7.76402 2.79749 4.74819 4.35749 2.64902 7.05749C1.82402 8.11499 1.82402 9.89249 2.64902 10.95C3.37319 11.88 4.21652 12.6825 5.13319 13.3275" stroke="#A1A8B0" stroke-width="0.5" stroke-linecap="round" stroke-linejoin="round"/>
<path d="M7.71875 14.6475C8.76375 15.0075 9.87292 15.2025 11.0004 15.2025C14.2362 15.2025 17.2521 13.6425 19.3512 10.9425C20.1762 9.88501 20.1762 8.10751 19.3512 7.05001C19.0487 6.66001 18.7187 6.29251 18.3796 5.94751" stroke="#A1A8B0" stroke-width="0.5" stroke-linecap="round" stroke-linejoin="round"/>
<path d="M14.2178 9.52502C13.9795 10.5825 12.9253 11.445 11.6328 11.64" stroke="#A1A8B0" stroke-width="0.5" stroke-linecap="round" stroke-linejoin="round"/>
<path d="M8.68051 10.8975L1.83301 16.5" stroke="#A1A8B0" stroke-width="0.5" stroke-linecap="round" stroke-linejoin="round"/>
<path d="M20.1668 1.5L13.3193 7.1025" stroke="#A1A8B0" stroke-width="0.5" stroke-linecap="round" stroke-linejoin="round"/>
</svg>
