<svg width="14" height="10" viewBox="0 0 14 10" fill="none" xmlns="http://www.w3.org/2000/svg">
<path d="M13.9796 4.89342C13.9591 4.84342 13.4655 3.65066 12.3605 2.44605C11.3371 1.33026 9.57678 0 7 0C4.42322 0 2.66293 1.33026 1.63946 2.44605C0.53452 3.65066 0.0408888 4.84342 0.0203711 4.89342C0.00693381 4.92716 0 4.96355 0 5.00033C0 5.03711 0.00693381 5.0735 0.0203711 5.10724C0.0408888 5.1579 0.53452 6.35 1.63946 7.55461C2.66534 8.67303 4.42383 10 7 10C9.57617 10 11.3371 8.67039 12.3605 7.55461C13.4655 6.35 13.9591 5.1579 13.9796 5.10724C13.9931 5.0735 14 5.03711 14 5.00033C14 4.96355 13.9931 4.92716 13.9796 4.89342ZM12.0063 7.19605C10.6141 8.70921 8.92866 9.47368 6.99759 9.47368C5.06651 9.47368 3.38346 8.70724 1.98886 7.19605C1.39547 6.55089 0.896433 5.81024 0.509174 5C0.897153 4.18957 1.39701 3.44891 1.99127 2.80395C3.38587 1.29276 5.06892 0.526316 7 0.526316C8.93108 0.526316 10.6141 1.29276 12.0087 2.80395C12.6029 3.44898 13.1028 4.18962 13.4908 5C13.1028 5.81042 12.603 6.55107 12.0087 7.19605H12.0063ZM7 2.10526C6.47485 2.10526 5.96148 2.27504 5.52483 2.59311C5.08818 2.91119 4.74786 3.36329 4.54689 3.89223C4.34592 4.42118 4.29334 5.00321 4.39579 5.56473C4.49824 6.12626 4.75113 6.64205 5.12247 7.04689C5.49381 7.45172 5.96693 7.72742 6.48199 7.83912C6.99705 7.95081 7.53093 7.89348 8.01611 7.67439C8.50129 7.45529 8.91598 7.08427 9.20774 6.60823C9.4995 6.13219 9.65523 5.57253 9.65523 5C9.65443 4.23254 9.37443 3.49675 8.87665 2.95407C8.37887 2.41139 7.70397 2.10613 7 2.10526ZM7 7.36842C6.57033 7.36842 6.15031 7.22952 5.79305 6.96927C5.43579 6.70902 5.15734 6.33913 4.99291 5.90636C4.82848 5.47358 4.78546 4.99737 4.86928 4.53794C4.95311 4.07852 5.16002 3.6565 5.46384 3.32527C5.76766 2.99404 6.15476 2.76847 6.57617 2.67709C6.99759 2.5857 7.4344 2.6326 7.83136 2.81186C8.22833 2.99112 8.56762 3.29469 8.80633 3.68418C9.04505 4.07366 9.17246 4.53157 9.17246 5C9.17246 5.62814 8.94358 6.23056 8.53616 6.67473C8.12875 7.11889 7.57617 7.36842 7 7.36842Z" fill="#249689"/>
</svg>
