<svg width="21" height="22" viewBox="0 0 21 22" fill="none" xmlns="http://www.w3.org/2000/svg">
<g clip-path="url(#clip0_109_4444)">
<path d="M10.5 22C16.299 22 21 17.0751 21 11C21 4.92487 16.299 0 10.5 0C4.70101 0 0 4.92487 0 11C0 17.0751 4.70101 22 10.5 22Z" fill="#3577E5"/>
<path d="M11.4796 17.5267V11.5867H13.3696L13.6496 9.24006H11.4796V7.77339C11.4796 7.11339 11.6896 6.67339 12.5996 6.67339H13.7896V4.54672C13.5796 4.54672 12.8796 4.47339 12.1096 4.47339C10.4296 4.47339 9.23961 5.57339 9.23961 7.55339V9.24006H7.34961V11.5867H9.23961V17.5267H11.4796Z" fill="white"/>
</g>
<defs>
<clipPath id="clip0_109_4444">
<rect width="21" height="22" fill="white"/>
</clipPath>
</defs>
</svg>
