<svg width="32" height="32" viewBox="0 0 32 32" fill="none" xmlns="http://www.w3.org/2000/svg">
<g clip-path="url(#clip0_138_4224)">
<path d="M23.7467 5.95984C23.64 5.95984 23.5333 5.93317 23.44 5.87984C20.88 4.55984 18.6667 3.99984 16.0133 3.99984C13.3733 3.99984 10.8667 4.6265 8.58665 5.87984C8.26665 6.05317 7.86665 5.93317 7.67999 5.61317C7.59683 5.45723 7.57818 5.27489 7.62805 5.10535C7.67791 4.9358 7.79231 4.79259 7.94665 4.7065C10.4267 3.35984 13.1467 2.6665 16.0133 2.6665C18.8533 2.6665 21.3333 3.29317 24.0533 4.69317C24.3867 4.8665 24.5067 5.2665 24.3333 5.5865C24.2806 5.69765 24.1976 5.79166 24.0938 5.85771C23.99 5.92375 23.8697 5.95915 23.7467 5.95984ZM4.66665 12.9598C4.54375 12.961 4.42293 12.9281 4.31759 12.8647C4.21226 12.8014 4.12653 12.7101 4.06991 12.601C4.01329 12.4919 3.988 12.3693 3.99684 12.2467C4.00568 12.1241 4.0483 12.0063 4.11999 11.9065C5.43999 10.0398 7.11999 8.57317 9.11999 7.5465C13.3067 5.3865 18.6667 5.37317 22.8667 7.53317C24.8667 8.55984 26.5467 10.0132 27.8667 11.8665C27.9178 11.9382 27.9543 12.0192 27.9739 12.1051C27.9936 12.1909 27.996 12.2797 27.9812 12.3665C27.9663 12.4533 27.9344 12.5363 27.8873 12.6106C27.8401 12.685 27.7788 12.7493 27.7067 12.7998C27.4 13.0132 26.9867 12.9465 26.7733 12.6398C25.6057 10.987 24.0547 9.64192 22.2533 8.71984C18.4267 6.75984 13.5333 6.75984 9.71999 8.73317C7.90665 9.6665 6.38665 10.9998 5.18665 12.6798C5.07999 12.8665 4.87999 12.9598 4.66665 12.9598ZM13 29.0532C12.9126 29.0542 12.8259 29.037 12.7455 29.0025C12.6651 28.9681 12.5928 28.9172 12.5333 28.8532C11.3733 27.6932 10.7467 26.9465 9.85332 25.3332C8.93332 23.6932 8.45332 21.6932 8.45332 19.5465C8.45332 15.5865 11.84 12.3598 16 12.3598C20.16 12.3598 23.5467 15.5865 23.5467 19.5465C23.5467 19.9198 23.2533 20.2132 22.88 20.2132C22.5067 20.2132 22.2133 19.9198 22.2133 19.5465C22.2133 16.3198 19.4267 13.6932 16 13.6932C12.5733 13.6932 9.78665 16.3198 9.78665 19.5465C9.78665 21.4665 10.2133 23.2398 11.0267 24.6798C11.88 26.2132 12.4667 26.8665 13.4933 27.9065C13.7467 28.1732 13.7467 28.5865 13.4933 28.8532C13.3467 28.9865 13.1733 29.0532 13 29.0532ZM22.56 26.5865C20.9733 26.5865 19.5733 26.1865 18.4267 25.3998C16.44 24.0532 15.2533 21.8665 15.2533 19.5465C15.2533 19.1732 15.5467 18.8798 15.92 18.8798C16.2933 18.8798 16.5867 19.1732 16.5867 19.5465C16.5867 21.4265 17.5467 23.1998 19.1733 24.2932C20.12 24.9332 21.2267 25.2398 22.56 25.2398C22.88 25.2398 23.4133 25.1998 23.9467 25.1065C24.3067 25.0398 24.6533 25.2798 24.72 25.6532C24.7867 26.0132 24.5467 26.3598 24.1733 26.4265C23.4133 26.5732 22.7467 26.5865 22.56 26.5865ZM19.88 29.3332C19.8267 29.3332 19.76 29.3198 19.7067 29.3065C17.5867 28.7198 16.2 27.9332 14.7467 26.5065C13.8257 25.5971 13.0954 24.5132 12.5986 23.3181C12.1018 22.123 11.8484 20.8407 11.8533 19.5465C11.8533 17.3865 13.6933 15.6265 15.96 15.6265C18.2267 15.6265 20.0667 17.3865 20.0667 19.5465C20.0667 20.9732 21.3067 22.1332 22.84 22.1332C24.3733 22.1332 25.6133 20.9732 25.6133 19.5465C25.6133 14.5198 21.28 10.4398 15.9467 10.4398C12.16 10.4398 8.69332 12.5465 7.13332 15.8132C6.61332 16.8932 6.34665 18.1598 6.34665 19.5465C6.34665 20.5865 6.43999 22.2265 7.23999 24.3598C7.37332 24.7065 7.19999 25.0932 6.85332 25.2132C6.50665 25.3465 6.11999 25.1598 5.99999 24.8265C5.35751 23.1402 5.02767 21.351 5.02665 19.5465C5.02665 17.9465 5.33332 16.4932 5.93332 15.2265C7.70665 11.5065 11.64 9.09317 15.9467 9.09317C22.0133 9.09317 26.9467 13.7732 26.9467 19.5332C26.9467 21.6932 25.1067 23.4532 22.84 23.4532C20.5733 23.4532 18.7333 21.6932 18.7333 19.5332C18.7333 18.1065 17.4933 16.9465 15.96 16.9465C14.4267 16.9465 13.1867 18.1065 13.1867 19.5332C13.1867 21.8132 14.0667 23.9465 15.68 25.5465C16.9467 26.7998 18.16 27.4932 20.04 28.0132C20.4 28.1065 20.6 28.4798 20.5067 28.8265C20.44 29.1332 20.16 29.3332 19.88 29.3332Z" fill="url(#paint0_linear_138_4224)"/>
</g>
<defs>
<linearGradient id="paint0_linear_138_4224" x1="3.04145" y1="4.29368" x2="3.04144" y2="29.0014" gradientUnits="userSpaceOnUse">
<stop stop-color="#83B6B2"/>
<stop offset="0.305" stop-color="#75A3A0"/>
<stop offset="1" stop-color="#3A504E"/>
</linearGradient>
<clipPath id="clip0_138_4224">
<rect width="32" height="32" fill="white"/>
</clipPath>
</defs>
</svg>
