<svg width="95" height="93" viewBox="0 0 95 93" fill="none" xmlns="http://www.w3.org/2000/svg">
<g opacity="0.64" filter="url(#filter0_d_172_2221)">
<g filter="url(#filter1_d_172_2221)">
<ellipse cx="47.5" cy="46.5" rx="27.5" ry="26.5" fill="#83B6B2"/>
</g>
</g>
<g clip-path="url(#clip0_172_2221)">
<path d="M46.6429 62.4251H49.3571V63.7109H46.6429V62.4251ZM31.7107 46.7557V53.6729L30.3571 53.0369V47.3986L31.7107 46.7557ZM64.2857 46.7523L65.6429 47.3986V53.03L64.2857 53.6763V46.7523ZM60.2143 45.0714H62.9286V55.3571H60.2143C59.4226 55.3571 59.2145 55.076 59.0408 54.7477C58.8671 54.4194 58.8535 54.068 58.8535 54.068V46.3571C58.8535 45.6071 59.1539 45.4066 59.5004 45.242C59.847 45.0783 60.2143 45.0714 60.2143 45.0714ZM33.0678 45.0714H35.7857C35.7857 45.0714 36.1494 45.0783 36.496 45.242C36.8425 45.4066 37.1429 45.6071 37.1429 46.3571V54.068C37.1429 54.068 37.1284 54.4194 36.9556 54.7477C36.7828 55.076 36.5774 55.3571 35.7857 55.3571H33.0678V45.0714ZM48 29C39.0121 29 31.7143 35.9137 31.7143 44.4286L31.7107 45.3157L29.3746 46.424C29.1448 46.5346 29 46.7557 29 47V53.4286C29 53.6729 29.1484 53.894 29.3746 54.0046L31.7107 55.1094V56C31.7143 56.3549 32.0147 56.6394 32.3856 56.6429H35.7857C37.0298 56.6429 37.8323 55.9563 38.168 55.3203C38.5036 54.6877 38.5 54.068 38.5 54.068V46.3571C38.5 45.1786 37.7717 44.4114 37.1003 44.0934C36.4326 43.7754 35.7857 43.7857 35.7857 43.7857H33.0895C33.4424 36.266 39.9739 30.2857 48 30.2857C56.0261 30.2857 62.5612 36.266 62.9141 43.7857H60.2143C60.2143 43.7857 60.2034 43.7857 60.1826 43.7857C60.0514 43.7891 59.4832 43.8157 58.896 44.0934C58.2247 44.4114 57.4964 45.1786 57.4964 46.3571V54.068C57.4964 54.068 57.4928 54.6877 57.8284 55.3203C58.1605 55.9529 58.9558 56.6291 60.179 56.6394C59.8433 59.8974 56.959 62.4251 53.4286 62.4251H50.7143V61.7857C50.7143 61.4309 50.4103 61.1429 50.0357 61.1463H45.9679C45.5933 61.1429 45.2857 61.4309 45.2857 61.7857V64.3571C45.2857 64.712 45.5933 65 45.9679 65H50.0357C50.4103 65 50.7143 64.712 50.7143 64.3571V63.7109H53.4286C57.6909 63.7109 61.1969 60.5969 61.5434 56.6429H63.6071C63.9817 56.6394 64.2857 56.3549 64.2857 56V55.1129L66.6254 54.0046C66.8552 53.894 67 53.6729 67 53.4286V47C67 46.7557 66.8552 46.5346 66.6254 46.424L64.2857 45.3157V44.4251C64.2857 35.9137 56.9879 29 48 29Z" fill="#249689"/>
<path d="M48.0004 49.5714C48.3822 49.5714 48.6754 49.8525 48.6754 50.2176C48.6754 50.5794 48.3822 50.8571 48.0004 50.8571C47.6186 50.8571 47.3182 50.5794 47.3182 50.2176C47.3182 49.8525 47.6186 49.5714 48.0004 49.5714ZM48.0004 48.2856C46.8839 48.2856 45.9683 49.1599 45.9683 50.2176C45.9683 51.2719 46.8839 52.1428 48.0004 52.1428C49.1169 52.1428 50.0361 51.2719 50.0361 50.2176C50.0361 49.1599 49.1169 48.2856 48.0004 48.2856ZM53.429 49.5714C53.8144 49.5714 54.1076 49.8525 54.1076 50.2176C54.1076 50.5794 53.8144 50.8571 53.429 50.8571C53.0472 50.8571 52.7504 50.5794 52.7504 50.2176C52.7504 49.8525 53.0472 49.5714 53.429 49.5714ZM53.429 48.2856C52.3161 48.2856 51.3933 49.1599 51.3933 50.2176C51.3933 51.2719 52.3161 52.1428 53.429 52.1428C54.5455 52.1428 55.4647 51.2719 55.4647 50.2176C55.4647 49.1599 54.5455 48.2856 53.429 48.2856ZM42.5718 49.5714C42.9537 49.5714 43.2504 49.8525 43.2504 50.2176C43.2504 50.5794 42.9537 50.8571 42.5718 50.8571C42.1864 50.8571 41.8933 50.5794 41.8933 50.2176C41.8933 49.8525 42.1864 49.5714 42.5718 49.5714ZM42.5718 48.2856C41.4554 48.2856 40.5361 49.1599 40.5361 50.2176C40.5361 51.2719 41.4554 52.1428 42.5718 52.1428C43.6883 52.1428 44.6112 51.2719 44.6112 50.2176C44.6112 49.1599 43.6883 48.2856 42.5718 48.2856Z" fill="white"/>
</g>
<defs>
<filter id="filter0_d_172_2221" x="0" y="0" width="95" height="93" filterUnits="userSpaceOnUse" color-interpolation-filters="sRGB">
<feFlood flood-opacity="0" result="BackgroundImageFix"/>
<feColorMatrix in="SourceAlpha" type="matrix" values="0 0 0 0 0 0 0 0 0 0 0 0 0 0 0 0 0 0 127 0" result="hardAlpha"/>
<feOffset/>
<feGaussianBlur stdDeviation="10"/>
<feColorMatrix type="matrix" values="0 0 0 0 0 0 0 0 0 0 0 0 0 0 0 0 0 0 0.08 0"/>
<feBlend mode="normal" in2="BackgroundImageFix" result="effect1_dropShadow_172_2221"/>
<feBlend mode="normal" in="SourceGraphic" in2="effect1_dropShadow_172_2221" result="shape"/>
</filter>
<filter id="filter1_d_172_2221" x="10" y="18" width="75" height="73" filterUnits="userSpaceOnUse" color-interpolation-filters="sRGB">
<feFlood flood-opacity="0" result="BackgroundImageFix"/>
<feColorMatrix in="SourceAlpha" type="matrix" values="0 0 0 0 0 0 0 0 0 0 0 0 0 0 0 0 0 0 127 0" result="hardAlpha"/>
<feOffset dy="8"/>
<feGaussianBlur stdDeviation="5"/>
<feColorMatrix type="matrix" values="0 0 0 0 0 0 0 0 0 0 0 0 0 0 0 0 0 0 0.1 0"/>
<feBlend mode="normal" in2="BackgroundImageFix" result="effect1_dropShadow_172_2221"/>
<feBlend mode="normal" in="SourceGraphic" in2="effect1_dropShadow_172_2221" result="shape"/>
</filter>
<clipPath id="clip0_172_2221">
<rect width="38" height="36" fill="white" transform="translate(29 29)"/>
</clipPath>
</defs>
</svg>
