<svg width="18" height="20" viewBox="0 0 18 20" fill="none" xmlns="http://www.w3.org/2000/svg">
<path d="M17.6683 10.225C17.6683 9.56671 17.616 8.94171 17.5264 8.33337H9.08887V12.0917H13.9199C13.7034 13.325 13.0687 14.3667 12.1279 15.075V17.575H15.0101C16.6976 15.8334 17.6683 13.2667 17.6683 10.225Z" fill="#4285F4"/>
<path d="M9.08882 20C11.5081 20 13.5316 19.1 15.01 17.575L12.1278 15.075C11.3214 15.675 10.2984 16.0417 9.08882 16.0417C6.75169 16.0417 4.77297 14.2833 4.06361 11.9083H1.0918V14.4833C2.56277 17.75 5.58685 20 9.08882 20Z" fill="#34A853"/>
<path d="M4.06395 11.9083C3.87728 11.3083 3.78021 10.6666 3.78021 9.99993C3.78021 9.33327 3.88474 8.6916 4.06395 8.0916V5.5166H1.09213C0.479848 6.8666 0.128906 8.38327 0.128906 9.99993C0.128906 11.6166 0.479848 13.1333 1.09213 14.4833L4.06395 11.9083Z" fill="#FBBC05"/>
<path d="M9.08882 3.95833C10.4105 3.95833 11.5902 4.46667 12.5236 5.45834L15.0772 2.60833C13.5316 0.991668 11.5081 0 9.08882 0C5.58685 0 2.56277 2.25 1.0918 5.51667L4.06361 8.09167C4.77297 5.71667 6.75169 3.95833 9.08882 3.95833Z" fill="#EA4335"/>
</svg>
