<svg width="53" height="51" viewBox="0 0 53 51" fill="none" xmlns="http://www.w3.org/2000/svg">
<path d="M30.1178 21.8287L30.1178 21.8288L30.0269 22.4872L30.68 22.395L30.6801 22.395L30.6804 22.395L30.6826 22.3947L30.6927 22.3933L30.7359 22.3876C30.7745 22.3827 30.8329 22.3754 30.9096 22.3666C31.063 22.349 31.2898 22.3251 31.5795 22.3005C32.159 22.2513 32.9893 22.1994 33.9869 22.1893C35.9855 22.1691 38.6398 22.317 41.2899 22.982C43.9423 23.6474 46.5566 24.8222 48.5143 26.8308C50.4606 28.8276 51.7953 31.6861 51.8355 35.8032C51.8634 38.658 51.1601 40.9612 49.9269 42.8216C48.6911 44.6859 46.9035 46.1346 44.7205 47.2435C40.341 49.4683 34.4358 50.2923 28.4571 50.3815C22.4905 50.4705 16.509 49.8274 12.0137 49.1603C9.76743 48.827 7.89526 48.4881 6.58544 48.2327C5.93058 48.1051 5.41645 47.9983 5.06657 47.9236C4.97433 47.9039 4.89351 47.8864 4.82454 47.8714C4.80597 47.8011 4.78429 47.7185 4.75977 47.624C4.66829 47.2713 4.53716 46.753 4.37926 46.0928C4.06343 44.7723 3.64064 42.8848 3.21369 40.6203C2.35922 36.0881 1.49065 30.0591 1.4251 24.047C1.3594 18.022 2.10158 12.0784 4.41726 7.67416C5.57091 5.47997 7.10957 3.67823 9.12632 2.43062C11.1418 1.18377 13.6645 0.471972 16.8163 0.503264C20.8965 0.543775 23.7304 1.8891 25.7106 3.85099C27.7025 5.82442 28.8684 8.4598 29.5296 11.1335C30.1903 13.805 30.3385 16.4807 30.3197 18.4953C30.3103 19.5009 30.2594 20.3379 30.211 20.9221C30.1868 21.2141 30.1632 21.4427 30.1459 21.5973C30.1372 21.6746 30.13 21.7335 30.1251 21.7725L30.1195 21.8159L30.1182 21.8262L30.1179 21.8284L30.1178 21.8287Z" fill="white" stroke="#245960"/>
</svg>
