<svg width="84" height="80" viewBox="0 0 84 80" fill="none" xmlns="http://www.w3.org/2000/svg">
<path d="M38.1839 30.4887L38.1842 30.4888L40.6635 31.5766L40.9666 28.8682L40.9667 28.8678L40.9668 28.8667L40.9668 28.8665L40.9682 28.8543L40.9755 28.7943C40.9824 28.7389 40.9934 28.6531 41.0091 28.539C41.0405 28.3108 41.0906 27.97 41.1634 27.5347C41.3092 26.6634 41.5458 25.4172 41.906 23.9395C42.6298 20.9707 43.8375 17.1311 45.7717 13.5292C47.7109 9.91815 50.3093 6.67701 53.7534 4.71413C57.1374 2.78553 61.5352 1.97638 67.3593 3.55559C71.3771 4.645 74.2985 6.54613 76.4069 8.98979C78.5273 11.4475 79.91 14.5533 80.6789 18.1653C82.2286 25.4448 81.2263 34.4984 79.0752 43.5076C76.9348 52.4719 73.7116 61.1748 71.0119 67.6552C69.6641 70.8905 68.4514 73.5608 67.5771 75.4195C67.2388 76.1387 66.9513 76.736 66.7265 77.1971C66.2105 77.187 65.5418 77.17 64.7395 77.1418C62.6827 77.0694 59.7502 76.9228 56.2614 76.6264C49.2719 76.0325 40.1034 74.8412 31.2858 72.4612C22.4218 70.0687 14.1502 66.5362 8.7439 61.4065C6.06507 58.8646 4.12243 55.9619 3.12375 52.631C2.12705 49.3065 2.03263 45.4299 3.2395 40.872C4.79307 35.0047 7.68596 31.573 11.0348 29.5841C14.4433 27.5598 18.5277 26.9113 22.6003 27.0226C26.6626 27.1336 30.566 27.997 33.4791 28.8477C34.9291 29.2712 36.1182 29.687 36.9399 29.9948C37.3504 30.1486 37.6682 30.275 37.8801 30.3616C37.9859 30.4048 38.0653 30.4381 38.1163 30.4597L38.1714 30.4833L38.1827 30.4882L38.1829 30.4882L38.1839 30.4887Z" stroke="#245960" stroke-width="4"/>
</svg>
