<svg width="43" height="40" viewBox="0 0 43 40" fill="none" xmlns="http://www.w3.org/2000/svg">
<ellipse cx="21.5" cy="20.261" rx="21.5" ry="19.739" fill="#E8F3F1"/>
<path fill-rule="evenodd" clip-rule="evenodd" d="M21 12.9162C16.313 12.9162 12.5 16.4169 12.5 20.72C12.5 25.0231 16.313 28.5238 21 28.5238C25.687 28.5238 29.5 25.0231 29.5 20.72C29.5 16.4169 25.687 12.9162 21 12.9162ZM21 29.901C15.486 29.901 11 25.7824 11 20.72C11 15.6576 15.486 11.5391 21 11.5391C26.514 11.5391 31 15.6576 31 20.72C31 25.7824 26.514 29.901 21 29.901Z" fill="#FE5C5C"/>
<path fill-rule="evenodd" clip-rule="evenodd" d="M20.9941 21.9806C20.5801 21.9806 20.2441 21.6721 20.2441 21.292V17.235C20.2441 16.8549 20.5801 16.5464 20.9941 16.5464C21.4081 16.5464 21.7441 16.8549 21.7441 17.235V21.292C21.7441 21.6721 21.4081 21.9806 20.9941 21.9806Z" fill="#FE5C5C"/>
<path fill-rule="evenodd" clip-rule="evenodd" d="M21.004 25.1233C20.451 25.1233 19.999 24.7129 19.999 24.2052C19.999 23.6975 20.442 23.2871 20.994 23.2871H21.004C21.557 23.2871 22.004 23.6975 22.004 24.2052C22.004 24.7129 21.557 25.1233 21.004 25.1233Z" fill="#FE5C5C"/>
</svg>
