<svg width="162" height="144" viewBox="0 0 162 144" fill="none" xmlns="http://www.w3.org/2000/svg">
<g filter="url(#filter0_d_172_2175)">
<rect x="20" y="20" width="122" height="104" rx="8" fill="white"/>
<path d="M89.8953 47.3837C89.8953 48.2892 90.5982 49.0233 91.4651 49.0233C92.332 49.0233 93.0349 48.2892 93.0349 47.3837H89.8953ZM68.9651 47.3837C68.9651 48.2892 69.6679 49.0233 70.5349 49.0233C71.4018 49.0233 72.1047 48.2892 72.1047 47.3837H68.9651ZM82.5698 56.1279V54.4884H79.4302V56.1279H82.5698ZM79.4302 73.6163V75.2558H82.5698V73.6163H79.4302ZM89.3721 66.5116H90.9419V63.2326H89.3721V66.5116ZM72.6279 63.2326H71.0581V66.5116H72.6279V63.2326ZM100.36 51.7558V77.9884H103.5V51.7558H100.36ZM97.7442 80.7209H64.2558V84H97.7442V80.7209ZM61.6395 77.9884V51.7558H58.5V77.9884H61.6395ZM64.2558 49.0233H97.7442V45.7442H64.2558V49.0233ZM64.2558 80.7209C62.8109 80.7209 61.6395 79.4976 61.6395 77.9884H58.5C58.5 81.3085 61.077 84 64.2558 84V80.7209ZM100.36 77.9884C100.36 79.4976 99.1892 80.7209 97.7442 80.7209V84C100.923 84 103.5 81.3085 103.5 77.9884H100.36ZM103.5 51.7558C103.5 48.4357 100.923 45.7442 97.7442 45.7442V49.0233C99.1892 49.0233 100.36 50.2467 100.36 51.7558H103.5ZM61.6395 51.7558C61.6395 50.2467 62.8109 49.0233 64.2558 49.0233V45.7442C61.077 45.7442 58.5 48.4357 58.5 51.7558H61.6395ZM89.8953 43.0116V47.3837H93.0349V43.0116H89.8953ZM72.1047 47.3837V43.0116H68.9651V47.3837H72.1047ZM74.7209 40.2791H87.2791V37H74.7209V40.2791ZM93.0349 43.0116C93.0349 39.6915 90.458 37 87.2791 37V40.2791C88.7241 40.2791 89.8953 41.5025 89.8953 43.0116H93.0349ZM72.1047 43.0116C72.1047 41.5025 73.276 40.2791 74.7209 40.2791V37C71.5421 37 68.9651 39.6915 68.9651 43.0116H72.1047ZM79.4302 56.1279V64.8721H82.5698V56.1279H79.4302ZM79.4302 64.8721V73.6163H82.5698V64.8721H79.4302ZM89.3721 63.2326H81V66.5116H89.3721V63.2326ZM81 63.2326H72.6279V66.5116H81V63.2326Z" fill="#BBB8B5"/>
<path d="M64.3452 104C64.2719 104 64.2095 103.978 64.1582 103.934C64.1142 103.89 64.0922 103.831 64.0922 103.758V96.553C64.0922 96.4723 64.1142 96.41 64.1582 96.366C64.2095 96.322 64.2719 96.3 64.3452 96.3H64.6202C64.6935 96.3 64.7485 96.3183 64.7852 96.355C64.8219 96.3917 64.8439 96.421 64.8512 96.443L67.3482 101.305L69.8562 96.443C69.8709 96.421 69.8929 96.3917 69.9222 96.355C69.9589 96.3183 70.0139 96.3 70.0872 96.3H70.3512C70.4319 96.3 70.4942 96.322 70.5382 96.366C70.5822 96.41 70.6042 96.4723 70.6042 96.553V103.758C70.6042 103.831 70.5822 103.89 70.5382 103.934C70.4942 103.978 70.4319 104 70.3512 104H70.1532C70.0799 104 70.0212 103.978 69.9772 103.934C69.9332 103.89 69.9112 103.831 69.9112 103.758V97.796L67.8102 101.932C67.7809 102.005 67.7369 102.06 67.6782 102.097C67.6269 102.134 67.5572 102.152 67.4692 102.152H67.2272C67.1392 102.152 67.0695 102.134 67.0182 102.097C66.9669 102.06 66.9229 102.005 66.8862 101.932L64.7852 97.796V103.758C64.7852 103.831 64.7632 103.89 64.7192 103.934C64.6752 103.978 64.6165 104 64.5432 104H64.3452ZM74.3552 104.11C73.6439 104.11 73.0792 103.879 72.6612 103.417C72.2432 102.948 72.0049 102.335 71.9462 101.58C71.9389 101.47 71.9352 101.323 71.9352 101.14C71.9352 100.957 71.9389 100.81 71.9462 100.7C71.9829 100.201 72.1002 99.7613 72.2982 99.38C72.4962 98.9987 72.7675 98.7017 73.1122 98.489C73.4642 98.2763 73.8785 98.17 74.3552 98.17C74.8685 98.17 75.3049 98.2837 75.6642 98.511C76.0235 98.7383 76.2985 99.0647 76.4892 99.49C76.6872 99.9153 76.7862 100.421 76.7862 101.008V101.173C76.7862 101.246 76.7605 101.305 76.7092 101.349C76.6652 101.393 76.6065 101.415 76.5332 101.415H72.6172C72.6172 101.415 72.6172 101.43 72.6172 101.459C72.6172 101.488 72.6172 101.51 72.6172 101.525C72.6319 101.855 72.7089 102.17 72.8482 102.471C72.9875 102.764 73.1855 103.006 73.4422 103.197C73.6989 103.38 74.0032 103.472 74.3552 103.472C74.6705 103.472 74.9309 103.424 75.1362 103.329C75.3489 103.234 75.5175 103.131 75.6422 103.021C75.7669 102.904 75.8475 102.816 75.8842 102.757C75.9502 102.662 76.0015 102.607 76.0382 102.592C76.0749 102.57 76.1335 102.559 76.2142 102.559H76.3902C76.4562 102.559 76.5112 102.581 76.5552 102.625C76.6065 102.662 76.6285 102.713 76.6212 102.779C76.6139 102.882 76.5552 103.01 76.4452 103.164C76.3425 103.311 76.1922 103.457 75.9942 103.604C75.8035 103.751 75.5689 103.872 75.2902 103.967C75.0115 104.062 74.6999 104.11 74.3552 104.11ZM72.6172 100.799H76.1152V100.755C76.1152 100.388 76.0455 100.058 75.9062 99.765C75.7669 99.4717 75.5652 99.2407 75.3012 99.072C75.0372 98.896 74.7219 98.808 74.3552 98.808C73.9885 98.808 73.6732 98.896 73.4092 99.072C73.1525 99.2407 72.9545 99.4717 72.8152 99.765C72.6832 100.058 72.6172 100.388 72.6172 100.755V100.799ZM80.0051 104.11C79.5798 104.11 79.2168 104.033 78.9161 103.879C78.6228 103.725 78.3844 103.52 78.2011 103.263C78.0178 103.006 77.8821 102.72 77.7941 102.405C77.7134 102.09 77.6658 101.771 77.6511 101.448C77.6438 101.338 77.6401 101.235 77.6401 101.14C77.6401 101.045 77.6438 100.942 77.6511 100.832C77.6658 100.509 77.7134 100.19 77.7941 99.875C77.8821 99.5597 78.0178 99.2737 78.2011 99.017C78.3844 98.7603 78.6228 98.555 78.9161 98.401C79.2168 98.247 79.5798 98.17 80.0051 98.17C80.4598 98.17 80.8338 98.2543 81.1271 98.423C81.4278 98.5917 81.6698 98.797 81.8531 99.039V96.432C81.8531 96.3587 81.8751 96.3 81.9191 96.256C81.9631 96.212 82.0218 96.19 82.0951 96.19H82.2821C82.3554 96.19 82.4141 96.212 82.4581 96.256C82.5021 96.3 82.5241 96.3587 82.5241 96.432V103.758C82.5241 103.831 82.5021 103.89 82.4581 103.934C82.4141 103.978 82.3554 104 82.2821 104H82.0951C82.0218 104 81.9631 103.978 81.9191 103.934C81.8751 103.89 81.8531 103.831 81.8531 103.758V103.241C81.6698 103.49 81.4278 103.699 81.1271 103.868C80.8338 104.029 80.4598 104.11 80.0051 104.11ZM80.0711 103.472C80.4891 103.472 80.8264 103.373 81.0831 103.175C81.3398 102.977 81.5304 102.731 81.6551 102.438C81.7798 102.137 81.8458 101.837 81.8531 101.536C81.8604 101.426 81.8641 101.283 81.8641 101.107C81.8641 100.931 81.8604 100.788 81.8531 100.678C81.8458 100.385 81.7761 100.095 81.6441 99.809C81.5194 99.523 81.3288 99.2847 81.0721 99.094C80.8154 98.9033 80.4818 98.808 80.0711 98.808C79.6458 98.808 79.3048 98.9033 79.0481 99.094C78.7988 99.2847 78.6191 99.534 78.5091 99.842C78.3991 100.15 78.3368 100.48 78.3221 100.832C78.3148 101.037 78.3148 101.243 78.3221 101.448C78.3368 101.8 78.3991 102.13 78.5091 102.438C78.6191 102.746 78.7988 102.995 79.0481 103.186C79.3048 103.377 79.6458 103.472 80.0711 103.472ZM84.26 104C84.1866 104 84.128 103.978 84.084 103.934C84.04 103.89 84.018 103.831 84.018 103.758V98.522C84.018 98.4487 84.04 98.39 84.084 98.346C84.128 98.302 84.1866 98.28 84.26 98.28H84.447C84.5203 98.28 84.579 98.302 84.623 98.346C84.667 98.39 84.689 98.4487 84.689 98.522V103.758C84.689 103.831 84.667 103.89 84.623 103.934C84.579 103.978 84.5203 104 84.447 104H84.26ZM84.139 97.103C84.0656 97.103 84.007 97.081 83.963 97.037C83.919 96.993 83.897 96.9343 83.897 96.861V96.443C83.897 96.3697 83.919 96.311 83.963 96.267C84.007 96.2157 84.0656 96.19 84.139 96.19H84.557C84.6303 96.19 84.689 96.2157 84.733 96.267C84.7843 96.311 84.81 96.3697 84.81 96.443V96.861C84.81 96.9343 84.7843 96.993 84.733 97.037C84.689 97.081 84.6303 97.103 84.557 97.103H84.139ZM88.3342 104.11C87.8208 104.11 87.3845 104.011 87.0252 103.813C86.6658 103.608 86.3908 103.314 86.2002 102.933C86.0168 102.552 85.9178 102.101 85.9032 101.58C85.8958 101.47 85.8922 101.323 85.8922 101.14C85.8922 100.957 85.8958 100.81 85.9032 100.7C85.9178 100.172 86.0168 99.721 86.2002 99.347C86.3908 98.9657 86.6658 98.676 87.0252 98.478C87.3845 98.2727 87.8208 98.17 88.3342 98.17C88.7228 98.17 89.0565 98.225 89.3352 98.335C89.6212 98.4377 89.8558 98.577 90.0392 98.753C90.2225 98.9217 90.3618 99.1087 90.4572 99.314C90.5525 99.5193 90.6038 99.721 90.6112 99.919C90.6185 99.9923 90.5965 100.051 90.5452 100.095C90.4938 100.139 90.4352 100.161 90.3692 100.161H90.2152C90.1418 100.161 90.0868 100.146 90.0502 100.117C90.0208 100.08 89.9878 100.018 89.9512 99.93C89.7972 99.512 89.5845 99.2223 89.3132 99.061C89.0492 98.8923 88.7228 98.808 88.3342 98.808C87.8355 98.808 87.4212 98.962 87.0912 99.27C86.7685 99.5707 86.5962 100.066 86.5742 100.755C86.5595 101.012 86.5595 101.268 86.5742 101.525C86.5962 102.214 86.7685 102.713 87.0912 103.021C87.4212 103.322 87.8355 103.472 88.3342 103.472C88.7228 103.472 89.0492 103.391 89.3132 103.23C89.5845 103.061 89.7972 102.768 89.9512 102.35C89.9878 102.262 90.0208 102.203 90.0502 102.174C90.0868 102.137 90.1418 102.119 90.2152 102.119H90.3692C90.4352 102.119 90.4938 102.141 90.5452 102.185C90.5965 102.229 90.6185 102.288 90.6112 102.361C90.6038 102.522 90.5708 102.684 90.5122 102.845C90.4535 103.006 90.3618 103.164 90.2372 103.318C90.1198 103.472 89.9732 103.608 89.7972 103.725C89.6212 103.842 89.4085 103.934 89.1592 104C88.9172 104.073 88.6422 104.11 88.3342 104.11ZM93.3046 104.11C92.9526 104.11 92.6263 104.037 92.3256 103.89C92.0323 103.743 91.794 103.549 91.6106 103.307C91.4273 103.058 91.3356 102.779 91.3356 102.471C91.3356 101.972 91.5373 101.573 91.9406 101.272C92.344 100.971 92.8683 100.777 93.5136 100.689L95.2516 100.447V100.062C95.2516 99.6733 95.1306 99.369 94.8886 99.149C94.654 98.9217 94.2763 98.808 93.7556 98.808C93.3743 98.808 93.0663 98.885 92.8316 99.039C92.597 99.1857 92.4356 99.38 92.3476 99.622C92.311 99.732 92.2413 99.787 92.1386 99.787H91.9626C91.8746 99.787 91.8123 99.765 91.7756 99.721C91.739 99.6697 91.7206 99.611 91.7206 99.545C91.7206 99.4423 91.7573 99.314 91.8306 99.16C91.9113 99.006 92.0323 98.8557 92.1936 98.709C92.355 98.555 92.564 98.4267 92.8206 98.324C93.0773 98.2213 93.389 98.17 93.7556 98.17C94.1883 98.17 94.544 98.2287 94.8226 98.346C95.1086 98.4633 95.3286 98.6173 95.4826 98.808C95.644 98.9913 95.7576 99.1967 95.8236 99.424C95.8896 99.6513 95.9226 99.875 95.9226 100.095V103.758C95.9226 103.831 95.9006 103.89 95.8566 103.934C95.8126 103.978 95.754 104 95.6806 104H95.4936C95.4203 104 95.3616 103.978 95.3176 103.934C95.2736 103.89 95.2516 103.831 95.2516 103.758V103.241C95.1636 103.373 95.039 103.505 94.8776 103.637C94.7163 103.769 94.5073 103.883 94.2506 103.978C94.0013 104.066 93.686 104.11 93.3046 104.11ZM93.4146 103.472C93.752 103.472 94.06 103.399 94.3386 103.252C94.6173 103.105 94.8373 102.882 94.9986 102.581C95.1673 102.273 95.2516 101.888 95.2516 101.426V101.052L93.8326 101.25C93.2313 101.331 92.7766 101.47 92.4686 101.668C92.1606 101.866 92.0066 102.115 92.0066 102.416C92.0066 102.658 92.0763 102.856 92.2156 103.01C92.355 103.164 92.531 103.281 92.7436 103.362C92.9636 103.435 93.1873 103.472 93.4146 103.472ZM97.6151 104C97.5418 104 97.4831 103.978 97.4391 103.934C97.3951 103.89 97.3731 103.831 97.3731 103.758V96.432C97.3731 96.3587 97.3951 96.3 97.4391 96.256C97.4831 96.212 97.5418 96.19 97.6151 96.19H97.8021C97.8754 96.19 97.9341 96.212 97.9781 96.256C98.0221 96.3 98.0441 96.3587 98.0441 96.432V103.758C98.0441 103.831 98.0221 103.89 97.9781 103.934C97.9341 103.978 97.8754 104 97.8021 104H97.6151Z" fill="#BBB8B5"/>
</g>
<defs>
<filter id="filter0_d_172_2175" x="0" y="0" width="162" height="144" filterUnits="userSpaceOnUse" color-interpolation-filters="sRGB">
<feFlood flood-opacity="0" result="BackgroundImageFix"/>
<feColorMatrix in="SourceAlpha" type="matrix" values="0 0 0 0 0 0 0 0 0 0 0 0 0 0 0 0 0 0 127 0" result="hardAlpha"/>
<feOffset/>
<feGaussianBlur stdDeviation="10"/>
<feColorMatrix type="matrix" values="0 0 0 0 0 0 0 0 0 0 0 0 0 0 0 0 0 0 0.08 0"/>
<feBlend mode="normal" in2="BackgroundImageFix" result="effect1_dropShadow_172_2175"/>
<feBlend mode="normal" in="SourceGraphic" in2="effect1_dropShadow_172_2175" result="shape"/>
</filter>
</defs>
</svg>
