<svg width="45" height="46" viewBox="0 0 45 46" fill="none" xmlns="http://www.w3.org/2000/svg">
<path d="M14.5923 19.6936C19.6833 19.3987 18.8257 11.6764 13.8048 12.6005C9.83833 13.6584 10.5423 19.6251 14.5923 19.6936ZM14.1201 14.0001C16.7789 13.4191 17.7135 17.4715 15.0644 18.1986C12.3911 18.778 11.4813 14.7199 14.1201 14.0001Z" fill="white"/>
<path d="M40.6756 21.9626V21.1712C40.604 18.3276 36.6084 18.3287 36.5373 21.1713C36.5373 21.1712 36.5373 21.89 36.5373 21.89H35.1579V21.1712C35.1579 19.586 33.9206 18.2962 32.399 18.2962H27.1333L25.0627 9.11321C24.8539 8.17757 24.307 7.38336 23.5223 6.87659C22.7376 6.37051 21.8115 6.21398 20.9163 6.43439L4.80565 10.3728C2.99286 10.7708 1.77041 12.8176 2.23542 14.6867C2.23538 14.6867 6.9536 35.6834 6.9536 35.6834C7.16577 36.6173 7.71336 37.4105 8.49536 37.9162C9.28072 38.4244 10.21 38.58 11.0993 38.3591L15.8458 37.2004V39.8587C15.8458 41.8402 17.393 43.4525 19.2944 43.4525H39.9859C41.8873 43.4525 43.4345 41.8402 43.4345 39.8587V25.4837C43.4345 23.7484 42.2477 22.2966 40.6756 21.9626ZM37.9167 21.1712C37.9329 20.2265 39.2802 20.2269 39.2962 21.1712V21.89H37.9167V21.1712ZM26.8813 19.7337H32.399C33.1594 19.7337 33.7784 20.3784 33.7784 21.1712V21.89H25.5018V21.1712C25.5018 20.3784 26.1208 19.7337 26.8813 19.7337ZM15.8458 35.7238L10.7821 36.9599C10.2473 37.0932 9.69225 36.9985 9.22279 36.6945C8.75265 36.3906 8.42328 35.9137 8.29598 35.3536L3.57776 14.3571C3.3003 13.2356 4.03093 12.0115 5.11951 11.7727L21.2329 7.83364C22.3092 7.54362 23.4909 8.3054 23.7196 9.4403L25.7719 18.5431C24.8024 18.9894 24.1224 19.9977 24.1224 21.1712V21.89H20.8545L20.752 21.4358C22.9302 19.4133 23.8611 16.3611 23.1868 13.3587L22.6911 11.1694C22.5665 10.6097 22.2398 10.1338 21.7717 9.8302C20.263 8.80081 18.2112 10.3272 18.664 12.1486C18.6639 12.1486 19.1536 14.3424 19.1536 14.3424C19.5692 16.1821 18.7185 18.0379 17.0845 18.8563L14.1666 20.3226C10.7733 22.0279 9.0032 25.8877 9.86333 29.7081L10.5113 32.5961C10.6359 33.1562 10.9626 33.6318 11.4307 33.9357C12.9183 34.9735 15.0104 33.4162 14.5445 31.6144C14.2686 30.1409 13.3697 27.7741 14.0582 26.3306L15.3676 32.1522C15.4226 32.3977 15.6049 32.6138 15.8458 32.6655L15.8458 35.7238ZM15.8458 25.4837V27.9796L15.0342 24.3712C14.9302 23.8289 14.2197 23.6279 13.8656 24.0368C12.6363 25.369 12.1433 27.2441 12.5468 29.0561L13.2015 31.9434C13.2925 32.3167 13.0453 32.7267 12.6815 32.8053C12.3228 32.8992 11.9313 32.6502 11.855 32.2701L11.2064 29.3803C10.4951 26.2204 11.9587 23.0281 14.7661 21.6176L17.6833 20.1517C19.9046 19.0392 21.0618 16.5148 20.4967 14.015L20.007 11.8222C19.8487 11.2246 20.5495 10.7014 21.0429 11.0505C21.1978 11.1508 21.3056 11.3084 21.3474 11.4965L21.8438 13.6875C22.4291 16.294 21.5515 18.9465 19.5537 20.6097C19.1466 20.9123 19.3405 21.4806 19.4376 21.89C17.4876 21.8107 15.8413 23.4461 15.8458 25.4837ZM42.055 39.8587C42.055 41.0478 41.1269 42.015 39.9859 42.015H19.2944C18.1534 42.015 17.2252 41.0478 17.2252 39.8587V25.4837C17.2252 24.2947 18.1534 23.3275 19.2944 23.3275H39.9859C41.1269 23.3275 42.055 24.2947 42.055 25.4837V39.8587Z" fill="white"/>
<path d="M29.6401 24.7649C25.4567 24.7649 22.0532 28.3116 22.0532 32.6711C22.4699 43.1599 36.8118 43.1568 37.227 32.6711C37.227 28.3116 33.8235 24.7649 29.6401 24.7649ZM29.6401 39.1399C26.2171 39.1399 23.4327 36.2379 23.4327 32.6711C23.7736 24.0894 35.5078 24.0919 35.8475 32.6712C35.8475 36.2379 33.0631 39.1399 29.6401 39.1399Z" fill="white"/>
<path d="M29.64 27.64C28.7342 27.6564 28.7325 29.061 29.64 29.0775C31.5414 29.0775 33.0885 30.6898 33.0885 32.6712C33.0885 33.0682 33.397 33.39 33.7783 33.39C34.1595 33.39 34.468 33.0682 34.468 32.6712C34.468 29.897 32.3018 27.64 29.64 27.64ZM11.0991 6.38423C11.3219 7.30359 12.6322 6.98173 12.4435 6.0606C12.4435 6.06065 11.7868 3.0958 11.7868 3.0958C11.5661 2.18162 10.2539 2.49428 10.4424 3.41939L11.0991 6.38423ZM14.834 6.52742C15.1523 6.73562 15.5812 6.63832 15.7843 6.2986L16.8782 4.47435C17.0802 4.13778 16.9819 3.69453 16.6593 3.48396C16.336 3.27303 15.9103 3.37587 15.7089 3.71278L14.6151 5.53703C14.413 5.87359 14.5113 6.31685 14.834 6.52742ZM6.44488 6.98436L8.19611 8.1246C8.96913 8.61124 9.68958 7.42156 8.92755 6.90535C8.92759 6.90539 7.17636 5.76516 7.17636 5.76516C6.39954 5.27751 5.68478 6.47039 6.44488 6.98436Z" fill="white"/>
</svg>
