<svg width="49" height="46" viewBox="0 0 49 46" fill="none" xmlns="http://www.w3.org/2000/svg">
<g clip-path="url(#clip0_107_728)">
<path d="M35.7773 46H3.0773C1.9223 46 0.977295 45.0944 0.977295 43.9803V8.96282C0.977295 7.85594 1.9223 6.95032 3.0773 6.95032H8.5748C8.9798 6.95032 9.30229 7.25938 9.30229 7.64751C9.30229 8.03563 8.9798 8.34469 8.5748 8.34469H3.0773C2.7173 8.34469 2.43229 8.625 2.43229 8.96282V43.9803C2.43229 44.3253 2.7248 44.6056 3.0773 44.6056H35.7848C36.1448 44.6056 36.4373 44.3253 36.4373 43.9803V27.7653C36.4373 27.3772 36.7598 27.0681 37.1648 27.0681C37.5698 27.0681 37.8923 27.3772 37.8923 27.7653V43.9803C37.8923 45.0944 36.9473 46 35.7773 46ZM37.1648 24.7681C36.7598 24.7681 36.4373 24.4591 36.4373 24.0709V8.96282C36.4373 8.61782 36.1448 8.34469 35.7848 8.34469H30.2873C29.8823 8.34469 29.5598 8.03563 29.5598 7.64751C29.5598 7.25938 29.8823 6.95032 30.2873 6.95032H35.7848C36.9473 6.95032 37.8923 7.85594 37.8923 8.96282V24.0709C37.8923 24.4591 37.5623 24.7681 37.1648 24.7681Z" fill="white"/>
<path d="M30.3474 10.695H8.52242C8.11742 10.695 7.79492 10.3859 7.79492 9.99781V8.28719C7.79492 5.75719 9.93992 3.70156 12.5799 3.70156H14.9049C15.2499 1.60281 17.1474 0 19.4274 0C21.7074 0 23.6124 1.60281 23.9574 3.70156H26.2824C28.9224 3.70156 31.0674 5.75719 31.0674 8.28719V9.99781C31.0749 10.3859 30.7449 10.695 30.3474 10.695ZM9.24242 9.30063H29.6124V8.28719C29.6124 6.52625 28.1199 5.09594 26.2824 5.09594H23.2899C22.8849 5.09594 22.5624 4.78688 22.5624 4.39875C22.5624 2.74563 21.1599 1.39438 19.4274 1.39438C17.7024 1.39438 16.2924 2.73844 16.2924 4.39875C16.2924 4.78688 15.9699 5.09594 15.5649 5.09594H12.5724C10.7349 5.09594 9.24242 6.52625 9.24242 8.28719V9.30063Z" fill="white"/>
<path d="M19.4272 6.92159C18.1147 6.92159 17.0422 5.89378 17.0422 4.63597C17.0422 3.37815 18.1147 2.35034 19.4272 2.35034C20.7397 2.35034 21.8122 3.37815 21.8122 4.63597C21.8122 5.89378 20.7472 6.92159 19.4272 6.92159ZM19.4272 3.74472C18.9172 3.74472 18.4972 4.14722 18.4972 4.63597C18.4972 5.12472 18.9172 5.52722 19.4272 5.52722C19.9372 5.52722 20.3572 5.12472 20.3572 4.63597C20.3572 4.14722 19.9447 3.74472 19.4272 3.74472Z" fill="white"/>
<path d="M13.7649 21.6272H7.37485C6.56485 21.6272 5.91235 20.9947 5.91235 20.2256V14.1019C5.91235 13.3256 6.57235 12.7003 7.37485 12.7003H13.7649C14.5749 12.7003 15.2274 13.3328 15.2274 14.1019V20.2256C15.2349 20.9947 14.5749 21.6272 13.7649 21.6272ZM7.37485 14.0875L7.36735 20.2256L13.7724 20.2328C13.7799 20.2328 13.7799 20.2256 13.7799 20.2256V14.1019L7.37485 14.0875Z" fill="white"/>
<path d="M9.81981 18.9462C9.63231 18.9462 9.44481 18.8815 9.30231 18.745L8.11731 17.6093C7.83231 17.3362 7.83231 16.8978 8.11731 16.6246C8.40231 16.3515 8.85981 16.3515 9.14481 16.6246L9.81981 17.2715L11.9948 15.1871C12.2798 14.914 12.7373 14.914 13.0223 15.1871C13.3073 15.4603 13.3073 15.8987 13.0223 16.1718L10.3298 18.7521C10.1873 18.8743 10.0073 18.9462 9.81981 18.9462Z" fill="white"/>
<path d="M32.2298 15.8413H17.9948C17.5898 15.8413 17.2673 15.5322 17.2673 15.1441C17.2673 14.756 17.5898 14.4469 17.9948 14.4469H32.2298C32.6348 14.4469 32.9573 14.756 32.9573 15.1441C32.9573 15.5322 32.6273 15.8413 32.2298 15.8413ZM32.2298 19.8735H17.9948C17.5898 19.8735 17.2673 19.5644 17.2673 19.1763C17.2673 18.7881 17.5898 18.4791 17.9948 18.4791H32.2298C32.6348 18.4791 32.9573 18.7881 32.9573 19.1763C32.9573 19.5644 32.6273 19.8735 32.2298 19.8735Z" fill="white"/>
<path d="M13.7649 32.1066H7.37485C6.56485 32.1066 5.91235 31.4741 5.91235 30.705V24.5813C5.91235 23.805 6.57235 23.1797 7.37485 23.1797H13.7649C14.5749 23.1797 15.2274 23.8122 15.2274 24.5813V30.705C15.2349 31.4813 14.5749 32.1066 13.7649 32.1066ZM7.37485 24.5669L7.36735 30.705L13.7724 30.7122C13.7799 30.7122 13.7799 30.705 13.7799 30.705V24.5813L7.37485 24.5669Z" fill="white"/>
<path d="M9.81981 29.4256C9.63231 29.4256 9.44481 29.3609 9.30231 29.2243L8.11731 28.0887C7.83231 27.8156 7.83231 27.3771 8.11731 27.104C8.40231 26.8309 8.85981 26.8309 9.14481 27.104L9.81981 27.7509L11.9948 25.6665C12.2798 25.3934 12.7373 25.3934 13.0223 25.6665C13.3073 25.9396 13.3073 26.3781 13.0223 26.6512L10.3298 29.2315C10.1873 29.3609 10.0073 29.4256 9.81981 29.4256Z" fill="white"/>
<path d="M32.2298 26.3278H17.9948C17.5898 26.3278 17.2673 26.0188 17.2673 25.6307C17.2673 25.2425 17.5898 24.9335 17.9948 24.9335H32.2298C32.6348 24.9335 32.9573 25.2425 32.9573 25.6307C32.9573 26.0188 32.6273 26.3278 32.2298 26.3278ZM28.5098 30.3528H17.9948C17.5898 30.3528 17.2673 30.0438 17.2673 29.6557C17.2673 29.2675 17.5898 28.9585 17.9948 28.9585H28.5023C28.9073 28.9585 29.2298 29.2675 29.2298 29.6557C29.2298 30.0438 28.9073 30.3528 28.5098 30.3528Z" fill="white"/>
<path d="M13.7649 42.5931H7.37485C6.56485 42.5931 5.91235 41.9606 5.91235 41.1916V35.0678C5.91235 34.2916 6.57235 33.6663 7.37485 33.6663H13.7649C14.5749 33.6663 15.2274 34.2988 15.2274 35.0678V41.1916C15.2349 41.9606 14.5749 42.5931 13.7649 42.5931ZM7.37485 35.0534L7.36735 41.1844L13.7724 41.1916C13.7799 41.1916 13.7799 41.1844 13.7799 41.1844V35.0606L7.37485 35.0534Z" fill="white"/>
<path d="M9.81981 39.9121C9.63231 39.9121 9.44481 39.8475 9.30231 39.7109L8.11731 38.5753C7.83231 38.3021 7.83231 37.8637 8.11731 37.5906C8.40231 37.3175 8.85981 37.3175 9.14481 37.5906L9.81981 38.2375L11.9948 36.1531C12.2798 35.88 12.7373 35.88 13.0223 36.1531C13.3073 36.4262 13.3073 36.8646 13.0223 37.1378L10.3298 39.7181C10.1873 39.8403 10.0073 39.9121 9.81981 39.9121Z" fill="white"/>
<path d="M25.8173 36.8072H17.9948C17.5898 36.8072 17.2673 36.4982 17.2673 36.11C17.2673 35.7219 17.5898 35.4128 17.9948 35.4128H25.8173C26.2223 35.4128 26.5448 35.7219 26.5448 36.11C26.5448 36.4982 26.2223 36.8072 25.8173 36.8072ZM32.2298 40.8322H17.9948C17.5898 40.8322 17.2673 40.5232 17.2673 40.135C17.2673 39.7469 17.5898 39.4378 17.9948 39.4378H32.2298C32.6348 39.4378 32.9573 39.7469 32.9573 40.135C32.9573 40.5232 32.6273 40.8322 32.2298 40.8322Z" fill="white"/>
<path d="M30.6772 34.4856C30.3772 34.4856 30.0772 34.3778 29.8447 34.1622L28.7122 33.0625C28.4872 32.854 28.3672 32.5665 28.3672 32.2647C28.3672 31.9556 28.4947 31.6753 28.7272 31.4597L34.8622 25.5587C35.1472 25.2856 35.6047 25.2856 35.8897 25.5587C36.1747 25.8319 36.1747 26.2703 35.8897 26.5434L29.9347 32.2647L30.6772 32.9834L36.6247 27.2693C36.9097 26.9962 37.3672 26.9962 37.6522 27.2693C37.9372 27.5425 37.9372 27.9809 37.6522 28.254L31.5097 34.155C31.2772 34.3706 30.9772 34.4856 30.6772 34.4856Z" fill="#245960"/>
<path d="M37.2998 28.5991C37.1123 28.5991 36.9248 28.5344 36.7823 28.3978L34.7198 26.4212C34.5848 26.2919 34.5098 26.1122 34.5098 25.9253C34.5098 25.7384 34.5848 25.5659 34.7198 25.4294L43.8398 16.675C44.0573 16.4666 44.3723 16.3731 44.6573 16.3516C44.9648 16.3516 45.2573 16.4666 45.4748 16.675L46.9298 18.0622C47.3798 18.4934 47.3798 19.205 46.9298 19.6363L37.8173 28.3906C37.6748 28.5272 37.4873 28.5991 37.2998 28.5991ZM36.2648 25.9253L37.2998 26.9172L45.6923 18.8528L44.6573 17.8609L36.2648 25.9253ZM27.7823 35.7291C27.5948 35.7291 27.4073 35.6572 27.2648 35.5278C27.0323 35.305 26.9873 34.9672 27.1448 34.6941L28.5848 32.2288C28.7798 31.8909 29.2298 31.7759 29.5748 31.9628C29.9273 32.1497 30.0473 32.5738 29.8523 32.9116L29.6723 33.2206L29.9948 33.0481C30.3473 32.8613 30.7898 32.9834 30.9848 33.3141C31.1798 33.6519 31.0523 34.0759 30.7073 34.2628L28.1348 35.6356C28.0298 35.7003 27.9023 35.7291 27.7823 35.7291Z" fill="#245960"/>
<path d="M41.2747 28.1391C41.0872 28.1391 40.8997 28.0744 40.7572 27.9379C40.4722 27.6647 40.4722 27.2263 40.7572 26.9532L45.4672 22.4394L42.1597 19.2697C41.8747 18.9966 41.8747 18.5582 42.1597 18.285C42.4447 18.0119 42.9022 18.0119 43.1872 18.285L47.0047 21.9435C47.2897 22.2166 47.2897 22.655 47.0047 22.9282L41.7847 27.9379C41.6497 28.0672 41.4622 28.1391 41.2747 28.1391Z" fill="#245960"/>
</g>
<defs>
<clipPath id="clip0_107_728">
<rect width="48" height="46" fill="white" transform="translate(0.122314)"/>
</clipPath>
</defs>
</svg>
