<svg width="25" height="23" viewBox="0 0 25 23" fill="none" xmlns="http://www.w3.org/2000/svg">
<g clip-path="url(#clip0_257_4397)">
<path d="M18.5953 14.0068C18.5816 13.9178 18.5015 13.8062 18.4156 13.7312C18.1695 13.515 17.6285 13.4016 16.8043 13.3912C16.2457 13.386 15.5738 13.4295 14.8668 13.5185C14.5504 13.3563 14.2242 13.1784 13.9683 12.9639C13.2789 12.3902 12.7047 11.5933 12.3453 10.7161C12.3687 10.6341 12.3883 10.5626 12.4078 10.4894C12.4078 10.4894 12.7945 8.52232 12.6929 7.85617C12.6793 7.76549 12.6695 7.73933 12.6422 7.66783L12.609 7.5911C12.5035 7.37312 12.2965 7.14293 11.9722 7.15513L11.7808 7.1499H11.7769C11.4136 7.1499 11.1207 7.31557 11.0426 7.56145C10.8082 8.33573 11.0504 9.4954 11.4898 10.9951L11.3765 11.2393C11.0621 11.9263 10.6676 12.6169 10.3199 13.2255L10.275 13.304C9.90779 13.944 9.57576 14.4881 9.27302 14.9485L8.96248 15.0949C8.93904 15.1054 8.40584 15.3583 8.28084 15.4245C7.22029 15.9913 6.51716 16.633 6.39998 17.1422C6.36287 17.3062 6.39021 17.5137 6.57966 17.6096L6.88044 17.7456C7.0113 17.8032 7.14998 17.8328 7.2906 17.8328C8.04646 17.8328 8.92341 16.9923 10.1324 15.1089C11.5269 14.7043 13.1168 14.366 14.5094 14.1812C15.5699 14.713 16.8746 15.0845 17.6988 15.0845C17.8453 15.0845 17.9722 15.0723 18.0738 15.0479C18.232 15.0095 18.3648 14.9293 18.4468 14.8211C18.607 14.6067 18.6383 14.3102 18.5953 14.0068ZM7.12654 17.3218C7.26326 16.9853 7.81013 16.3191 8.61677 15.7297C8.66755 15.6931 8.79255 15.5884 8.90583 15.4908C8.06208 16.6923 7.49763 17.1701 7.12654 17.3218ZM11.9039 7.49867C12.1461 7.49867 12.2847 8.0445 12.2965 8.5572C12.3082 9.06989 12.1734 9.42913 12.0074 9.69594C11.8687 9.30183 11.8023 8.68101 11.8023 8.27469C11.8023 8.27469 11.7926 7.49867 11.9039 7.49867ZM10.4781 14.4985C10.648 14.2282 10.8238 13.9422 11.0035 13.6406C11.4429 12.8994 11.7203 12.3205 11.9254 11.8444C12.3355 12.5105 12.8472 13.0773 13.4469 13.5307C13.523 13.5865 13.6031 13.644 13.6851 13.7016C12.4644 13.9161 11.4078 14.1794 10.4781 14.4985ZM18.1793 14.4375C18.1051 14.4776 17.8922 14.502 17.7554 14.502C17.314 14.502 16.7652 14.3224 15.9976 14.0277C16.2926 14.0085 16.564 13.998 16.8062 13.998C17.2496 13.998 17.3804 13.9963 17.816 14.0957C18.2496 14.1951 18.2554 14.3956 18.1793 14.4375Z" fill="#FF402F"/>
<path d="M20.3125 13.9507C17.7236 13.9507 15.625 15.8245 15.625 18.136C15.625 20.4474 17.7236 22.3212 20.3125 22.3212C22.9014 22.3212 25 20.4474 25 18.136C25 15.8245 22.9014 13.9507 20.3125 13.9507ZM22.4379 16.9132L22.4158 16.9438L20.808 18.9385C20.701 19.0895 20.5135 19.1823 20.3125 19.1823C20.1115 19.1823 19.924 19.0895 19.8172 18.9387L18.1871 16.9133C18.1364 16.8337 18.1099 16.7436 18.1102 16.652C18.1106 16.5604 18.1377 16.4705 18.1891 16.3912C18.2408 16.3121 18.3148 16.2464 18.4037 16.2006C18.4927 16.1549 18.5935 16.1308 18.6961 16.1307H19.5312V14.997C19.5312 14.7086 19.7941 14.4738 20.1172 14.4738H20.5078C20.8309 14.4738 21.0938 14.7086 21.0938 14.997V16.1305H21.9289C22.1369 16.1305 22.3314 16.2303 22.4359 16.391C22.4873 16.4704 22.5144 16.5603 22.5148 16.6519C22.5151 16.7435 22.4886 16.8335 22.4379 16.9132Z" fill="#FF402F"/>
<path d="M16.4063 21.9639L16.3965 21.9726H16.4063V21.9639ZM22.2656 13.4277V13.4189L22.2559 13.4277H22.2656Z" fill="#FF9A30"/>
<path d="M21.6936 7.71523L14.015 0.859415C13.8341 0.697007 13.6189 0.568241 13.3819 0.480568C13.1449 0.392894 12.8907 0.348053 12.6342 0.348638H4.6875C3.61055 0.348638 2.73438 1.13093 2.73438 2.0925V20.2287C2.73438 21.1902 3.61055 21.9725 4.6875 21.9725H16.3965L15.6152 21.275H4.6875C4.04121 21.275 3.51562 20.8057 3.51562 20.2287V2.0925C3.51562 1.51546 4.04121 1.04618 4.6875 1.04618H12.6342C12.9473 1.04618 13.2414 1.155 13.4627 1.35258L21.1412 8.2084C21.3601 8.40508 21.4834 8.67086 21.4844 8.94814V12.7213L22.2656 13.4189V8.94814C22.2656 8.48253 22.0625 8.04465 21.6936 7.71523Z" fill="url(#paint0_linear_257_4397)"/>
<path d="M22.2559 13.4279L22.2656 13.4192L21.4844 12.7217" fill="white"/>
</g>
<defs>
<linearGradient id="paint0_linear_257_4397" x1="2.73437" y1="0.348633" x2="20.2292" y2="21.0479" gradientUnits="userSpaceOnUse">
<stop stop-color="#F9DBCE"/>
<stop stop-color="#BF8931"/>
<stop offset="1" stop-color="#F5D789"/>
</linearGradient>
<clipPath id="clip0_257_4397">
<rect width="25" height="22.3214" fill="white"/>
</clipPath>
</defs>
</svg>
