<svg width="14" height="13" viewBox="0 0 14 13" fill="none" xmlns="http://www.w3.org/2000/svg">
<path d="M13.7437 3.26453L10.4852 0.23895C10.4039 0.163211 10.3073 0.103116 10.2009 0.0621118C10.0946 0.0211074 9.98056 0 9.8654 0C9.75024 0 9.63621 0.0211074 9.52986 0.0621118C9.4235 0.103116 9.32691 0.163211 9.24562 0.23895L0.255931 8.58789C0.0920614 8.74022 1.08235e-05 8.94671 0 9.162V12.1876C0 12.403 0.092185 12.6097 0.256276 12.762C0.420366 12.9144 0.642921 13 0.87498 13H13.1247C13.2021 13 13.2762 12.9715 13.3309 12.9207C13.3856 12.8699 13.4164 12.801 13.4164 12.7292C13.4164 12.6574 13.3856 12.5885 13.3309 12.5377C13.2762 12.4869 13.2021 12.4584 13.1247 12.4584H5.07926L13.7437 4.41342C13.9078 4.26107 14 4.05443 14 3.83897C14 3.62352 13.9078 3.41688 13.7437 3.26453ZM2.74598 10.8336L9.33312 4.7174L10.9628 6.22985L4.3749 12.346L2.74598 10.8336ZM2.33328 10.4504L0.704359 8.93791L7.2915 2.82176L8.92115 4.33421L2.33328 10.4504ZM0.58332 12.1876V9.59191L2.12693 11.0251L3.67054 12.4584H0.87498C0.797627 12.4584 0.723442 12.4299 0.668745 12.3791C0.614048 12.3283 0.58332 12.2594 0.58332 12.1876ZM13.331 4.03023L11.3747 5.84666L7.7042 2.43857L9.66051 0.62214C9.68759 0.596961 9.71976 0.576987 9.75517 0.563359C9.79057 0.549731 9.82853 0.542716 9.86686 0.542716C9.90518 0.542716 9.94314 0.549731 9.97854 0.563359C10.014 0.576987 10.0461 0.596961 10.0732 0.62214L13.331 3.64772C13.3856 3.69849 13.4162 3.76727 13.4162 3.83897C13.4162 3.91068 13.3856 3.97946 13.331 4.03023Z" fill="#249689"/>
</svg>
