<svg width="45" height="46" viewBox="0 0 45 46" fill="none" xmlns="http://www.w3.org/2000/svg">
<g clip-path="url(#clip0_107_802)">
<path d="M41.1916 17.4769V16.3916C41.1904 15.4561 40.8946 14.5468 40.3496 13.8033C39.8047 13.0597 39.0408 12.523 38.175 12.2755V10.1331C38.5765 9.81964 38.9023 9.41303 39.1268 8.9455C39.3513 8.47797 39.4682 7.96238 39.4682 7.4396V3.48648C39.4672 2.59323 39.1263 1.73686 38.5202 1.10524C37.9141 0.473617 37.0923 0.118335 36.2352 0.117336H31.6658C31.4943 0.117336 31.3298 0.188328 31.2086 0.314696C31.0873 0.441063 31.0192 0.612454 31.0192 0.791164V7.4396C31.0192 7.96238 31.1361 8.47797 31.3606 8.9455C31.585 9.41303 31.9109 9.81964 32.3124 10.1331V12.6394C32.1066 12.7744 31.9159 12.9329 31.7439 13.1121L27.6091 17.4249H23.2316C22.9504 17.4249 22.6704 17.461 22.3977 17.5326V17.2907C22.3996 16.5748 22.1818 15.8771 21.7761 15.2994C21.3705 14.7217 20.7982 14.2942 20.143 14.0794L17.0291 13.0494C16.8981 13.0064 16.7837 12.9209 16.7026 12.8054C16.6214 12.6898 16.5779 12.5503 16.5782 12.4072V11.0112C16.9867 10.598 17.3114 10.1036 17.533 9.55723C17.7546 9.01087 17.8687 8.42369 17.8685 7.83051V1.1252C17.8682 0.826875 17.7543 0.540868 17.5519 0.329927C17.3494 0.118985 17.075 0.000332876 16.7887 0H12.1517C11.406 0.000879835 10.6912 0.30996 10.1639 0.859434C9.6366 1.40891 9.34 2.1539 9.33916 2.93097V7.83042C9.33894 8.4236 9.45304 9.01078 9.67468 9.55714C9.89632 10.1035 10.221 10.5979 10.6294 11.0111V12.4071C10.6298 12.5502 10.5862 12.6898 10.5051 12.8053C10.424 12.9208 10.3095 13.0063 10.1785 13.0493L7.06482 14.0794C6.40953 14.2942 5.83729 14.7216 5.43163 15.2993C5.02597 15.8771 4.80815 16.5748 4.80996 17.2906V20.3124H1.23206C1.06057 20.3124 0.896099 20.3834 0.774837 20.5098C0.653574 20.6361 0.585449 20.8075 0.585449 20.9862L0.585449 22.4981C0.585946 22.916 0.710509 23.3235 0.942046 23.6647C1.17358 24.0058 1.50075 24.264 1.87867 24.4037V44.6074C1.87906 44.9766 2.01997 45.3306 2.2705 45.5917C2.52102 45.8527 2.8607 45.9996 3.21499 46H5.11171C5.24742 46 5.37969 45.9555 5.48978 45.8728C5.59987 45.7901 5.68221 45.6734 5.72513 45.5393L6.72358 42.4177C6.76639 42.2835 6.84871 42.1667 6.95885 42.084C7.06898 42.0013 7.20133 41.9569 7.33708 41.957H23.5779C23.7137 41.9569 23.846 42.0013 23.9561 42.084C24.0662 42.1667 24.1485 42.2835 24.1913 42.4177L25.1897 45.5393C25.2326 45.6735 25.315 45.7902 25.4251 45.8728C25.5352 45.9555 25.6675 46 25.8032 46H27.6999C28.0542 45.9996 28.3939 45.8527 28.6444 45.5917C28.8949 45.3306 29.0359 44.9766 29.0362 44.6074V32.2491H33.6998L35.3351 45.5292C35.3551 45.6918 35.4312 45.8411 35.5493 45.9494C35.6673 46.0576 35.8192 46.1173 35.9764 46.1173H38.9077C38.9994 46.1173 39.0901 46.097 39.1737 46.0577C39.2573 46.0184 39.3319 45.9609 39.3926 45.8893C39.4533 45.8176 39.4986 45.7333 39.5256 45.642C39.5526 45.5506 39.5607 45.4543 39.5492 45.3595L37.9682 32.2491H38.9078C40.4507 32.2472 41.9299 31.6077 43.0209 30.4708C44.1119 29.3339 44.7256 27.7924 44.7273 26.1846V21.7823C44.726 20.7436 44.3693 19.7394 43.7212 18.9503C43.0731 18.1611 42.1762 17.6387 41.1916 17.4769ZM32.3124 1.46499H36.2352C36.7495 1.46559 37.2425 1.67875 37.6062 2.05773C37.9699 2.4367 38.1744 2.95053 38.175 3.48648V4.08933L38.1714 4.09166C37.7034 4.40575 37.1534 4.56098 36.5973 4.53599C36.0411 4.51101 35.5061 4.30703 35.0657 3.95214L32.3358 1.7471C32.3282 1.74099 32.3202 1.73587 32.3124 1.73012V1.46499ZM32.3124 3.43329L34.2735 5.01723C34.8199 5.45777 35.4668 5.74278 36.1508 5.84436C36.8347 5.94593 37.5322 5.86057 38.175 5.59664V7.4396C38.1744 7.97555 37.9699 8.48938 37.6062 8.86835C37.2425 9.24732 36.7495 9.46049 36.2352 9.46109H34.2522C33.7379 9.46049 33.2449 9.24732 32.8812 8.86835C32.5175 8.48938 32.313 7.97555 32.3124 7.4396V3.43329ZM36.8818 10.7409V12.1241H34.0311C33.8888 12.1244 33.7467 12.1343 33.6056 12.1538V10.7408C33.8184 10.786 34.0351 10.8087 34.2522 10.8087H36.2352C36.4523 10.8087 36.669 10.7861 36.8818 10.7409ZM32.6587 14.0645C32.8385 13.876 33.0523 13.7265 33.2879 13.6248C33.5235 13.5231 33.7761 13.4711 34.0311 13.4718H37.0964C37.8392 13.4727 38.5514 13.7806 39.0767 14.328C39.602 14.8754 39.8975 15.6176 39.8983 16.3917V25.1964C39.8978 25.7324 39.6932 26.2462 39.3295 26.6252C38.9659 27.0041 38.4728 27.2173 37.9585 27.2179H29.0362V24.4037C29.4142 24.264 29.7413 24.0058 29.9729 23.6647C30.2044 23.3235 30.329 22.916 30.3295 22.4981V21.3035C30.4373 21.2275 30.538 21.1409 30.6301 21.045L33.7643 17.7807C33.8847 17.6542 33.9521 17.4831 33.9518 17.3049C33.9515 17.1267 33.8834 16.9559 33.7626 16.8299C33.6417 16.7038 33.4778 16.6328 33.3068 16.6323C33.1358 16.6319 32.9716 16.7021 32.8501 16.8275L31.8297 17.8903L30.466 16.3516L32.6587 14.0645ZM23.2316 18.7725H27.8771C27.9621 18.7725 28.0462 18.7551 28.1247 18.7212C28.2032 18.6873 28.2745 18.6376 28.3345 18.5749L29.5512 17.3058L30.9143 18.8437L29.7159 20.0918C29.5931 20.2203 29.4302 20.2985 29.2567 20.3124H21.206C21.3441 19.8656 21.6145 19.4758 21.9785 19.1991C22.3424 18.9225 22.7811 18.7731 23.2316 18.7725ZM10.6324 2.93097C10.6328 2.5112 10.7931 2.10875 11.0779 1.81192C11.3627 1.5151 11.7489 1.34813 12.1517 1.34766H16.5754V4.7238C16.0353 4.92186 15.4549 4.96955 14.8917 4.86216C14.574 4.78935 14.2684 4.66763 13.9851 4.50099C13.6085 4.28403 13.2031 4.12658 12.782 4.0338C12.064 3.89799 11.3247 3.95274 10.6324 4.19301V2.93097ZM10.6324 5.62323C11.3238 5.32881 11.9615 5.23879 12.5319 5.35604C12.8364 5.42601 13.129 5.54299 13.4003 5.7031C13.7878 5.92573 14.2046 6.0876 14.6374 6.1835C15.2796 6.31344 15.9414 6.29353 16.5753 6.12519V7.83042C16.5753 8.65168 16.2622 9.4393 15.705 10.02C15.1477 10.6007 14.3919 10.927 13.6038 10.927C12.8158 10.927 12.06 10.6007 11.5027 10.02C10.9454 9.4393 10.6324 8.65168 10.6324 7.83042V5.62323ZM15.6346 13.5657C14.3311 14.1081 12.8774 14.1073 11.5744 13.5636C11.8015 13.2244 11.9231 12.8207 11.9227 12.4071V11.9142C12.4538 12.152 13.0258 12.2747 13.6038 12.2747C14.1819 12.2747 14.7539 12.152 15.285 11.9142V12.4071C15.2846 12.8215 15.4066 13.2261 15.6346 13.5657ZM6.10318 17.2906C6.10208 16.8611 6.23276 16.4425 6.47615 16.0958C6.71953 15.7492 7.06288 15.4927 7.45606 15.3638L10.2968 14.4241C11.3075 15.0109 12.4451 15.3192 13.602 15.3197C13.6503 15.3197 13.6991 15.3192 13.7481 15.3181C14.8565 15.2927 15.9422 14.9858 16.911 14.4241L19.7516 15.3639C20.1448 15.4928 20.4881 15.7492 20.7315 16.0958C20.9749 16.4424 21.1056 16.861 21.1045 17.2905V18.201C20.4661 18.7296 20.0297 19.4783 19.8739 20.3123H18.5181V18.8054C18.5181 18.6267 18.4499 18.4553 18.3287 18.3289C18.2074 18.2025 18.043 18.1315 17.8715 18.1315C17.7 18.1315 17.5355 18.2025 17.4142 18.3289C17.293 18.4553 17.2249 18.6267 17.2249 18.8054V20.3123H9.98283V18.8054C9.98283 18.6267 9.91471 18.4553 9.79345 18.3289C9.67218 18.2025 9.50772 18.1315 9.33622 18.1315C9.16473 18.1315 9.00027 18.2025 8.879 18.3289C8.75774 18.4553 8.68962 18.6267 8.68962 18.8054V20.3123H6.10318V17.2906ZM27.743 44.6074C27.743 44.6193 27.7385 44.6308 27.7304 44.6392C27.7223 44.6476 27.7114 44.6523 27.6999 44.6523H26.2693L25.4182 41.9915C25.2897 41.5888 25.0428 41.2386 24.7124 40.9904C24.382 40.7423 23.9851 40.609 23.5778 40.6094H7.33708C6.92985 40.609 6.53285 40.7423 6.20248 40.9905C5.87211 41.2386 5.62518 41.5889 5.49675 41.9916L4.64564 44.6523H3.21499C3.20356 44.6523 3.1926 44.6476 3.18451 44.6392C3.17643 44.6308 3.17189 44.6193 3.17189 44.6074V24.5196H27.743V44.6074ZM28.3896 23.172H2.52528C2.35384 23.1718 2.18948 23.1007 2.06826 22.9744C1.94703 22.8481 1.87885 22.6768 1.87867 22.4981V21.6601H20.4012C20.4199 21.6618 20.4388 21.663 20.4579 21.663H29.0362V22.4981C29.0361 22.6768 28.9679 22.8481 28.8467 22.9744C28.7254 23.1007 28.5611 23.1718 28.3896 23.172ZM38.1749 44.7697H36.5454L35.0037 32.2491H36.6649L38.1749 44.7697ZM43.4341 26.1846C43.4327 27.4351 42.9554 28.634 42.1068 29.5183C41.2583 30.4026 40.1078 30.9 38.9078 30.9014H29.0362V28.5655H37.9586C38.8157 28.5645 39.6375 28.2092 40.2436 27.5776C40.8497 26.9459 41.1907 26.0896 41.1916 25.1963V18.8493C41.8284 19.0024 42.3966 19.3756 42.8038 19.9082C43.211 20.4407 43.4331 21.1013 43.4341 21.7823V26.1846Z" fill="white"/>
</g>
<defs>
<clipPath id="clip0_107_802">
<rect width="44.1418" height="46" fill="white" transform="translate(0.585449)"/>
</clipPath>
</defs>
</svg>
