<svg width="43" height="40" viewBox="0 0 43 40" fill="none" xmlns="http://www.w3.org/2000/svg">
<ellipse cx="21.5" cy="20.0193" rx="21.5" ry="19.739" fill="#E8F3F1"/>
<g clip-path="url(#clip0_83_938)">
<path fill-rule="evenodd" clip-rule="evenodd" d="M21.4988 29.8569C21.2099 29.8575 20.9238 29.8047 20.6569 29.7013C20.3901 29.5979 20.1478 29.4461 19.9441 29.2546C19.5472 28.8865 19.3179 28.3894 19.304 27.8669C18.6306 27.6949 17.9832 27.4438 17.3774 27.1196C16.5428 27.8555 15.1338 27.8422 14.3154 27.0791C14.1115 26.8883 13.9498 26.6619 13.8395 26.4127C13.7292 26.1635 13.6725 25.8965 13.6726 25.6268C13.6726 25.0986 13.8839 24.5989 14.2707 24.2164C13.9241 23.6498 13.655 23.0446 13.47 22.4152C12.8992 22.3992 12.3575 22.1761 11.9596 21.793C11.5618 21.4099 11.3391 20.8971 11.3389 20.3632C11.3397 19.8294 11.5625 19.3168 11.9602 18.9339C12.3579 18.5509 12.8994 18.3276 13.47 18.3112C13.6536 17.6829 13.9212 17.0806 14.2694 16.51C13.8772 16.1212 13.6624 15.6048 13.6705 15.0704C13.6786 14.536 13.9089 14.0256 14.3127 13.6473C15.125 12.8842 16.5394 12.8702 17.3747 13.6055C17.9802 13.282 18.6271 13.0313 19.2999 12.8595C19.3171 12.3257 19.5558 11.8192 19.9655 11.4471C20.3751 11.075 20.9236 10.8665 21.4947 10.8657C22.0661 10.8661 22.6149 11.0745 23.0249 11.4466C23.4348 11.8188 23.6737 12.3255 23.6909 12.8595C24.3643 13.0311 25.0085 13.2813 25.6148 13.6055C26.4521 12.8671 27.8611 12.8816 28.6788 13.6461C29.0826 14.0244 29.3128 14.5351 29.3206 15.0696C29.3283 15.604 29.1129 16.1203 28.7201 16.5087C29.0683 17.0775 29.3352 17.6804 29.5208 18.3087C30.092 18.3243 30.6342 18.5473 31.0326 18.9303C31.4309 19.3134 31.654 19.8264 31.6547 20.3607C31.6547 20.9072 31.4271 21.4234 31.0118 21.8104C30.6167 22.1835 30.0823 22.3989 29.5208 22.4114C29.3379 23.0397 29.071 23.642 28.7228 24.2113C29.1149 24.6002 29.3298 25.1165 29.3219 25.6509C29.3141 26.1853 29.0842 26.6959 28.6808 27.0746C27.8672 27.8365 26.4487 27.8517 25.6202 27.1152C25.0105 27.4407 24.3656 27.6915 23.695 27.8625C23.6776 28.3965 23.4387 28.9032 23.0288 29.2754C22.6189 29.6476 22.0702 29.8561 21.4988 29.8569ZM17.2846 26.3292C17.351 26.3292 17.418 26.3463 17.4776 26.3811C18.1892 26.7993 18.9711 27.1025 19.7904 27.2779C19.9733 27.3172 20.0945 27.4793 20.0708 27.6516C20.0694 27.6687 20.0444 27.7707 20.0403 27.7878C20.0337 27.9701 20.0675 28.1517 20.1397 28.3212C20.2119 28.4907 20.3208 28.6444 20.4596 28.7726C20.736 29.0335 21.1052 29.176 21.4981 29.176C21.887 29.1755 22.2598 29.031 22.5351 28.7742C22.8103 28.5174 22.9655 28.1691 22.9668 27.8055C22.948 27.7545 22.9347 27.7019 22.9268 27.6484C22.9159 27.565 22.9386 27.4809 22.9904 27.4123C23.0423 27.3437 23.1196 27.2955 23.2073 27.2773C24.026 27.1001 24.8072 26.7962 25.5186 26.378C25.595 26.3331 25.6865 26.3163 25.7754 26.3307C25.8643 26.345 25.9444 26.3896 26.0003 26.4559C26.0321 26.4945 26.0572 26.535 26.0795 26.5749C26.6513 27.1329 27.6091 27.1145 28.1633 26.5946C28.4378 26.3366 28.592 25.9876 28.592 25.6237C28.592 25.2598 28.4378 24.9107 28.1633 24.6528C28.1117 24.6288 28.0625 24.6006 28.0163 24.5685C27.9453 24.5167 27.8974 24.4421 27.8817 24.3592C27.8661 24.2763 27.8839 24.1909 27.9316 24.1195C28.3785 23.4542 28.7024 22.7232 28.8894 21.9573C28.9098 21.8752 28.9619 21.8031 29.0357 21.7547C29.1094 21.7063 29.1997 21.6851 29.2891 21.6951C29.3379 21.7014 29.3874 21.7109 29.4348 21.7249C29.89 21.7122 30.2179 21.59 30.4956 21.3303C30.772 21.0719 30.9244 20.728 30.9244 20.3619C30.9235 19.9979 30.7683 19.6491 30.4927 19.3919C30.2171 19.1348 29.8438 18.9903 29.4544 18.9901C29.4003 19.0044 29.3456 19.0168 29.2905 19.0275C29.2008 19.0398 29.1096 19.0196 29.0353 18.9711C28.961 18.9226 28.9093 18.8495 28.8908 18.7666C28.7004 18.0002 28.3754 17.2687 27.9289 16.6018C27.8813 16.5305 27.8635 16.4453 27.8789 16.3624C27.8942 16.2796 27.9417 16.205 28.0122 16.1528C28.0542 16.123 28.0982 16.0996 28.1416 16.0762C28.2813 15.9504 28.3928 15.7999 28.4695 15.6335C28.5463 15.467 28.5868 15.2879 28.5886 15.1066C28.5904 14.9253 28.5536 14.7455 28.4802 14.5777C28.4068 14.4099 28.2984 14.2574 28.1612 14.1293C27.6057 13.6074 26.6397 13.6112 26.0856 14.1306C26.0594 14.1798 26.0283 14.2267 25.9928 14.2705C25.9367 14.3357 25.857 14.3794 25.7688 14.3935C25.6806 14.4076 25.59 14.3911 25.5139 14.3472C24.8022 13.9294 24.021 13.6255 23.2025 13.4478C23.1146 13.43 23.037 13.3819 22.9851 13.3132C22.9332 13.2445 22.9107 13.1601 22.9221 13.0767C22.9275 13.0286 22.9404 12.9842 22.9525 12.938C22.9561 12.7571 22.9212 12.5773 22.8497 12.4091C22.7782 12.241 22.6717 12.0878 22.5363 11.9585C22.4008 11.8292 22.2392 11.7265 22.0609 11.6562C21.8825 11.5859 21.691 11.5495 21.4974 11.5491C21.1079 11.5489 20.7341 11.6933 20.4583 11.9505C20.1824 12.2077 20.027 12.5567 20.0261 12.9209C20.0471 12.9842 20.0606 13.0286 20.0661 13.0767C20.0766 13.16 20.0538 13.2441 20.0021 13.3126C19.9503 13.3811 19.8732 13.4293 19.7856 13.4478C18.9671 13.6255 18.1859 13.9294 17.4743 14.3472C17.3984 14.3918 17.3075 14.4087 17.2191 14.3946C17.1307 14.3804 17.051 14.3362 16.9953 14.2705C16.9641 14.2331 16.9367 14.193 16.9134 14.1508C16.3403 13.5954 15.3797 13.615 14.8283 14.1312C14.5531 14.3886 14.3985 14.7376 14.3985 15.1015C14.3985 15.4654 14.5531 15.8144 14.8283 16.0717C14.8933 16.104 14.9353 16.1275 14.9766 16.1585C15.0465 16.2108 15.0935 16.2853 15.1086 16.3678C15.1237 16.4503 15.1059 16.5352 15.0586 16.6063C14.6114 17.2716 14.2871 18.0025 14.0994 18.7685C14.0574 18.9395 13.8982 19.0465 13.6983 19.0307C13.6498 19.0227 13.6016 19.0128 13.554 19.0009C12.756 19.0123 12.0671 19.6095 12.0671 20.3651C12.0671 21.1207 12.7262 21.7382 13.5357 21.7382C13.5554 21.7318 13.68 21.7021 13.6983 21.6995C13.8982 21.6869 14.0553 21.792 14.098 21.9605C14.2878 22.727 14.6129 23.4586 15.0599 24.1252C15.107 24.196 15.1248 24.2805 15.11 24.3627C15.0951 24.4449 15.0487 24.5192 14.9793 24.5717C14.9383 24.601 14.8951 24.6275 14.8499 24.6509C14.7074 24.7762 14.594 24.9277 14.5168 25.0958C14.4397 25.2639 14.4004 25.4451 14.4015 25.6281C14.4015 25.9942 14.5553 26.3381 14.8316 26.5977C15.3871 27.1183 16.3531 27.1158 16.9059 26.5977C16.9404 26.5382 16.9655 26.4977 16.996 26.4603C17.0302 26.4193 17.074 26.3861 17.124 26.3634C17.174 26.3407 17.229 26.329 17.2846 26.3292ZM21.4947 17.2833C20.622 17.2846 19.7854 17.6095 19.1683 18.1866C18.5513 18.7637 18.2042 19.5459 18.2032 20.3619C18.2044 21.1778 18.5516 21.96 19.1685 22.5371C19.7855 23.1142 20.622 23.439 21.4947 23.4406C22.3677 23.4394 23.2045 23.1147 23.8218 22.5375C24.4391 21.9604 24.7864 21.1781 24.7877 20.3619C24.7864 19.5458 24.4391 18.7634 23.8218 18.1863C23.2045 17.6092 22.3677 17.2845 21.4947 17.2833ZM21.4947 24.1227C20.4284 24.1215 19.4061 23.7248 18.6523 23.0198C17.8984 22.3147 17.4745 21.3589 17.4736 20.3619C17.4747 19.365 17.8986 18.4093 18.6525 17.7042C19.4063 16.9992 20.4285 16.6025 21.4947 16.6012C22.5612 16.6022 23.5838 16.9987 24.3379 17.7038C25.092 18.4088 25.5162 19.3648 25.5173 20.3619C25.5165 21.3591 25.0925 22.3153 24.3383 23.0204C23.5841 23.7255 22.5614 24.122 21.4947 24.1227Z" fill="#249689"/>
</g>
<defs>
<clipPath id="clip0_83_938">
<rect width="21" height="19" fill="white" transform="translate(11 10.8657)"/>
</clipPath>
</defs>
</svg>
