<svg width="32" height="32" viewBox="0 0 32 32" fill="none" xmlns="http://www.w3.org/2000/svg">
<circle cx="16" cy="16" r="16" fill="#83B6B2"/>
<path d="M13.4883 21.2886C14.3127 22.4919 16.0626 22.4892 16.8852 21.2886H13.4883Z" fill="white"/>
<path d="M19.1365 16.8904C19.0202 16.7755 18.9371 16.6322 18.8946 16.4768C16.5877 16.975 14.4183 15.2283 14.4183 12.9153C14.4183 11.3397 15.4349 9.99443 16.8539 9.48643C15.6897 8.74953 14.148 8.83932 13.0682 9.82805C12.4907 10.3568 12.1304 11.0722 12.0532 11.8428C11.4829 16.5289 11.5085 16.3187 11.5077 16.3261C11.4868 16.5387 11.391 16.7392 11.238 16.8904L10.5032 17.6166C10.1787 17.9373 10 18.3638 10 18.8174C10 19.7537 10.7707 20.5154 11.718 20.5154H18.6563C19.6037 20.5154 20.3744 19.7537 20.3744 18.8174C20.3744 18.3638 20.1957 17.9373 19.8712 17.6166L19.1365 16.8904Z" fill="white"/>
<path d="M20.9999 12.9153C20.9999 11.1307 19.3445 9.76177 17.5601 10.0938C17.5609 10.0948 17.5617 10.0957 17.5601 10.0938C16.2179 10.3473 15.2002 11.5159 15.2002 12.9153C15.2002 14.765 16.9578 16.1465 18.7914 15.7071C18.7912 15.7049 18.7913 15.706 18.7914 15.7071C20.0581 15.4028 20.9999 14.2595 20.9999 12.9153ZM18.7061 13.9458C18.7061 14.1592 18.531 14.3322 18.3151 14.3322C18.0992 14.3322 17.9241 14.1592 17.9241 13.9458V12.2712H17.5566C17.3406 12.2712 17.1656 12.0982 17.1656 11.8847C17.1656 11.6713 17.3406 11.4983 17.5566 11.4983H18.3151C18.531 11.4983 18.7061 11.6713 18.7061 11.8847V13.9458Z" fill="white"/>
</svg>
