<svg width="24" height="24" viewBox="0 0 24 24" fill="none" xmlns="http://www.w3.org/2000/svg">
<path d="M19.9306 13.75V13.75C20.0209 14.022 20.0661 14.1581 20.0943 14.272C20.4811 15.8365 19.5628 17.427 18.0145 17.8743C17.9018 17.9068 17.7614 17.9357 17.4806 17.9935L16.9092 18.1111C16.6531 18.1638 16.5251 18.1902 16.4026 18.2265C15.949 18.3609 15.5335 18.6008 15.1903 18.9265C15.0976 19.0144 15.0108 19.1121 14.8371 19.3075V19.3075C14.2907 19.9222 14.0176 20.2295 13.7429 20.4257C12.6999 21.1704 11.2991 21.1704 10.2562 20.4257C9.98146 20.2295 9.7083 19.9222 9.16197 19.3075V19.3075C8.98828 19.1121 8.90144 19.0144 8.80877 18.9265C8.4655 18.6008 8.05007 18.3609 7.5964 18.2265C7.47393 18.1902 7.34589 18.1638 7.08981 18.1111V18.1111C6.28433 17.9453 5.88159 17.8624 5.57435 17.7226C4.40794 17.1918 3.70754 15.9786 3.83101 14.7031C3.86353 14.3671 3.99311 13.9768 4.25226 13.1964V13.1964C4.33465 12.9482 4.37585 12.8242 4.40565 12.7C4.51605 12.2399 4.51605 11.7601 4.40565 11.3C4.37585 11.1758 4.33465 11.0518 4.25226 10.8036V10.8036C3.99311 10.0232 3.86353 9.63294 3.83101 9.29695C3.70754 8.02139 4.40794 6.80824 5.57435 6.27739C5.88159 6.13756 6.28433 6.05466 7.08981 5.88886V5.88886C7.34589 5.83615 7.47393 5.8098 7.5964 5.7735C8.05007 5.63906 8.4655 5.39921 8.80877 5.07354C8.90144 4.98563 8.98828 4.88792 9.16197 4.6925V4.6925C9.7083 4.07783 9.98146 3.7705 10.2562 3.57434C11.2991 2.82963 12.6999 2.82963 13.7429 3.57434C14.0176 3.7705 14.2907 4.07783 14.8371 4.6925V4.6925C15.0108 4.88792 15.0976 4.98563 15.1903 5.07354C15.5335 5.39921 15.949 5.63906 16.4026 5.7735C16.5251 5.8098 16.6531 5.83615 16.9092 5.88886L17.7386 6.05958C17.7828 6.06868 17.8049 6.07323 17.8229 6.07717C19.549 6.45466 20.5767 8.23462 20.0405 9.91818C20.0349 9.93577 20.0278 9.95718 20.0136 10V10L19.9566 10.1717M14.4995 12C14.4995 13.3807 13.3802 14.5 11.9995 14.5C10.6188 14.5 9.49952 13.3807 9.49952 12C9.49952 10.6193 10.6188 9.5 11.9995 9.5C13.3802 9.5 14.4995 10.6193 14.4995 12Z" stroke="#BBB8B5" stroke-width="1.5" stroke-linecap="round"/>
</svg>
