<svg width="23" height="26" viewBox="0 0 23 26" fill="none" xmlns="http://www.w3.org/2000/svg">
<g clip-path="url(#clip0_257_7155)">
<path d="M17.2498 16.5001C16.1458 16.5001 15.1568 17.0751 14.5358 17.9501L8.9468 14.4251C9.2918 13.5001 9.2918 12.4751 8.9468 11.5501L14.5358 8.0251C15.1568 8.9001 16.1458 9.4751 17.2498 9.4751C19.1588 9.4751 20.6998 7.8001 20.6998 5.7251C20.6998 3.6501 19.1588 1.9751 17.2498 1.9751C15.3408 1.9751 13.7998 3.6501 13.7998 5.7251C13.7998 6.2251 13.8918 6.7251 14.0528 7.1501L8.4638 10.7001C7.8198 9.8251 6.8538 9.2501 5.7498 9.2501C3.8408 9.2501 2.2998 10.9251 2.2998 13.0001C2.2998 15.0751 3.8408 16.7501 5.7498 16.7501C6.8538 16.7501 7.8428 16.1751 8.4638 15.3001L14.0528 18.8251C13.8918 19.2501 13.7998 19.7501 13.7998 20.2501C13.7998 22.3251 15.3408 24.0001 17.2498 24.0001C19.1588 24.0001 20.6998 22.3251 20.6998 20.2501C20.6998 18.1751 19.1588 16.5001 17.2498 16.5001ZM17.2498 3.0001C18.6528 3.0001 19.7798 4.2251 19.7798 5.7501C19.7798 7.2751 18.6528 8.5001 17.2498 8.5001C15.8468 8.5001 14.7198 7.2751 14.7198 5.7501C14.7198 4.2251 15.8468 3.0001 17.2498 3.0001ZM5.7498 15.7501C4.3468 15.7501 3.2198 14.5251 3.2198 13.0001C3.2198 11.4751 4.3468 10.2501 5.7498 10.2501C7.1528 10.2501 8.2798 11.4751 8.2798 13.0001C8.2798 14.5251 7.1528 15.7501 5.7498 15.7501ZM17.2498 23.0001C15.8468 23.0001 14.7198 21.7751 14.7198 20.2501C14.7198 18.7251 15.8468 17.5001 17.2498 17.5001C18.6528 17.5001 19.7798 18.7251 19.7798 20.2501C19.7798 21.7751 18.6528 23.0001 17.2498 23.0001Z" fill="#BBB8B5"/>
</g>
<defs>
<clipPath id="clip0_257_7155">
<rect width="23" height="25" fill="white" transform="translate(0 0.5)"/>
</clipPath>
</defs>
</svg>
