<svg width="27" height="27" viewBox="0 0 27 27" fill="none" xmlns="http://www.w3.org/2000/svg">
<rect x="0.5" y="0.5" width="26" height="26" rx="13" fill="white"/>
<rect x="0.5" y="0.5" width="26" height="26" rx="13" stroke="white"/>
<path fill-rule="evenodd" clip-rule="evenodd" d="M9.92188 6.82465C9.92188 6.36944 10.2607 6 10.679 6H15.7272C16.1456 6 16.4844 6.36944 16.4844 6.82465C16.4844 7.27986 16.1456 7.64931 15.7272 7.64931H10.679C10.2607 7.64931 9.92188 7.27986 9.92188 6.82465ZM11.3804 20.8438H15.0259C17.5861 20.8438 18.8666 20.8438 19.7861 20.2484C20.1818 19.9926 20.5235 19.6611 20.7918 19.2728C21.4062 18.3822 21.4062 17.1411 21.4062 14.6589C21.4062 12.1766 21.4062 10.9364 20.791 10.0449C20.523 9.65661 20.1815 9.32512 19.7861 9.06936C18.8666 8.47396 17.5861 8.47396 15.0259 8.47396H11.3804C8.8202 8.47396 7.53969 8.47396 6.62012 9.06936C6.22475 9.32514 5.8833 9.65662 5.61523 10.0449C5 10.9355 5 12.1767 5 14.6572V14.6589C5 17.1411 5 18.3813 5.61441 19.2728C5.8802 19.6587 6.22145 19.9902 6.62012 20.2484C7.53969 20.8438 8.8202 20.8438 11.3804 20.8438ZM9.78488 14.6589C9.78488 12.8281 11.3156 11.3454 13.2031 11.3454C15.0907 11.3454 16.6214 12.8289 16.6214 14.6589C16.6214 16.4888 15.0898 17.9723 13.2031 17.9723C11.3156 17.9723 9.78488 16.4879 9.78488 14.6589ZM11.1523 14.6589C11.1523 13.5604 12.0711 12.6714 13.2031 12.6714C14.3352 12.6714 15.2539 13.5612 15.2539 14.6589C15.2539 15.7565 14.3352 16.6463 13.2031 16.6463C12.0711 16.6463 11.1523 15.7565 11.1523 14.6589ZM18.2161 11.3454C17.8387 11.3454 17.5327 11.6423 17.5327 12.0084C17.5327 12.3737 17.8387 12.6706 18.2161 12.6706H18.6721C19.0495 12.6706 19.3555 12.3737 19.3555 12.0084C19.3555 11.6423 19.0495 11.3454 18.6721 11.3454H18.2161Z" fill="url(#paint0_linear_354_5181)"/>
<defs>
<linearGradient id="paint0_linear_354_5181" x1="4.34796" y1="6.90575" x2="4.34796" y2="20.6591" gradientUnits="userSpaceOnUse">
<stop stop-color="#83B6B2"/>
<stop offset="0.305" stop-color="#75A3A0"/>
<stop offset="1" stop-color="#3A504E"/>
</linearGradient>
</defs>
</svg>
