<svg width="43" height="40" viewBox="0 0 43 40" fill="none" xmlns="http://www.w3.org/2000/svg">
<ellipse cx="21.5" cy="20.1404" rx="21.5" ry="19.739" fill="#E8F3F1"/>
<mask id="mask0_78_773" style="mask-type:luminance" maskUnits="userSpaceOnUse" x="10" y="10" width="22" height="21">
<path fill-rule="evenodd" clip-rule="evenodd" d="M10 10.5005H31.493V30.2338H10V10.5005Z" fill="white"/>
</mask>
<g mask="url(#mask0_78_773)">
<path fill-rule="evenodd" clip-rule="evenodd" d="M15.1084 27.6459C15.6884 27.6459 16.2354 27.8479 16.8144 28.0618C20.3614 29.5675 24.5564 28.8826 27.2894 26.3744C30.8954 23.0619 30.8954 17.6736 27.2894 14.3629C25.5434 12.7599 23.2214 11.8776 20.7494 11.8776C18.2764 11.8776 15.9534 12.7608 14.2084 14.3638C11.4744 16.8721 10.7304 20.7235 12.3554 23.9487C12.5894 24.4803 12.8154 24.9981 12.8154 25.5361C12.8154 26.0732 12.6144 26.614 12.4374 27.0914C12.2914 27.4843 12.0704 28.0774 12.2124 28.2078C12.3514 28.34 13.0014 28.1316 13.4304 27.9966C13.9454 27.835 14.5294 27.6496 15.1084 27.6459ZM20.7244 30.234C19.1964 30.234 17.6584 29.9375 16.2194 29.326C15.7954 29.17 15.3984 29.0231 15.1134 29.0231C14.7854 29.0249 14.3444 29.1644 13.9184 29.2994C13.0444 29.5748 11.9564 29.9182 11.1514 29.1819C10.3494 28.4447 10.7194 27.4485 11.0174 26.647C11.1644 26.2522 11.3154 25.8446 11.3154 25.5361C11.3154 25.2827 11.1824 24.9596 10.9784 24.4941C9.10544 20.7804 9.97144 16.3047 13.1484 13.3897C15.1764 11.5269 17.8754 10.5005 20.7484 10.5005C23.6214 10.5005 26.3214 11.526 28.3494 13.3888C32.5414 17.2375 32.5414 23.4989 28.3494 27.3475C26.2944 29.2351 23.5274 30.234 20.7244 30.234Z" fill="#199A8E"/>
</g>
<path fill-rule="evenodd" clip-rule="evenodd" d="M24.6964 21.6672C24.1444 21.6672 23.6924 21.2569 23.6924 20.7491C23.6924 20.2414 24.1354 19.8311 24.6874 19.8311H24.6964C25.2484 19.8311 25.6964 20.2414 25.6964 20.7491C25.6964 21.2569 25.2484 21.6672 24.6964 21.6672Z" fill="#199A8E"/>
<path fill-rule="evenodd" clip-rule="evenodd" d="M20.6876 21.6672C20.1356 21.6672 19.6836 21.2569 19.6836 20.7491C19.6836 20.2414 20.1256 19.8311 20.6786 19.8311H20.6876C21.2396 19.8311 21.6876 20.2414 21.6876 20.7491C21.6876 21.2569 21.2396 21.6672 20.6876 21.6672Z" fill="#199A8E"/>
<path fill-rule="evenodd" clip-rule="evenodd" d="M16.6778 21.6672C16.1258 21.6672 15.6738 21.2569 15.6738 20.7491C15.6738 20.2414 16.1168 19.8311 16.6688 19.8311H16.6778C17.2298 19.8311 17.6778 20.2414 17.6778 20.7491C17.6778 21.2569 17.2298 21.6672 16.6778 21.6672Z" fill="#199A8E"/>
</svg>
