<svg width="162" height="144" viewBox="0 0 162 144" fill="none" xmlns="http://www.w3.org/2000/svg">
<g filter="url(#filter0_d_172_2186)">
<rect x="20" y="20" width="122" height="104" rx="8" fill="white"/>
<path d="M100.624 64.4167V64.4167C100.643 64.4675 100.652 64.4929 100.66 64.5135C102.116 68.557 99.6178 72.9454 95.3978 73.7584C95.3764 73.7625 95.3497 73.7675 95.2965 73.7774L92.9104 74.2216C92.2667 74.3415 91.9449 74.4014 91.6363 74.4886C90.674 74.7608 89.7811 75.236 89.0179 75.8823C88.7732 76.0895 88.5438 76.323 88.0848 76.79L87.9446 76.9327C86.1317 78.7777 85.2252 79.7002 84.2555 80.2096C82.2173 81.2804 79.7828 81.2804 77.7445 80.2096C76.7748 79.7002 75.8683 78.7777 74.0554 76.9327L73.9152 76.79C73.4563 76.323 73.2268 76.0895 72.9821 75.8823C72.2189 75.236 71.326 74.7608 70.3637 74.4886C70.0551 74.4014 69.7333 74.3415 69.0896 74.2216L67.8922 73.9987C66.755 73.787 66.1865 73.6811 65.7432 73.5356C62.3232 72.413 60.3121 68.8796 61.0932 65.3658C61.1944 64.9104 61.3937 64.3675 61.7923 63.2817V63.2817C61.926 62.9174 61.9929 62.7353 62.0482 62.555C62.4595 61.2159 62.4595 59.7841 62.0482 58.445C61.9929 58.2647 61.926 58.0826 61.7923 57.7184V57.7184C61.3937 56.6325 61.1944 56.0896 61.0932 55.6342C60.3121 52.1204 62.3232 48.587 65.7432 47.4644C66.1865 47.3189 66.755 47.213 67.8922 47.0013L69.0896 46.7784C69.7333 46.6585 70.0551 46.5986 70.3637 46.5114C71.326 46.2392 72.2189 45.764 72.9821 45.1177C73.2268 44.9105 73.4563 44.677 73.9152 44.21L74.0554 44.0673C75.8683 42.2223 76.7748 41.2998 77.7445 40.7904C79.7828 39.7196 82.2173 39.7196 84.2555 40.7904C85.2252 41.2998 86.1317 42.2223 87.9446 44.0673L88.0848 44.21C88.5438 44.677 88.7732 44.9105 89.0179 45.1177C89.7811 45.764 90.674 46.2392 91.6363 46.5114C91.9449 46.5986 92.2667 46.6585 92.9104 46.7784L95.8825 47.3317C99.8663 48.0735 102.226 52.2197 100.83 56.0238V56.0238L100.689 56.4082M87.1859 60.5C87.1859 63.5902 84.4164 66.0952 81 66.0952C77.5836 66.0952 74.8141 63.5902 74.8141 60.5C74.8141 57.4098 77.5836 54.9048 81 54.9048C84.4164 54.9048 87.1859 57.4098 87.1859 60.5Z" stroke="#BBB8B5" stroke-width="3.5" stroke-linecap="round"/>
<path d="M57.9751 104C57.9018 104 57.8431 103.978 57.7991 103.934C57.7551 103.89 57.7331 103.831 57.7331 103.758V96.96H55.5551C55.4818 96.96 55.4231 96.938 55.3791 96.894C55.3351 96.85 55.3131 96.7913 55.3131 96.718V96.553C55.3131 96.4723 55.3351 96.41 55.3791 96.366C55.4231 96.322 55.4818 96.3 55.5551 96.3H60.5931C60.6738 96.3 60.7361 96.322 60.7801 96.366C60.8241 96.41 60.8461 96.4723 60.8461 96.553V96.718C60.8461 96.7913 60.8241 96.85 60.7801 96.894C60.7361 96.938 60.6738 96.96 60.5931 96.96H58.4261V103.758C58.4261 103.831 58.4041 103.89 58.3601 103.934C58.3161 103.978 58.2538 104 58.1731 104H57.9751ZM62.7682 104.11C62.0569 104.11 61.4922 103.879 61.0742 103.417C60.6562 102.948 60.4179 102.335 60.3592 101.58C60.3519 101.47 60.3482 101.323 60.3482 101.14C60.3482 100.957 60.3519 100.81 60.3592 100.7C60.3959 100.201 60.5132 99.7613 60.7112 99.38C60.9092 98.9987 61.1805 98.7017 61.5252 98.489C61.8772 98.2763 62.2915 98.17 62.7682 98.17C63.2815 98.17 63.7179 98.2837 64.0772 98.511C64.4365 98.7383 64.7115 99.0647 64.9022 99.49C65.1002 99.9153 65.1992 100.421 65.1992 101.008V101.173C65.1992 101.246 65.1735 101.305 65.1222 101.349C65.0782 101.393 65.0195 101.415 64.9462 101.415H61.0302C61.0302 101.415 61.0302 101.43 61.0302 101.459C61.0302 101.488 61.0302 101.51 61.0302 101.525C61.0449 101.855 61.1219 102.17 61.2612 102.471C61.4005 102.764 61.5985 103.006 61.8552 103.197C62.1119 103.38 62.4162 103.472 62.7682 103.472C63.0835 103.472 63.3439 103.424 63.5492 103.329C63.7619 103.234 63.9305 103.131 64.0552 103.021C64.1799 102.904 64.2605 102.816 64.2972 102.757C64.3632 102.662 64.4145 102.607 64.4512 102.592C64.4879 102.57 64.5465 102.559 64.6272 102.559H64.8032C64.8692 102.559 64.9242 102.581 64.9682 102.625C65.0195 102.662 65.0415 102.713 65.0342 102.779C65.0269 102.882 64.9682 103.01 64.8582 103.164C64.7555 103.311 64.6052 103.457 64.4072 103.604C64.2165 103.751 63.9819 103.872 63.7032 103.967C63.4245 104.062 63.1129 104.11 62.7682 104.11ZM61.0302 100.799H64.5282V100.755C64.5282 100.388 64.4585 100.058 64.3192 99.765C64.1799 99.4717 63.9782 99.2407 63.7142 99.072C63.4502 98.896 63.1349 98.808 62.7682 98.808C62.4015 98.808 62.0862 98.896 61.8222 99.072C61.5655 99.2407 61.3675 99.4717 61.2282 99.765C61.0962 100.058 61.0302 100.388 61.0302 100.755V100.799ZM68.5171 104.11C68.0037 104.11 67.5674 104.011 67.2081 103.813C66.8487 103.608 66.5737 103.314 66.3831 102.933C66.1997 102.552 66.1007 102.101 66.0861 101.58C66.0787 101.47 66.0751 101.323 66.0751 101.14C66.0751 100.957 66.0787 100.81 66.0861 100.7C66.1007 100.172 66.1997 99.721 66.3831 99.347C66.5737 98.9657 66.8487 98.676 67.2081 98.478C67.5674 98.2727 68.0037 98.17 68.5171 98.17C68.9057 98.17 69.2394 98.225 69.5181 98.335C69.8041 98.4377 70.0387 98.577 70.2221 98.753C70.4054 98.9217 70.5447 99.1087 70.6401 99.314C70.7354 99.5193 70.7867 99.721 70.7941 99.919C70.8014 99.9923 70.7794 100.051 70.7281 100.095C70.6767 100.139 70.6181 100.161 70.5521 100.161H70.3981C70.3247 100.161 70.2697 100.146 70.2331 100.117C70.2037 100.08 70.1707 100.018 70.1341 99.93C69.9801 99.512 69.7674 99.2223 69.4961 99.061C69.2321 98.8923 68.9057 98.808 68.5171 98.808C68.0184 98.808 67.6041 98.962 67.2741 99.27C66.9514 99.5707 66.7791 100.066 66.7571 100.755C66.7424 101.012 66.7424 101.268 66.7571 101.525C66.7791 102.214 66.9514 102.713 67.2741 103.021C67.6041 103.322 68.0184 103.472 68.5171 103.472C68.9057 103.472 69.2321 103.391 69.4961 103.23C69.7674 103.061 69.9801 102.768 70.1341 102.35C70.1707 102.262 70.2037 102.203 70.2331 102.174C70.2697 102.137 70.3247 102.119 70.3981 102.119H70.5521C70.6181 102.119 70.6767 102.141 70.7281 102.185C70.7794 102.229 70.8014 102.288 70.7941 102.361C70.7867 102.522 70.7537 102.684 70.6951 102.845C70.6364 103.006 70.5447 103.164 70.4201 103.318C70.3027 103.472 70.1561 103.608 69.9801 103.725C69.8041 103.842 69.5914 103.934 69.3421 104C69.1001 104.073 68.8251 104.11 68.5171 104.11ZM72.2005 104C72.1272 104 72.0685 103.978 72.0245 103.934C71.9805 103.89 71.9585 103.831 71.9585 103.758V96.432C71.9585 96.3587 71.9805 96.3 72.0245 96.256C72.0685 96.212 72.1272 96.19 72.2005 96.19H72.3875C72.4609 96.19 72.5195 96.212 72.5635 96.256C72.6075 96.3 72.6295 96.3587 72.6295 96.432V99.039C72.8275 98.7823 73.0659 98.5733 73.3445 98.412C73.6305 98.2507 74.0082 98.17 74.4775 98.17C74.9762 98.17 75.3905 98.28 75.7205 98.5C76.0579 98.7127 76.3072 99.006 76.4685 99.38C76.6372 99.7467 76.7215 100.165 76.7215 100.634V103.758C76.7215 103.831 76.6995 103.89 76.6555 103.934C76.6115 103.978 76.5529 104 76.4795 104H76.2925C76.2192 104 76.1605 103.978 76.1165 103.934C76.0725 103.89 76.0505 103.831 76.0505 103.758V100.689C76.0505 100.102 75.9075 99.644 75.6215 99.314C75.3355 98.9767 74.9175 98.808 74.3675 98.808C73.8469 98.808 73.4252 98.9767 73.1025 99.314C72.7872 99.644 72.6295 100.102 72.6295 100.689V103.758C72.6295 103.831 72.6075 103.89 72.5635 103.934C72.5195 103.978 72.4609 104 72.3875 104H72.2005ZM78.3886 104C78.3152 104 78.2566 103.978 78.2126 103.934C78.1686 103.89 78.1466 103.831 78.1466 103.758V98.522C78.1466 98.4487 78.1686 98.39 78.2126 98.346C78.2566 98.302 78.3152 98.28 78.3886 98.28H78.5756C78.6489 98.28 78.7076 98.302 78.7516 98.346C78.7956 98.39 78.8176 98.4487 78.8176 98.522V99.039C79.0156 98.7823 79.2539 98.5733 79.5326 98.412C79.8186 98.2507 80.1962 98.17 80.6656 98.17C81.1642 98.17 81.5786 98.28 81.9086 98.5C82.2459 98.7127 82.4952 99.006 82.6566 99.38C82.8252 99.7467 82.9096 100.165 82.9096 100.634V103.758C82.9096 103.831 82.8876 103.89 82.8436 103.934C82.7996 103.978 82.7409 104 82.6676 104H82.4806C82.4072 104 82.3486 103.978 82.3046 103.934C82.2606 103.89 82.2386 103.831 82.2386 103.758V100.689C82.2386 100.102 82.0956 99.644 81.8096 99.314C81.5236 98.9767 81.1056 98.808 80.5556 98.808C80.0349 98.808 79.6132 98.9767 79.2906 99.314C78.9752 99.644 78.8176 100.102 78.8176 100.689V103.758C78.8176 103.831 78.7956 103.89 78.7516 103.934C78.7076 103.978 78.6489 104 78.5756 104H78.3886ZM84.5768 104C84.5035 104 84.4448 103.978 84.4008 103.934C84.3568 103.89 84.3348 103.831 84.3348 103.758V98.522C84.3348 98.4487 84.3568 98.39 84.4008 98.346C84.4448 98.302 84.5035 98.28 84.5768 98.28H84.7638C84.8372 98.28 84.8958 98.302 84.9398 98.346C84.9838 98.39 85.0058 98.4487 85.0058 98.522V103.758C85.0058 103.831 84.9838 103.89 84.9398 103.934C84.8958 103.978 84.8372 104 84.7638 104H84.5768ZM84.4558 97.103C84.3825 97.103 84.3238 97.081 84.2798 97.037C84.2358 96.993 84.2138 96.9343 84.2138 96.861V96.443C84.2138 96.3697 84.2358 96.311 84.2798 96.267C84.3238 96.2157 84.3825 96.19 84.4558 96.19H84.8738C84.9472 96.19 85.0058 96.2157 85.0498 96.267C85.1012 96.311 85.1268 96.3697 85.1268 96.443V96.861C85.1268 96.9343 85.1012 96.993 85.0498 97.037C85.0058 97.081 84.9472 97.103 84.8738 97.103H84.4558ZM88.6511 104.11C88.1377 104.11 87.7014 104.011 87.3421 103.813C86.9827 103.608 86.7077 103.314 86.5171 102.933C86.3337 102.552 86.2347 102.101 86.2201 101.58C86.2127 101.47 86.2091 101.323 86.2091 101.14C86.2091 100.957 86.2127 100.81 86.2201 100.7C86.2347 100.172 86.3337 99.721 86.5171 99.347C86.7077 98.9657 86.9827 98.676 87.3421 98.478C87.7014 98.2727 88.1377 98.17 88.6511 98.17C89.0397 98.17 89.3734 98.225 89.6521 98.335C89.9381 98.4377 90.1727 98.577 90.3561 98.753C90.5394 98.9217 90.6787 99.1087 90.7741 99.314C90.8694 99.5193 90.9207 99.721 90.9281 99.919C90.9354 99.9923 90.9134 100.051 90.8621 100.095C90.8107 100.139 90.7521 100.161 90.6861 100.161H90.5321C90.4587 100.161 90.4037 100.146 90.3671 100.117C90.3377 100.08 90.3047 100.018 90.2681 99.93C90.1141 99.512 89.9014 99.2223 89.6301 99.061C89.3661 98.8923 89.0397 98.808 88.6511 98.808C88.1524 98.808 87.7381 98.962 87.4081 99.27C87.0854 99.5707 86.9131 100.066 86.8911 100.755C86.8764 101.012 86.8764 101.268 86.8911 101.525C86.9131 102.214 87.0854 102.713 87.4081 103.021C87.7381 103.322 88.1524 103.472 88.6511 103.472C89.0397 103.472 89.3661 103.391 89.6301 103.23C89.9014 103.061 90.1141 102.768 90.2681 102.35C90.3047 102.262 90.3377 102.203 90.3671 102.174C90.4037 102.137 90.4587 102.119 90.5321 102.119H90.6861C90.7521 102.119 90.8107 102.141 90.8621 102.185C90.9134 102.229 90.9354 102.288 90.9281 102.361C90.9207 102.522 90.8877 102.684 90.8291 102.845C90.7704 103.006 90.6787 103.164 90.5541 103.318C90.4367 103.472 90.2901 103.608 90.1141 103.725C89.9381 103.842 89.7254 103.934 89.4761 104C89.2341 104.073 88.9591 104.11 88.6511 104.11ZM93.6215 104.11C93.2695 104.11 92.9432 104.037 92.6425 103.89C92.3492 103.743 92.1109 103.549 91.9275 103.307C91.7442 103.058 91.6525 102.779 91.6525 102.471C91.6525 101.972 91.8542 101.573 92.2575 101.272C92.6609 100.971 93.1852 100.777 93.8305 100.689L95.5685 100.447V100.062C95.5685 99.6733 95.4475 99.369 95.2055 99.149C94.9709 98.9217 94.5932 98.808 94.0725 98.808C93.6912 98.808 93.3832 98.885 93.1485 99.039C92.9139 99.1857 92.7525 99.38 92.6645 99.622C92.6279 99.732 92.5582 99.787 92.4555 99.787H92.2795C92.1915 99.787 92.1292 99.765 92.0925 99.721C92.0559 99.6697 92.0375 99.611 92.0375 99.545C92.0375 99.4423 92.0742 99.314 92.1475 99.16C92.2282 99.006 92.3492 98.8557 92.5105 98.709C92.6719 98.555 92.8809 98.4267 93.1375 98.324C93.3942 98.2213 93.7059 98.17 94.0725 98.17C94.5052 98.17 94.8609 98.2287 95.1395 98.346C95.4255 98.4633 95.6455 98.6173 95.7995 98.808C95.9609 98.9913 96.0745 99.1967 96.1405 99.424C96.2065 99.6513 96.2395 99.875 96.2395 100.095V103.758C96.2395 103.831 96.2175 103.89 96.1735 103.934C96.1295 103.978 96.0709 104 95.9975 104H95.8105C95.7372 104 95.6785 103.978 95.6345 103.934C95.5905 103.89 95.5685 103.831 95.5685 103.758V103.241C95.4805 103.373 95.3559 103.505 95.1945 103.637C95.0332 103.769 94.8242 103.883 94.5675 103.978C94.3182 104.066 94.0029 104.11 93.6215 104.11ZM93.7315 103.472C94.0689 103.472 94.3769 103.399 94.6555 103.252C94.9342 103.105 95.1542 102.882 95.3155 102.581C95.4842 102.273 95.5685 101.888 95.5685 101.426V101.052L94.1495 101.25C93.5482 101.331 93.0935 101.47 92.7855 101.668C92.4775 101.866 92.3235 102.115 92.3235 102.416C92.3235 102.658 92.3932 102.856 92.5325 103.01C92.6719 103.164 92.8479 103.281 93.0605 103.362C93.2805 103.435 93.5042 103.472 93.7315 103.472ZM97.932 104C97.8587 104 97.8 103.978 97.756 103.934C97.712 103.89 97.69 103.831 97.69 103.758V96.432C97.69 96.3587 97.712 96.3 97.756 96.256C97.8 96.212 97.8587 96.19 97.932 96.19H98.119C98.1923 96.19 98.251 96.212 98.295 96.256C98.339 96.3 98.361 96.3587 98.361 96.432V103.758C98.361 103.831 98.339 103.89 98.295 103.934C98.251 103.978 98.1923 104 98.119 104H97.932ZM100.103 104C100.029 104 99.9707 103.978 99.9267 103.934C99.8827 103.89 99.8607 103.831 99.8607 103.758V96.432C99.8607 96.3587 99.8827 96.3 99.9267 96.256C99.9707 96.212 100.029 96.19 100.103 96.19H100.29C100.363 96.19 100.422 96.212 100.466 96.256C100.51 96.3 100.532 96.3587 100.532 96.432V103.758C100.532 103.831 100.51 103.89 100.466 103.934C100.422 103.978 100.363 104 100.29 104H100.103ZM102.988 106.09C102.93 106.09 102.878 106.068 102.834 106.024C102.79 105.98 102.768 105.929 102.768 105.87C102.768 105.841 102.772 105.808 102.779 105.771C102.794 105.742 102.812 105.701 102.834 105.65L103.681 103.67L101.58 98.72C101.536 98.61 101.514 98.5367 101.514 98.5C101.514 98.4413 101.536 98.39 101.58 98.346C101.624 98.302 101.676 98.28 101.734 98.28H101.965C102.039 98.28 102.094 98.2983 102.13 98.335C102.174 98.3643 102.204 98.401 102.218 98.445L104.066 102.801L105.958 98.445C105.98 98.401 106.01 98.3643 106.046 98.335C106.083 98.2983 106.138 98.28 106.211 98.28H106.431C106.49 98.28 106.541 98.302 106.585 98.346C106.629 98.39 106.651 98.4413 106.651 98.5C106.651 98.5367 106.629 98.61 106.585 98.72L103.461 105.925C103.439 105.969 103.41 106.006 103.373 106.035C103.337 106.072 103.282 106.09 103.208 106.09H102.988Z" fill="#BBB8B5"/>
</g>
<defs>
<filter id="filter0_d_172_2186" x="0" y="0" width="162" height="144" filterUnits="userSpaceOnUse" color-interpolation-filters="sRGB">
<feFlood flood-opacity="0" result="BackgroundImageFix"/>
<feColorMatrix in="SourceAlpha" type="matrix" values="0 0 0 0 0 0 0 0 0 0 0 0 0 0 0 0 0 0 127 0" result="hardAlpha"/>
<feOffset/>
<feGaussianBlur stdDeviation="10"/>
<feColorMatrix type="matrix" values="0 0 0 0 0 0 0 0 0 0 0 0 0 0 0 0 0 0 0.08 0"/>
<feBlend mode="normal" in2="BackgroundImageFix" result="effect1_dropShadow_172_2186"/>
<feBlend mode="normal" in="SourceGraphic" in2="effect1_dropShadow_172_2186" result="shape"/>
</filter>
</defs>
</svg>
