<svg width="24" height="25" viewBox="0 0 24 25" fill="none" xmlns="http://www.w3.org/2000/svg">
<g clip-path="url(#clip0_27_273)">
<path d="M9.71973 14.5781C9.71973 18.2266 12.9185 21.1836 16.8597 21.1836C17.3735 21.1836 17.8722 21.1328 18.356 21.0352C21.761 22.668 23.3397 22.543 23.7822 22.3086C23.9097 22.2383 23.9172 22.0508 23.8047 21.957C22.436 20.8516 22.0085 19.7461 21.8772 19.2734C23.1897 18.0781 24.0035 16.4141 24.0035 14.5781C24.0035 10.9297 20.8047 7.97656 16.8635 7.97656C12.9147 7.97656 9.71973 10.9297 9.71973 14.5781Z" fill="#0CAD99"/>
<path d="M15.4316 15.6523L14.6104 18.2422H13.5566L16.2416 10.0117H17.4716L20.1679 18.2422H19.0766L18.2329 15.6523H15.4316ZM18.0191 14.8242L17.2466 12.457C17.0704 11.918 16.9541 11.4297 16.8379 10.957H16.8154C16.6991 11.4453 16.5679 11.9453 16.4179 12.4453L15.6454 14.8242H18.0191Z" fill="white"/>
<path d="M14.28 9.15625C14.28 12.8047 11.0813 15.7617 7.14 15.7617C6.62625 15.7617 6.1275 15.7109 5.64375 15.6133C2.23875 17.2461 0.66 17.1211 0.2175 16.8867C0.09 16.8164 0.0825 16.6289 0.195 16.5352C1.56375 15.4297 1.99125 14.3242 2.1225 13.8516C0.81375 12.6563 0 10.9922 0 9.15625C0 5.50782 3.19875 2.55469 7.14 2.55469C11.085 2.55079 14.28 5.50782 14.28 9.15625Z" fill="#10AFE9"/>
<path d="M11.036 12.1289C9.29977 12.0547 8.16352 11.5273 7.41727 10.8828C8.73727 9.39844 9.28477 7.51562 9.45352 6.78516H10.7548C10.8492 6.78516 10.9399 6.74606 11.0067 6.67647C11.0735 6.60687 11.111 6.51248 11.111 6.41406C11.111 6.31564 11.0735 6.22125 11.0067 6.15166C10.9399 6.08207 10.8492 6.04297 10.7548 6.04297H7.52977V4.73437C7.52977 4.63595 7.49223 4.54157 7.42542 4.47197C7.35861 4.40238 7.268 4.36328 7.17352 4.36328C7.07903 4.36328 6.98842 4.40238 6.92161 4.47197C6.8548 4.54157 6.81727 4.63595 6.81727 4.73437V6.04297H3.59227C3.49778 6.04297 3.40717 6.08207 3.34036 6.15166C3.27355 6.22125 3.23602 6.31564 3.23602 6.41406C3.23602 6.51248 3.27355 6.60687 3.34036 6.67647C3.40717 6.74606 3.49778 6.78516 3.59227 6.78516H8.72227C8.53477 7.53516 8.02852 9.11328 6.91477 10.3633C6.09727 9.35547 6.01477 8.28125 6.00727 8.19922C6.00071 8.10103 5.95728 8.00949 5.88639 7.94441C5.8155 7.87934 5.72285 7.84598 5.62852 7.85156C5.42977 7.86328 5.27977 8.03906 5.29477 8.24609C5.29477 8.26953 5.39227 9.62891 6.40852 10.8711C5.61727 11.5664 4.58977 12.0781 3.24727 12.1367C3.15278 12.1388 3.06296 12.1799 2.99756 12.2509C2.93215 12.322 2.89653 12.4172 2.89852 12.5156C2.90051 12.614 2.93995 12.7076 3.00816 12.7757C3.07638 12.8439 3.16778 12.881 3.26227 12.8789H3.27727C4.83727 12.8086 6.01852 12.207 6.91477 11.3984C7.76227 12.168 9.05227 12.793 11.0135 12.8789H11.0285C11.2198 12.8789 11.3773 12.7227 11.3848 12.5234C11.3885 12.3125 11.2348 12.1367 11.036 12.1289Z" fill="white"/>
</g>
<defs>
<clipPath id="clip0_27_273">
<rect width="24" height="25" fill="white"/>
</clipPath>
</defs>
</svg>
